<svg width="132" height="48" viewBox="0 0 132 48" fill="none" xmlns="http://www.w3.org/2000/svg">
<rect width="131.373" height="48" rx="5.76134" fill="white"/>
<rect x="5.76123" y="5.99973" width="36.0007" height="36.0007" rx="2.71704" fill="#364152"/>
<path d="M17.0417 24.6746H19.9217M14.1616 20.7745L16.0817 21.7495L17.3015 18.0328C17.5533 17.2656 17.6792 16.882 17.9127 16.5985C18.1189 16.348 18.3837 16.1542 18.6828 16.0347C19.0216 15.8994 19.4197 15.8994 20.2159 15.8994H27.3077C28.1039 15.8994 28.502 15.8994 28.8408 16.0347C29.1399 16.1542 29.4047 16.348 29.6109 16.5985C29.8444 16.882 29.9703 17.2656 30.2221 18.0328L31.442 21.7495L33.362 20.7745M27.6019 24.6746H30.4819M18.7697 21.7495H28.7539C30.3669 21.7495 31.1734 21.7495 31.7895 22.0683C32.3314 22.3487 32.772 22.7962 33.0481 23.3466C33.362 23.9723 33.362 24.7914 33.362 26.4296V29.0621C33.362 29.5152 33.362 29.7417 33.3251 29.9301C33.1736 30.7036 32.5782 31.3084 31.8165 31.4622C31.6311 31.4997 31.408 31.4997 30.962 31.4997H30.4819C29.4215 31.4997 28.5619 30.6266 28.5619 29.5497C28.5619 29.2804 28.347 29.0621 28.0819 29.0621H19.4417C19.1766 29.0621 18.9617 29.2804 18.9617 29.5497C18.9617 30.6266 18.1021 31.4997 17.0417 31.4997H16.5617C16.1156 31.4997 15.8926 31.4997 15.7071 31.4622C14.9454 31.3084 14.35 30.7036 14.1985 29.9301C14.1616 29.7417 14.1616 29.5152 14.1616 29.0621V26.4296C14.1616 24.7914 14.1616 23.9723 14.4755 23.3466C14.7516 22.7962 15.1922 22.3487 15.7342 22.0683C16.3502 21.7495 17.1567 21.7495 18.7697 21.7495Z" stroke="#FAC515" stroke-width="1.80004" stroke-linecap="round" stroke-linejoin="round"/>
<mask id="path-4-outside-1_4270_7688" maskUnits="userSpaceOnUse" x="44.8374" y="6.95392" width="78" height="18" fill="black">
<rect fill="white" x="44.8374" y="6.95392" width="78" height="18"/>
<path d="M63.0042 23.9539H59.1382L57.6195 19.9959H50.4168L48.99 23.9539H45.3081L52.2577 7.40842H55.9396L63.0042 23.9539ZM56.4919 17.0734L53.9836 10.7451L51.5443 17.0734H56.4919ZM83.9371 23.9539H80.5083L80.7845 11.0903L76.5733 23.9539H72.8684L68.5422 10.9753L68.9103 23.9539H65.3435V7.40842H70.4521L74.6403 20.0879L78.8515 7.40842H83.9371V23.9539ZM103.958 23.9539H100.092L98.5733 19.9959H91.3706L89.9439 23.9539H86.262L93.2116 7.40842H96.8934L103.958 23.9539ZM97.4457 17.0734L94.9374 10.7451L92.4982 17.0734H97.4457ZM121.37 23.9539H117.481L113.822 17.4876H109.749V23.9539H106.274V7.40842H114.812H115.663L116.308 7.52348L116.791 7.59251C116.944 7.59251 117.044 7.60018 117.09 7.61552C117.167 7.63087 117.351 7.67689 117.642 7.75359C118.609 7.98371 119.36 8.57435 119.897 9.52551C120.373 10.3693 120.611 11.3588 120.611 12.494C120.611 13.6293 120.342 14.5958 119.805 15.3935C119.299 16.1759 118.463 16.7205 117.297 17.0274L121.37 23.9539ZM117.113 12.448C117.113 11.7577 116.929 11.2514 116.561 10.9292C116.131 10.561 115.28 10.3769 114.006 10.3769H109.749V14.5651H114.006C115.264 14.5651 116.1 14.381 116.515 14.0128C116.913 13.6293 117.113 13.1077 117.113 12.448Z"/>
</mask>
<path d="M63.0042 23.9539H59.1382L57.6195 19.9959H50.4168L48.99 23.9539H45.3081L52.2577 7.40842H55.9396L63.0042 23.9539ZM56.4919 17.0734L53.9836 10.7451L51.5443 17.0734H56.4919ZM83.9371 23.9539H80.5083L80.7845 11.0903L76.5733 23.9539H72.8684L68.5422 10.9753L68.9103 23.9539H65.3435V7.40842H70.4521L74.6403 20.0879L78.8515 7.40842H83.9371V23.9539ZM103.958 23.9539H100.092L98.5733 19.9959H91.3706L89.9439 23.9539H86.262L93.2116 7.40842H96.8934L103.958 23.9539ZM97.4457 17.0734L94.9374 10.7451L92.4982 17.0734H97.4457ZM121.37 23.9539H117.481L113.822 17.4876H109.749V23.9539H106.274V7.40842H114.812H115.663L116.308 7.52348L116.791 7.59251C116.944 7.59251 117.044 7.60018 117.09 7.61552C117.167 7.63087 117.351 7.67689 117.642 7.75359C118.609 7.98371 119.36 8.57435 119.897 9.52551C120.373 10.3693 120.611 11.3588 120.611 12.494C120.611 13.6293 120.342 14.5958 119.805 15.3935C119.299 16.1759 118.463 16.7205 117.297 17.0274L121.37 23.9539ZM117.113 12.448C117.113 11.7577 116.929 11.2514 116.561 10.9292C116.131 10.561 115.28 10.3769 114.006 10.3769H109.749V14.5651H114.006C115.264 14.5651 116.1 14.381 116.515 14.0128C116.913 13.6293 117.113 13.1077 117.113 12.448Z" fill="#364152"/>
<path d="M63.0042 23.9539V24.2607H63.4689L63.2864 23.8334L63.0042 23.9539ZM59.1382 23.9539L58.8518 24.0638L58.9273 24.2607H59.1382V23.9539ZM57.6195 19.9959L57.9059 19.886L57.8304 19.6891H57.6195V19.9959ZM50.4168 19.9959V19.6891H50.2012L50.1281 19.8918L50.4168 19.9959ZM48.99 23.9539V24.2607H49.2056L49.2787 24.058L48.99 23.9539ZM45.3081 23.9539L45.0252 23.8351L44.8465 24.2607H45.3081V23.9539ZM52.2577 7.40842V7.10159H52.0538L51.9748 7.2896L52.2577 7.40842ZM55.9396 7.40842L56.2218 7.28793L56.1422 7.10159H55.9396V7.40842ZM56.4919 17.0734V17.3802H56.9435L56.7771 16.9603L56.4919 17.0734ZM53.9836 10.7451L54.2688 10.6321L53.9796 9.90238L53.6973 10.6348L53.9836 10.7451ZM51.5443 17.0734L51.258 16.963L51.0972 17.3802H51.5443V17.0734ZM63.0042 23.9539V23.6471H59.1382V23.9539V24.2607H63.0042V23.9539ZM59.1382 23.9539L59.4247 23.844L57.9059 19.886L57.6195 19.9959L57.333 20.1058L58.8518 24.0638L59.1382 23.9539ZM57.6195 19.9959V19.6891H50.4168V19.9959V20.3027H57.6195V19.9959ZM50.4168 19.9959L50.1281 19.8918L48.7014 23.8499L48.99 23.9539L49.2787 24.058L50.7054 20.0999L50.4168 19.9959ZM48.99 23.9539V23.6471H45.3081V23.9539V24.2607H48.99V23.9539ZM45.3081 23.9539L45.591 24.0727L52.5406 7.52724L52.2577 7.40842L51.9748 7.2896L45.0252 23.8351L45.3081 23.9539ZM52.2577 7.40842V7.71524H55.9396V7.40842V7.10159H52.2577V7.40842ZM55.9396 7.40842L55.6574 7.5289L62.722 24.0744L63.0042 23.9539L63.2864 23.8334L56.2218 7.28793L55.9396 7.40842ZM56.4919 17.0734L56.7771 16.9603L54.2688 10.6321L53.9836 10.7451L53.6984 10.8582L56.2066 17.1864L56.4919 17.0734ZM53.9836 10.7451L53.6973 10.6348L51.258 16.963L51.5443 17.0734L51.8306 17.1837L54.2699 10.8555L53.9836 10.7451ZM51.5443 17.0734V17.3802H56.4919V17.0734V16.7666H51.5443V17.0734ZM83.9371 23.9539V24.2607H84.2439V23.9539H83.9371ZM80.5083 23.9539L80.2016 23.9473L80.1948 24.2607H80.5083V23.9539ZM80.7845 11.0903L81.0912 11.0969L80.4929 10.9948L80.7845 11.0903ZM76.5733 23.9539V24.2607H76.7957L76.8649 24.0494L76.5733 23.9539ZM72.8684 23.9539L72.5773 24.0509L72.6472 24.2607H72.8684V23.9539ZM68.5422 10.9753L68.8332 10.8782L68.2355 10.984L68.5422 10.9753ZM68.9103 23.9539V24.2607H69.226L69.2171 23.9452L68.9103 23.9539ZM65.3435 23.9539H65.0367V24.2607H65.3435V23.9539ZM65.3435 7.40842V7.10159H65.0367V7.40842H65.3435ZM70.4521 7.40842L70.7435 7.31218L70.6739 7.10159H70.4521V7.40842ZM74.6403 20.0879L74.349 20.1842L74.6395 21.0638L74.9315 20.1846L74.6403 20.0879ZM78.8515 7.40842V7.10159H78.6301L78.5603 7.31171L78.8515 7.40842ZM83.9371 7.40842H84.2439V7.10159H83.9371V7.40842ZM83.9371 23.9539V23.6471H80.5083V23.9539V24.2607H83.9371V23.9539ZM80.5083 23.9539L80.8151 23.9605L81.0912 11.0969L80.7845 11.0903L80.4777 11.0837L80.2016 23.9473L80.5083 23.9539ZM80.7845 11.0903L80.4929 10.9948L76.2817 23.8585L76.5733 23.9539L76.8649 24.0494L81.076 11.1858L80.7845 11.0903ZM76.5733 23.9539V23.6471H72.8684V23.9539V24.2607H76.5733V23.9539ZM72.8684 23.9539L73.1595 23.8569L68.8332 10.8782L68.5422 10.9753L68.2511 11.0723L72.5773 24.0509L72.8684 23.9539ZM68.5422 10.9753L68.2355 10.984L68.6036 23.9626L68.9103 23.9539L69.2171 23.9452L68.8489 10.9665L68.5422 10.9753ZM68.9103 23.9539V23.6471H65.3435V23.9539V24.2607H68.9103V23.9539ZM65.3435 23.9539H65.6503V7.40842H65.3435H65.0367V23.9539H65.3435ZM65.3435 7.40842V7.71524H70.4521V7.40842V7.10159H65.3435V7.40842ZM70.4521 7.40842L70.1608 7.50465L74.349 20.1842L74.6403 20.0879L74.9316 19.9917L70.7435 7.31218L70.4521 7.40842ZM74.6403 20.0879L74.9315 20.1846L79.1426 7.50513L78.8515 7.40842L78.5603 7.31171L74.3491 19.9912L74.6403 20.0879ZM78.8515 7.40842V7.71524H83.9371V7.40842V7.10159H78.8515V7.40842ZM83.9371 7.40842H83.6302V23.9539H83.9371H84.2439V7.40842H83.9371ZM103.958 23.9539V24.2607H104.423L104.24 23.8334L103.958 23.9539ZM100.092 23.9539L99.8056 24.0638L99.8812 24.2607H100.092V23.9539ZM98.5733 19.9959L98.8598 19.886L98.7842 19.6891H98.5733V19.9959ZM91.3706 19.9959V19.6891H91.1551L91.082 19.8918L91.3706 19.9959ZM89.9439 23.9539V24.2607H90.1594L90.2325 24.058L89.9439 23.9539ZM86.262 23.9539L85.9791 23.8351L85.8003 24.2607H86.262V23.9539ZM93.2116 7.40842V7.10159H93.0076L92.9287 7.2896L93.2116 7.40842ZM96.8934 7.40842L97.1756 7.28793L97.0961 7.10159H96.8934V7.40842ZM97.4457 17.0734V17.3802H97.8974L97.731 16.9603L97.4457 17.0734ZM94.9374 10.7451L95.2227 10.6321L94.9334 9.90238L94.6511 10.6348L94.9374 10.7451ZM92.4982 17.0734L92.2119 16.963L92.0511 17.3802H92.4982V17.0734ZM103.958 23.9539V23.6471H100.092V23.9539V24.2607H103.958V23.9539ZM100.092 23.9539L100.379 23.844L98.8598 19.886L98.5733 19.9959L98.2868 20.1058L99.8056 24.0638L100.092 23.9539ZM98.5733 19.9959V19.6891H91.3706V19.9959V20.3027H98.5733V19.9959ZM91.3706 19.9959L91.082 19.8918L89.6552 23.8499L89.9439 23.9539L90.2325 24.058L91.6592 20.0999L91.3706 19.9959ZM89.9439 23.9539V23.6471H86.262V23.9539V24.2607H89.9439V23.9539ZM86.262 23.9539L86.5449 24.0727L93.4944 7.52724L93.2116 7.40842L92.9287 7.2896L85.9791 23.8351L86.262 23.9539ZM93.2116 7.40842V7.71524H96.8934V7.40842V7.10159H93.2116V7.40842ZM96.8934 7.40842L96.6113 7.5289L103.676 24.0744L103.958 23.9539L104.24 23.8334L97.1756 7.28793L96.8934 7.40842ZM97.4457 17.0734L97.731 16.9603L95.2227 10.6321L94.9374 10.7451L94.6522 10.8582L97.1605 17.1864L97.4457 17.0734ZM94.9374 10.7451L94.6511 10.6348L92.2119 16.963L92.4982 17.0734L92.7845 17.1837L95.2237 10.8555L94.9374 10.7451ZM92.4982 17.0734V17.3802H97.4457V17.0734V16.7666H92.4982V17.0734ZM121.37 23.9539V24.2607H121.906L121.635 23.7984L121.37 23.9539ZM117.481 23.9539L117.214 24.105L117.302 24.2607H117.481V23.9539ZM113.822 17.4876L114.089 17.3365L114.001 17.1808H113.822V17.4876ZM109.749 17.4876V17.1808H109.442V17.4876H109.749ZM109.749 23.9539V24.2607H110.056V23.9539H109.749ZM106.274 23.9539H105.968V24.2607H106.274V23.9539ZM106.274 7.40842V7.10159H105.968V7.40842H106.274ZM115.663 7.40842L115.717 7.10637L115.69 7.10159H115.663V7.40842ZM116.308 7.52348L116.254 7.82571L116.264 7.82722L116.308 7.52348ZM116.791 7.59251L116.747 7.89625L116.769 7.89934H116.791V7.59251ZM117.09 7.61552L116.993 7.9066L117.011 7.91264L117.03 7.91639L117.09 7.61552ZM117.642 7.75359L117.564 8.0504L117.571 8.05208L117.642 7.75359ZM119.897 9.52551L120.165 9.37485L120.165 9.37467L119.897 9.52551ZM119.805 15.3935L119.551 15.2222L119.548 15.2268L119.805 15.3935ZM117.297 17.0274L117.219 16.7306L116.827 16.8337L117.033 17.1829L117.297 17.0274ZM116.561 10.9292L116.763 10.6983L116.76 10.6963L116.561 10.9292ZM109.749 10.3769V10.0701H109.442V10.3769H109.749ZM109.749 14.5651H109.442V14.8719H109.749V14.5651ZM116.515 14.0128L116.719 14.2423L116.727 14.234L116.515 14.0128ZM121.37 23.9539V23.6471H117.481V23.9539V24.2607H121.37V23.9539ZM117.481 23.9539L117.748 23.8028L114.089 17.3365L113.822 17.4876L113.555 17.6387L117.214 24.105L117.481 23.9539ZM113.822 17.4876V17.1808H109.749V17.4876V17.7944H113.822V17.4876ZM109.749 17.4876H109.442V23.9539H109.749H110.056V17.4876H109.749ZM109.749 23.9539V23.6471H106.274V23.9539V24.2607H109.749V23.9539ZM106.274 23.9539H106.581V7.40842H106.274H105.968V23.9539H106.274ZM106.274 7.40842V7.71524H114.812V7.40842V7.10159H106.274V7.40842ZM114.812 7.40842V7.71524H115.663V7.40842V7.10159H114.812V7.40842ZM115.663 7.40842L115.609 7.71046L116.254 7.82552L116.308 7.52348L116.361 7.22143L115.717 7.10637L115.663 7.40842ZM116.308 7.52348L116.264 7.82722L116.747 7.89625L116.791 7.59251L116.834 7.28877L116.351 7.21974L116.308 7.52348ZM116.791 7.59251V7.89934C116.863 7.89934 116.918 7.90118 116.957 7.90419C116.977 7.90568 116.99 7.90728 116.997 7.90853C117.007 7.90997 117.003 7.9101 116.993 7.9066L117.09 7.61552L117.187 7.32444C117.126 7.30425 117.058 7.29652 117.004 7.29234C116.943 7.28768 116.872 7.28569 116.791 7.28569V7.59251ZM117.09 7.61552L117.03 7.91639C117.095 7.92953 117.27 7.9728 117.564 8.05032L117.642 7.75359L117.72 7.45687C117.432 7.38098 117.238 7.3322 117.15 7.31466L117.09 7.61552ZM117.642 7.75359L117.571 8.05208C118.446 8.26033 119.131 8.79133 119.63 9.67634L119.897 9.52551L120.165 9.37467C119.59 8.35737 118.772 7.7071 117.713 7.45511L117.642 7.75359ZM119.897 9.52551L119.63 9.67616C120.076 10.4666 120.304 11.4024 120.304 12.494H120.611H120.918C120.918 11.3151 120.67 10.272 120.165 9.37485L119.897 9.52551ZM120.611 12.494H120.304C120.304 13.5795 120.048 14.4837 119.551 15.2222L119.805 15.3935L120.06 15.5648C120.637 14.7079 120.918 13.6791 120.918 12.494H120.611ZM119.805 15.3935L119.548 15.2268C119.094 15.928 118.333 16.4374 117.219 16.7306L117.297 17.0274L117.375 17.3241C118.593 17.0037 119.504 16.4239 120.063 15.5602L119.805 15.3935ZM117.297 17.0274L117.033 17.1829L121.106 24.1094L121.37 23.9539L121.635 23.7984L117.562 16.8718L117.297 17.0274ZM117.113 12.448H117.42C117.42 11.7068 117.221 11.0996 116.763 10.6983L116.561 10.9292L116.359 11.1601C116.636 11.4032 116.806 11.8085 116.806 12.448H117.113ZM116.561 10.9292L116.76 10.6963C116.491 10.4658 116.116 10.3126 115.665 10.2151C115.21 10.1169 114.656 10.0701 114.006 10.0701V10.3769V10.6838C114.63 10.6838 115.138 10.729 115.535 10.8149C115.935 10.9015 116.2 11.0244 116.361 11.1622L116.561 10.9292ZM114.006 10.3769V10.0701H109.749V10.3769V10.6838H114.006V10.3769ZM109.749 10.3769H109.442V14.5651H109.749H110.056V10.3769H109.749ZM109.749 14.5651V14.8719H114.006V14.5651V14.2583H109.749V14.5651ZM114.006 14.5651V14.8719C114.648 14.8719 115.196 14.8251 115.643 14.7267C116.087 14.629 116.456 14.475 116.718 14.2421L116.515 14.0128L116.311 13.7835C116.159 13.9188 115.903 14.041 115.511 14.1274C115.122 14.213 114.622 14.2583 114.006 14.2583V14.5651ZM116.515 14.0128L116.727 14.234C117.198 13.7816 117.42 13.1738 117.42 12.448H117.113H116.806C116.806 13.0415 116.629 13.4769 116.302 13.7916L116.515 14.0128Z" fill="#364152" mask="url(#path-4-outside-1_4270_7688)"/>
<mask id="path-6-outside-2_4270_7688" maskUnits="userSpaceOnUse" x="44.8374" y="27.3633" width="44" height="14" fill="black">
<rect fill="white" x="44.8374" y="27.3633" width="44" height="14"/>
<path d="M56.2832 30.3731H52.3682V40.3633H49.7187V30.3731H45.8374V28.2637H56.2832V30.3731ZM69.4484 40.3633H66.5964L63.9133 35.6214H60.9263V40.3633H58.3782V28.23H64.6389H65.2633L65.7358 28.3144L66.0902 28.365C66.2027 28.365 66.2758 28.3706 66.3096 28.3819C66.3658 28.3931 66.5008 28.4269 66.7146 28.4831C67.4233 28.6519 67.9746 29.085 68.3683 29.7825C68.7171 30.4013 68.8915 31.1269 68.8915 31.9594C68.8915 32.7919 68.6946 33.5007 68.3008 34.0857C67.9296 34.6595 67.3165 35.0589 66.4614 35.2839L69.4484 40.3633ZM66.3264 31.9257C66.3264 31.4194 66.1914 31.0482 65.9214 30.8119C65.6064 30.5419 64.982 30.4069 64.0483 30.4069H60.9263V33.4782H64.0483C64.9708 33.4782 65.5839 33.3432 65.8877 33.0732C66.1802 32.7919 66.3264 32.4094 66.3264 31.9257ZM74.5447 40.3633H71.8784V28.23H74.5447V40.3633ZM87.8562 32.2969C87.8562 33.0732 87.6537 33.7988 87.2487 34.4739C86.8437 35.1601 86.253 35.6157 85.4768 35.8408L85.173 35.9083L84.6499 36.0433C84.4249 36.0883 84.228 36.1108 84.0592 36.1108C83.9692 36.122 83.8624 36.1276 83.7386 36.1276L79.621 36.1108V40.3633H77.0729V28.23H82.608C83.3392 28.23 83.9974 28.2637 84.5824 28.3312C85.1449 28.3987 85.6962 28.5787 86.2362 28.8712C86.7424 29.1525 87.1418 29.6081 87.4343 30.2381C87.7156 30.8457 87.8562 31.5319 87.8562 32.2969ZM85.0211 32.1619C85.0211 31.4982 84.7736 31.02 84.2786 30.7275C83.8961 30.5138 83.328 30.4069 82.5742 30.4069H79.621V33.9676H82.7092C83.373 33.9676 83.9074 33.8495 84.3124 33.6132C84.7849 33.3095 85.0211 32.8257 85.0211 32.1619Z"/>
</mask>
<path d="M56.2832 30.3731H52.3682V40.3633H49.7187V30.3731H45.8374V28.2637H56.2832V30.3731ZM69.4484 40.3633H66.5964L63.9133 35.6214H60.9263V40.3633H58.3782V28.23H64.6389H65.2633L65.7358 28.3144L66.0902 28.365C66.2027 28.365 66.2758 28.3706 66.3096 28.3819C66.3658 28.3931 66.5008 28.4269 66.7146 28.4831C67.4233 28.6519 67.9746 29.085 68.3683 29.7825C68.7171 30.4013 68.8915 31.1269 68.8915 31.9594C68.8915 32.7919 68.6946 33.5007 68.3008 34.0857C67.9296 34.6595 67.3165 35.0589 66.4614 35.2839L69.4484 40.3633ZM66.3264 31.9257C66.3264 31.4194 66.1914 31.0482 65.9214 30.8119C65.6064 30.5419 64.982 30.4069 64.0483 30.4069H60.9263V33.4782H64.0483C64.9708 33.4782 65.5839 33.3432 65.8877 33.0732C66.1802 32.7919 66.3264 32.4094 66.3264 31.9257ZM74.5447 40.3633H71.8784V28.23H74.5447V40.3633ZM87.8562 32.2969C87.8562 33.0732 87.6537 33.7988 87.2487 34.4739C86.8437 35.1601 86.253 35.6157 85.4768 35.8408L85.173 35.9083L84.6499 36.0433C84.4249 36.0883 84.228 36.1108 84.0592 36.1108C83.9692 36.122 83.8624 36.1276 83.7386 36.1276L79.621 36.1108V40.3633H77.0729V28.23H82.608C83.3392 28.23 83.9974 28.2637 84.5824 28.3312C85.1449 28.3987 85.6962 28.5787 86.2362 28.8712C86.7424 29.1525 87.1418 29.6081 87.4343 30.2381C87.7156 30.8457 87.8562 31.5319 87.8562 32.2969ZM85.0211 32.1619C85.0211 31.4982 84.7736 31.02 84.2786 30.7275C83.8961 30.5138 83.328 30.4069 82.5742 30.4069H79.621V33.9676H82.7092C83.373 33.9676 83.9074 33.8495 84.3124 33.6132C84.7849 33.3095 85.0211 32.8257 85.0211 32.1619Z" fill="#364152"/>
<path d="M56.2832 30.3731V30.68H56.5901V30.3731H56.2832ZM52.3682 30.3731V30.0663H52.0613V30.3731H52.3682ZM52.3682 40.3633V40.6702H52.675V40.3633H52.3682ZM49.7187 40.3633H49.4119V40.6702H49.7187V40.3633ZM49.7187 30.3731H50.0256V30.0663H49.7187V30.3731ZM45.8374 30.3731H45.5306V30.68H45.8374V30.3731ZM45.8374 28.2637V27.9569H45.5306V28.2637H45.8374ZM56.2832 28.2637H56.5901V27.9569H56.2832V28.2637ZM56.2832 30.3731V30.0663H52.3682V30.3731V30.68H56.2832V30.3731ZM52.3682 30.3731H52.0613V40.3633H52.3682H52.675V30.3731H52.3682ZM52.3682 40.3633V40.0565H49.7187V40.3633V40.6702H52.3682V40.3633ZM49.7187 40.3633H50.0256V30.3731H49.7187H49.4119V40.3633H49.7187ZM49.7187 30.3731V30.0663H45.8374V30.3731V30.68H49.7187V30.3731ZM45.8374 30.3731H46.1442V28.2637H45.8374H45.5306V30.3731H45.8374ZM45.8374 28.2637V28.5706H56.2832V28.2637V27.9569H45.8374V28.2637ZM56.2832 28.2637H55.9764V30.3731H56.2832H56.5901V28.2637H56.2832ZM69.4484 40.3633V40.6702H69.9847L69.7129 40.2078L69.4484 40.3633ZM66.5964 40.3633L66.3294 40.5144L66.4175 40.6702H66.5964V40.3633ZM63.9133 35.6214L64.1803 35.4703L64.0922 35.3145H63.9133V35.6214ZM60.9263 35.6214V35.3145H60.6195V35.6214H60.9263ZM60.9263 40.3633V40.6702H61.2332V40.3633H60.9263ZM58.3781 40.3633H58.0713V40.6702H58.3781V40.3633ZM58.3781 28.23V27.9232H58.0713V28.23H58.3781ZM65.2633 28.23L65.3172 27.9279L65.2905 27.9232H65.2633V28.23ZM65.7358 28.3144L65.6818 28.6166L65.6924 28.6181L65.7358 28.3144ZM66.0902 28.365L66.0468 28.6687L66.0684 28.6718H66.0902V28.365ZM66.3096 28.3819L66.2125 28.6729L66.2307 28.679L66.2494 28.6827L66.3096 28.3819ZM66.7146 28.4831L66.6365 28.7799L66.6435 28.7816L66.7146 28.4831ZM68.3683 29.7825L68.6356 29.6319L68.6355 29.6317L68.3683 29.7825ZM68.3008 34.0857L68.0463 33.9144L68.0432 33.919L68.3008 34.0857ZM66.4614 35.2839L66.3834 34.9871L65.9916 35.0902L66.197 35.4394L66.4614 35.2839ZM65.9214 30.8119L66.1235 30.581L66.1211 30.5789L65.9214 30.8119ZM60.9263 30.4069V30.1001H60.6195V30.4069H60.9263ZM60.9263 33.4782H60.6195V33.785H60.9263V33.4782ZM65.8877 33.0732L66.0917 33.3027L66.1003 33.2944L65.8877 33.0732ZM69.4484 40.3633V40.0565H66.5964V40.3633V40.6702H69.4484V40.3633ZM66.5964 40.3633L66.8635 40.2122L64.1803 35.4703L63.9133 35.6214L63.6462 35.7725L66.3294 40.5144L66.5964 40.3633ZM63.9133 35.6214V35.3145H60.9263V35.6214V35.9282H63.9133V35.6214ZM60.9263 35.6214H60.6195V40.3633H60.9263H61.2332V35.6214H60.9263ZM60.9263 40.3633V40.0565H58.3781V40.3633V40.6702H60.9263V40.3633ZM58.3781 40.3633H58.685V28.23H58.3781H58.0713V40.3633H58.3781ZM58.3781 28.23V28.5368H64.6389V28.23V27.9232H58.3781V28.23ZM64.6389 28.23V28.5368H65.2633V28.23V27.9232H64.6389V28.23ZM65.2633 28.23L65.2094 28.532L65.6819 28.6164L65.7358 28.3144L65.7897 28.0123L65.3172 27.9279L65.2633 28.23ZM65.7358 28.3144L65.6924 28.6181L66.0468 28.6687L66.0902 28.365L66.1336 28.0612L65.7792 28.0106L65.7358 28.3144ZM66.0902 28.365V28.6718C66.1422 28.6718 66.1801 28.6731 66.2059 28.6751C66.2187 28.6761 66.226 28.6771 66.229 28.6775C66.2333 28.6782 66.2261 28.6775 66.2125 28.6729L66.3096 28.3819L66.4066 28.0908C66.3521 28.0726 66.2939 28.0664 66.2529 28.0633C66.2056 28.0596 66.1506 28.0582 66.0902 28.0582V28.365ZM66.3096 28.3819L66.2494 28.6827C66.2946 28.6918 66.4196 28.7228 66.6365 28.7798L66.7146 28.4831L66.7927 28.1864C66.582 28.1309 66.437 28.0944 66.3697 28.081L66.3096 28.3819ZM66.7146 28.4831L66.6435 28.7816C67.2604 28.9285 67.7447 29.302 68.1012 29.9333L68.3683 29.7825L68.6355 29.6317C68.2044 28.868 67.5862 28.3752 66.7856 28.1846L66.7146 28.4831ZM68.3683 29.7825L68.1011 29.9332C68.4198 30.4986 68.5847 31.1706 68.5847 31.9594H68.8915H69.1983C69.1983 31.0833 69.0145 30.304 68.6356 29.6319L68.3683 29.7825ZM68.8915 31.9594H68.5847C68.5847 32.7422 68.4002 33.3886 68.0463 33.9144L68.3008 34.0857L68.5554 34.257C68.989 33.6128 69.1983 32.8417 69.1983 31.9594H68.8915ZM68.3008 34.0857L68.0432 33.919C67.7246 34.4115 67.1868 34.7757 66.3834 34.9871L66.4614 35.2839L66.5395 35.5806C67.4461 35.342 68.1346 34.9074 68.5584 34.2524L68.3008 34.0857ZM66.4614 35.2839L66.197 35.4394L69.1839 40.5189L69.4484 40.3633L69.7129 40.2078L66.7259 35.1283L66.4614 35.2839ZM66.3264 31.9257H66.6333C66.6333 31.3685 66.4839 30.8964 66.1235 30.581L65.9214 30.8119L65.7194 31.0428C65.8989 31.1999 66.0196 31.4703 66.0196 31.9257H66.3264ZM65.9214 30.8119L66.1211 30.5789C65.9095 30.3976 65.6192 30.2812 65.2817 30.2083C64.9409 30.1346 64.5279 30.1001 64.0483 30.1001V30.4069V30.7137C64.5024 30.7137 64.8685 30.7467 65.152 30.808C65.4389 30.8701 65.6183 30.9562 65.7217 31.0449L65.9214 30.8119ZM64.0483 30.4069V30.1001H60.9263V30.4069V30.7137H64.0483V30.4069ZM60.9263 30.4069H60.6195V33.4782H60.9263H61.2332V30.4069H60.9263ZM60.9263 33.4782V33.785H64.0483V33.4782V33.1714H60.9263V33.4782ZM64.0483 33.4782V33.785C64.5224 33.785 64.9302 33.7505 65.266 33.6766C65.5983 33.6034 65.8847 33.4863 66.0915 33.3025L65.8877 33.0732L65.6838 32.8439C65.5869 32.9301 65.4148 33.0155 65.134 33.0773C64.8566 33.1384 64.4967 33.1714 64.0483 33.1714V33.4782ZM65.8877 33.0732L66.1003 33.2944C66.4644 32.9443 66.6333 32.4756 66.6333 31.9257H66.3264H66.0196C66.0196 32.3433 65.8959 32.6396 65.675 32.852L65.8877 33.0732ZM74.5447 40.3633V40.6702H74.8515V40.3633H74.5447ZM71.8784 40.3633H71.5716V40.6702H71.8784V40.3633ZM71.8784 28.23V27.9232H71.5716V28.23H71.8784ZM74.5447 28.23H74.8515V27.9232H74.5447V28.23ZM74.5447 40.3633V40.0565H71.8784V40.3633V40.6702H74.5447V40.3633ZM71.8784 40.3633H72.1852V28.23H71.8784H71.5716V40.3633H71.8784ZM71.8784 28.23V28.5368H74.5447V28.23V27.9232H71.8784V28.23ZM74.5447 28.23H74.2379V40.3633H74.5447H74.8515V28.23H74.5447ZM87.2487 34.4739L86.9856 34.316L86.9844 34.3179L87.2487 34.4739ZM85.4768 35.8408L85.5433 36.1403L85.5528 36.1382L85.5622 36.1354L85.4768 35.8408ZM85.173 35.9083L85.1064 35.6086L85.0963 35.6112L85.173 35.9083ZM84.6499 36.0433L84.7101 36.3441L84.7184 36.3425L84.7266 36.3403L84.6499 36.0433ZM84.0592 36.1108V35.8039H84.0401L84.0212 35.8063L84.0592 36.1108ZM83.7386 36.1276L83.7374 36.4345H83.7386V36.1276ZM79.621 36.1108L79.6223 35.8039L79.3142 35.8027V36.1108H79.621ZM79.621 40.3633V40.6702H79.9279V40.3633H79.621ZM77.0729 40.3633H76.766V40.6702H77.0729V40.3633ZM77.0729 28.23V27.9232H76.766V28.23H77.0729ZM84.5824 28.3312L84.6189 28.0266L84.6175 28.0264L84.5824 28.3312ZM86.2362 28.8712L86.3852 28.603L86.3823 28.6014L86.2362 28.8712ZM87.4343 30.2381L87.7127 30.1092L87.7126 30.1089L87.4343 30.2381ZM84.2786 30.7275L84.4348 30.4633L84.4283 30.4597L84.2786 30.7275ZM79.621 30.4069V30.1001H79.3142V30.4069H79.621ZM79.621 33.9676H79.3142V34.2744H79.621V33.9676ZM84.3124 33.6132L84.4671 33.8785L84.4783 33.8713L84.3124 33.6132ZM87.8562 32.2969H87.5494C87.5494 33.0168 87.3624 33.688 86.9856 34.316L87.2487 34.4739L87.5118 34.6317C87.945 33.9097 88.163 33.1296 88.163 32.2969H87.8562ZM87.2487 34.4739L86.9844 34.3179C86.6198 34.9358 86.0937 35.3425 85.3914 35.5461L85.4768 35.8408L85.5622 36.1354C86.4124 35.889 87.0675 35.3845 87.5129 34.6298L87.2487 34.4739ZM85.4768 35.8408L85.4102 35.5412L85.1065 35.6087L85.173 35.9083L85.2396 36.2078L85.5433 36.1403L85.4768 35.8408ZM85.173 35.9083L85.0963 35.6112L84.5732 35.7462L84.6499 36.0433L84.7266 36.3403L85.2497 36.2053L85.173 35.9083ZM84.6499 36.0433L84.5897 35.7424C84.378 35.7847 84.2021 35.8039 84.0592 35.8039V36.1108V36.4176C84.2539 36.4176 84.4718 36.3918 84.7101 36.3441L84.6499 36.0433ZM84.0592 36.1108L84.0212 35.8063C83.9474 35.8155 83.8539 35.8208 83.7386 35.8208V36.1276V36.4345C83.8709 36.4345 83.9911 36.4285 84.0973 36.4152L84.0592 36.1108ZM83.7386 36.1276L83.7399 35.8208L79.6223 35.8039L79.621 36.1108L79.6198 36.4176L83.7374 36.4345L83.7386 36.1276ZM79.621 36.1108H79.3142V40.3633H79.621H79.9279V36.1108H79.621ZM79.621 40.3633V40.0565H77.0729V40.3633V40.6702H79.621V40.3633ZM77.0729 40.3633H77.3797V28.23H77.0729H76.766V40.3633H77.0729ZM77.0729 28.23V28.5368H82.608V28.23V27.9232H77.0729V28.23ZM82.608 28.23V28.5368C83.3302 28.5368 83.9763 28.5702 84.5472 28.636L84.5824 28.3312L84.6175 28.0264C84.0185 27.9573 83.3483 27.9232 82.608 27.9232V28.23ZM84.5824 28.3312L84.5458 28.6359C85.0668 28.6984 85.5812 28.8654 86.09 29.141L86.2362 28.8712L86.3823 28.6014C85.8112 28.2921 85.223 28.0991 84.6189 28.0266L84.5824 28.3312ZM86.2362 28.8712L86.0872 29.1395C86.5261 29.3833 86.8853 29.7841 87.156 30.3673L87.4343 30.2381L87.7126 30.1089C87.3984 29.4321 86.9587 28.9217 86.3852 28.603L86.2362 28.8712ZM87.4343 30.2381L87.1559 30.367C87.4159 30.9288 87.5494 31.5701 87.5494 32.2969H87.8562H88.163C88.163 31.4937 88.0152 30.7625 87.7127 30.1092L87.4343 30.2381ZM85.0211 32.1619H85.328C85.328 31.4096 85.0391 30.8205 84.4347 30.4634L84.2786 30.7275L84.1225 30.9917C84.5081 31.2195 84.7143 31.5867 84.7143 32.1619H85.0211ZM84.2786 30.7275L84.4283 30.4597C83.978 30.2081 83.3475 30.1001 82.5742 30.1001V30.4069V30.7137C83.3085 30.7137 83.8142 30.8195 84.129 30.9954L84.2786 30.7275ZM82.5742 30.4069V30.1001H79.621V30.4069V30.7137H82.5742V30.4069ZM79.621 30.4069H79.3142V33.9676H79.621H79.9279V30.4069H79.621ZM79.621 33.9676V34.2744H82.7092V33.9676V33.6608H79.621V33.9676ZM82.7092 33.9676V34.2744C83.4059 34.2744 83.9995 34.1509 84.467 33.8782L84.3124 33.6132L84.1578 33.3482C83.8152 33.548 83.34 33.6608 82.7092 33.6608V33.9676ZM84.3124 33.6132L84.4783 33.8713C85.0557 33.5001 85.328 32.908 85.328 32.1619H85.0211H84.7143C84.7143 32.7433 84.5141 33.1188 84.1465 33.3551L84.3124 33.6132Z" fill="#364152" mask="url(#path-6-outside-2_4270_7688)"/>
<rect x="90.3276" y="26.9413" width="31.8681" height="13.7193" rx="1.94726" fill="#364152"/>
<mask id="path-9-outside-3_4270_7688" maskUnits="userSpaceOnUse" x="92.7617" y="29.301" width="26" height="9" fill="black">
<rect fill="white" x="92.7617" y="29.301" width="26" height="9"/>
<path d="M93.4071 35.7984H94.9349V37.301H93.4071V35.7984ZM101.46 36.7464C100.905 37.2539 100.196 37.5077 99.3319 37.5077C98.2629 37.5077 97.4226 37.1649 96.8108 36.4791C96.199 35.79 95.8931 34.8455 95.8931 33.6454C95.8931 32.3479 96.241 31.3479 96.9368 30.6453C97.5419 30.0336 98.3117 29.7277 99.2461 29.7277C100.497 29.7277 101.411 30.1378 101.989 30.9579C102.308 31.4185 102.48 31.8807 102.503 32.3445H100.95C100.85 31.9882 100.72 31.7193 100.562 31.5378C100.28 31.2151 99.8613 31.0537 99.3067 31.0537C98.7419 31.0537 98.2965 31.2823 97.9705 31.7395C97.6444 32.1933 97.4814 32.837 97.4814 33.6706C97.4814 34.5043 97.6528 35.1295 97.9957 35.5463C98.3419 35.9598 98.7806 36.1665 99.3117 36.1665C99.8563 36.1665 100.271 35.9884 100.557 35.632C100.715 35.4404 100.846 35.153 100.95 34.7698H102.488C102.354 35.5799 102.011 36.2388 101.46 36.7464ZM106.759 37.5077C105.697 37.5077 104.885 37.2186 104.324 36.6405C103.571 35.9312 103.194 34.9093 103.194 33.5748C103.194 32.2134 103.571 31.1916 104.324 30.5092C104.885 29.931 105.697 29.6419 106.759 29.6419C107.821 29.6419 108.633 29.931 109.195 30.5092C109.944 31.1916 110.319 32.2134 110.319 33.5748C110.319 34.9093 109.944 35.9312 109.195 36.6405C108.633 37.2186 107.821 37.5077 106.759 37.5077ZM108.226 35.511C108.586 35.0572 108.766 34.4118 108.766 33.5748C108.766 32.7412 108.584 32.0975 108.221 31.6437C107.862 31.1865 107.374 30.9579 106.759 30.9579C106.144 30.9579 105.653 31.1848 105.287 31.6386C104.92 32.0924 104.737 32.7378 104.737 33.5748C104.737 34.4118 104.92 35.0572 105.287 35.511C105.653 35.9648 106.144 36.1917 106.759 36.1917C107.374 36.1917 107.863 35.9648 108.226 35.511ZM112.724 37.301H111.277V29.8688H113.536L114.887 35.7127L116.229 29.8688H118.462V37.301H117.015V32.274C117.015 32.1294 117.017 31.9277 117.02 31.6689C117.024 31.4067 117.025 31.205 117.025 31.0638L115.618 37.301H114.111L112.714 31.0638C112.714 31.205 112.716 31.4067 112.719 31.6689C112.723 31.9277 112.724 32.1294 112.724 32.274V37.301Z"/>
</mask>
<path d="M93.4071 35.7984H94.9349V37.301H93.4071V35.7984ZM101.46 36.7464C100.905 37.2539 100.196 37.5077 99.3319 37.5077C98.2629 37.5077 97.4226 37.1649 96.8108 36.4791C96.199 35.79 95.8931 34.8455 95.8931 33.6454C95.8931 32.3479 96.241 31.3479 96.9368 30.6453C97.5419 30.0336 98.3117 29.7277 99.2461 29.7277C100.497 29.7277 101.411 30.1378 101.989 30.9579C102.308 31.4185 102.48 31.8807 102.503 32.3445H100.95C100.85 31.9882 100.72 31.7193 100.562 31.5378C100.28 31.2151 99.8613 31.0537 99.3067 31.0537C98.7419 31.0537 98.2965 31.2823 97.9705 31.7395C97.6444 32.1933 97.4814 32.837 97.4814 33.6706C97.4814 34.5043 97.6528 35.1295 97.9957 35.5463C98.3419 35.9598 98.7806 36.1665 99.3117 36.1665C99.8563 36.1665 100.271 35.9884 100.557 35.632C100.715 35.4404 100.846 35.153 100.95 34.7698H102.488C102.354 35.5799 102.011 36.2388 101.46 36.7464ZM106.759 37.5077C105.697 37.5077 104.885 37.2186 104.324 36.6405C103.571 35.9312 103.194 34.9093 103.194 33.5748C103.194 32.2134 103.571 31.1916 104.324 30.5092C104.885 29.931 105.697 29.6419 106.759 29.6419C107.821 29.6419 108.633 29.931 109.195 30.5092C109.944 31.1916 110.319 32.2134 110.319 33.5748C110.319 34.9093 109.944 35.9312 109.195 36.6405C108.633 37.2186 107.821 37.5077 106.759 37.5077ZM108.226 35.511C108.586 35.0572 108.766 34.4118 108.766 33.5748C108.766 32.7412 108.584 32.0975 108.221 31.6437C107.862 31.1865 107.374 30.9579 106.759 30.9579C106.144 30.9579 105.653 31.1848 105.287 31.6386C104.92 32.0924 104.737 32.7378 104.737 33.5748C104.737 34.4118 104.92 35.0572 105.287 35.511C105.653 35.9648 106.144 36.1917 106.759 36.1917C107.374 36.1917 107.863 35.9648 108.226 35.511ZM112.724 37.301H111.277V29.8688H113.536L114.887 35.7127L116.229 29.8688H118.462V37.301H117.015V32.274C117.015 32.1294 117.017 31.9277 117.02 31.6689C117.024 31.4067 117.025 31.205 117.025 31.0638L115.618 37.301H114.111L112.714 31.0638C112.714 31.205 112.716 31.4067 112.719 31.6689C112.723 31.9277 112.724 32.1294 112.724 32.274V37.301Z" fill="white"/>
<path d="M93.4071 35.7984V35.6509H93.2596V35.7984H93.4071ZM94.9349 35.7984H95.0824V35.6509H94.9349V35.7984ZM94.9349 37.301V37.4485H95.0824V37.301H94.9349ZM93.4071 37.301H93.2596V37.4485H93.4071V37.301ZM93.4071 35.7984V35.9459H94.9349V35.7984V35.6509H93.4071V35.7984ZM94.9349 35.7984H94.7874V37.301H94.9349H95.0824V35.7984H94.9349ZM94.9349 37.301V37.1535H93.4071V37.301V37.4485H94.9349V37.301ZM93.4071 37.301H93.5546V35.7984H93.4071H93.2596V37.301H93.4071ZM101.46 36.7464L101.559 36.8552L101.56 36.8549L101.46 36.7464ZM96.8108 36.4791L96.7005 36.5771L96.7007 36.5773L96.8108 36.4791ZM96.9368 30.6453L97.0416 30.7491L97.0417 30.7491L96.9368 30.6453ZM101.989 30.9579L102.11 30.8739L102.11 30.873L101.989 30.9579ZM102.503 32.3445V32.4921H102.659L102.651 32.3371L102.503 32.3445ZM100.95 32.3445L100.808 32.3847L100.839 32.4921H100.95V32.3445ZM100.562 31.5378L100.673 31.4409L100.673 31.4407L100.562 31.5378ZM97.9705 31.7395L98.0903 31.8256L98.0906 31.8251L97.9705 31.7395ZM97.9957 35.5463L97.8818 35.64L97.8826 35.641L97.9957 35.5463ZM100.557 35.632L100.443 35.5382L100.442 35.5398L100.557 35.632ZM100.95 34.7698V34.6223H100.838L100.808 34.7311L100.95 34.7698ZM102.488 34.7698L102.634 34.794L102.662 34.6223H102.488V34.7698ZM101.46 36.7464L101.36 36.6375C100.837 37.1165 100.165 37.3602 99.3319 37.3602V37.5077V37.6552C100.227 37.6552 100.973 37.3914 101.559 36.8552L101.46 36.7464ZM99.3319 37.5077V37.3602C98.2974 37.3602 97.5 37.03 96.9209 36.3809L96.8108 36.4791L96.7007 36.5773C97.3451 37.2997 98.2284 37.6552 99.3319 37.6552V37.5077ZM96.8108 36.4791L96.9211 36.3812C96.3398 35.7264 96.0406 34.8205 96.0406 33.6454H95.8931H95.7456C95.7456 34.8704 96.0582 35.8536 96.7005 36.5771L96.8108 36.4791ZM95.8931 33.6454H96.0406C96.0406 32.3742 96.3809 31.4162 97.0416 30.7491L96.9368 30.6453L96.832 30.5415C96.1011 31.2795 95.7456 32.3216 95.7456 33.6454H95.8931ZM96.9368 30.6453L97.0417 30.7491C97.6165 30.1679 98.3473 29.8752 99.2461 29.8752V29.7277V29.5801C98.276 29.5801 97.4672 29.8992 96.8319 30.5416L96.9368 30.6453ZM99.2461 29.7277V29.8752C100.462 29.8752 101.325 30.2717 101.869 31.0429L101.989 30.9579L102.11 30.873C101.497 30.0038 100.531 29.5801 99.2461 29.5801V29.7277ZM101.989 30.9579L101.868 31.042C102.175 31.4846 102.334 31.9208 102.356 32.352L102.503 32.3445L102.651 32.3371C102.626 31.8405 102.442 31.3523 102.11 30.8739L101.989 30.9579ZM102.503 32.3445V32.197H100.95V32.3445V32.4921H102.503V32.3445ZM100.95 32.3445L101.092 32.3044C100.988 31.9373 100.851 31.6453 100.673 31.4409L100.562 31.5378L100.451 31.6346C100.589 31.7933 100.711 32.0391 100.808 32.3847L100.95 32.3445ZM100.562 31.5378L100.673 31.4407C100.355 31.0771 99.8905 30.9062 99.3067 30.9062V31.0537V31.2013C99.8321 31.2013 100.205 31.3531 100.451 31.6349L100.562 31.5378ZM99.3067 31.0537V30.9062C98.6946 30.9062 98.2043 31.1576 97.8504 31.6538L97.9705 31.7395L98.0906 31.8251C98.3888 31.4071 98.7893 31.2013 99.3067 31.2013V31.0537ZM97.9705 31.7395L97.8507 31.6534C97.4997 32.1419 97.3339 32.8205 97.3339 33.6706H97.4814H97.6289C97.6289 32.8535 97.7891 32.2447 98.0903 31.8256L97.9705 31.7395ZM97.4814 33.6706H97.3339C97.3339 34.5208 97.5081 35.1858 97.8818 35.64L97.9957 35.5463L98.1096 35.4526C97.7975 35.0732 97.6289 34.4878 97.6289 33.6706H97.4814ZM97.9957 35.5463L97.8826 35.641C98.2563 36.0874 98.7362 36.314 99.3117 36.314V36.1665V36.019C98.825 36.019 98.4275 35.8322 98.1088 35.4516L97.9957 35.5463ZM99.3117 36.1665V36.314C99.8914 36.314 100.353 36.1224 100.672 35.7243L100.557 35.632L100.442 35.5398C100.19 35.8543 99.8211 36.019 99.3117 36.019V36.1665ZM100.557 35.632L100.671 35.7259C100.848 35.5113 100.986 35.2012 101.093 34.8085L100.95 34.7698L100.808 34.7311C100.706 35.1049 100.582 35.3695 100.443 35.5382L100.557 35.632ZM100.95 34.7698V34.9173H102.488V34.7698V34.6223H100.95V34.7698ZM102.488 34.7698L102.343 34.7457C102.213 35.5267 101.884 36.1547 101.36 36.6378L101.46 36.7464L101.56 36.8549C102.137 36.3229 102.495 35.6332 102.634 34.794L102.488 34.7698ZM104.324 36.6405L104.43 36.5376L104.425 36.5331L104.324 36.6405ZM104.324 30.5092L104.423 30.6187L104.43 30.612L104.324 30.5092ZM109.195 30.5092L109.089 30.6122L109.095 30.6183L109.195 30.5092ZM109.195 36.6405L109.093 36.5332L109.089 36.5377L109.195 36.6405ZM108.226 35.511L108.342 35.6032L108.342 35.6027L108.226 35.511ZM108.221 31.6437L108.105 31.7349L108.106 31.7358L108.221 31.6437ZM106.759 37.5077V37.3602C105.724 37.3602 104.955 37.079 104.43 36.5377L104.324 36.6405L104.218 36.7432C104.815 37.3583 105.67 37.6552 106.759 37.6552V37.5077ZM104.324 36.6405L104.425 36.5331C103.71 35.8592 103.342 34.8811 103.342 33.5748H103.194H103.047C103.047 34.9375 103.432 36.0032 104.223 36.7479L104.324 36.6405ZM103.194 33.5748H103.342C103.342 32.2403 103.71 31.2643 104.423 30.6185L104.324 30.5092L104.225 30.3999C103.431 31.1188 103.047 32.1866 103.047 33.5748H103.194ZM104.324 30.5092L104.43 30.612C104.955 30.0707 105.724 29.7895 106.759 29.7895V29.6419V29.4944C105.67 29.4944 104.815 29.7914 104.218 30.4064L104.324 30.5092ZM106.759 29.6419V29.7895C107.795 29.7895 108.563 30.0707 109.089 30.612L109.195 30.5092L109.3 30.4064C108.703 29.7914 107.848 29.4944 106.759 29.4944V29.6419ZM109.195 30.5092L109.095 30.6183C109.805 31.264 110.171 32.2401 110.171 33.5748H110.319H110.466C110.466 32.1868 110.084 31.1191 109.294 30.4001L109.195 30.5092ZM110.319 33.5748H110.171C110.171 34.8813 109.805 35.8595 109.093 36.5333L109.195 36.6405L109.296 36.7476C110.083 36.0029 110.466 34.9373 110.466 33.5748H110.319ZM109.195 36.6405L109.089 36.5377C108.563 37.079 107.795 37.3602 106.759 37.3602V37.5077V37.6552C107.848 37.6552 108.703 37.3583 109.3 36.7432L109.195 36.6405ZM108.226 35.511L108.342 35.6027C108.73 35.1134 108.913 34.4307 108.913 33.5748H108.766H108.618C108.618 34.393 108.442 35.0011 108.111 35.4194L108.226 35.511ZM108.766 33.5748H108.913C108.913 32.7219 108.728 32.0407 108.337 31.5515L108.221 31.6437L108.106 31.7358C108.441 32.1542 108.618 32.7605 108.618 33.5748H108.766ZM108.221 31.6437L108.337 31.5525C107.948 31.0575 107.417 30.8104 106.759 30.8104V30.9579V31.1055C107.332 31.1055 107.776 31.3156 108.105 31.7349L108.221 31.6437ZM106.759 30.9579V30.8104C106.102 30.8104 105.568 31.0554 105.172 31.546L105.287 31.6386L105.402 31.7313C105.738 31.3143 106.186 31.1055 106.759 31.1055V30.9579ZM105.287 31.6386L105.172 31.546C104.777 32.0353 104.59 32.7184 104.59 33.5748H104.737H104.885C104.885 32.7572 105.064 32.1496 105.402 31.7313L105.287 31.6386ZM104.737 33.5748H104.59C104.59 34.4312 104.777 35.1143 105.172 35.6037L105.287 35.511L105.402 35.4184C105.064 35.0001 104.885 34.3924 104.885 33.5748H104.737ZM105.287 35.511L105.172 35.6037C105.568 36.0943 106.102 36.3392 106.759 36.3392V36.1917V36.0442C106.186 36.0442 105.738 35.8353 105.402 35.4184L105.287 35.511ZM106.759 36.1917V36.3392C107.416 36.3392 107.949 36.0943 108.342 35.6032L108.226 35.511L108.111 35.4189C107.778 35.8354 107.333 36.0442 106.759 36.0442V36.1917ZM112.724 37.301V37.4485H112.872V37.301H112.724ZM111.277 37.301H111.13V37.4485H111.277V37.301ZM111.277 29.8688V29.7213H111.13V29.8688H111.277ZM113.536 29.8688L113.68 29.8356L113.653 29.7213H113.536V29.8688ZM114.887 35.7127L114.744 35.7459L115.031 35.7457L114.887 35.7127ZM116.229 29.8688V29.7213H116.111L116.085 29.8358L116.229 29.8688ZM118.462 29.8688H118.61V29.7213H118.462V29.8688ZM118.462 37.301V37.4485H118.61V37.301H118.462ZM117.015 37.301H116.868V37.4485H117.015V37.301ZM117.02 31.6689L117.168 31.6708V31.6708L117.02 31.6689ZM117.025 31.0638H117.173L116.881 31.0314L117.025 31.0638ZM115.618 37.301V37.4485H115.736L115.762 37.3335L115.618 37.301ZM114.111 37.301L113.967 37.3332L113.993 37.4485H114.111V37.301ZM112.714 31.0638L112.858 31.0316L112.567 31.0638H112.714ZM112.719 31.6689L112.572 31.6708V31.6708L112.719 31.6689ZM112.724 37.301V37.1535H111.277V37.301V37.4485H112.724V37.301ZM111.277 37.301H111.425V29.8688H111.277H111.13V37.301H111.277ZM111.277 29.8688V30.0164H113.536V29.8688V29.7213H111.277V29.8688ZM113.536 29.8688L113.392 29.9021L114.744 35.7459L114.887 35.7127L115.031 35.6795L113.68 29.8356L113.536 29.8688ZM114.887 35.7127L115.031 35.7457L116.372 29.9018L116.229 29.8688L116.085 29.8358L114.744 35.6797L114.887 35.7127ZM116.229 29.8688V30.0164H118.462V29.8688V29.7213H116.229V29.8688ZM118.462 29.8688H118.315V37.301H118.462H118.61V29.8688H118.462ZM118.462 37.301V37.1535H117.015V37.301V37.4485H118.462V37.301ZM117.015 37.301H117.163V32.274H117.015H116.868V37.301H117.015ZM117.015 32.274H117.163C117.163 32.1304 117.164 31.9294 117.168 31.6708L117.02 31.6689L116.873 31.667C116.869 31.926 116.868 32.1285 116.868 32.274H117.015ZM117.02 31.6689L117.168 31.6708C117.171 31.4084 117.173 31.206 117.173 31.0638H117.025H116.878C116.878 31.2041 116.876 31.405 116.873 31.667L117.02 31.6689ZM117.025 31.0638L116.881 31.0314L115.475 37.2685L115.618 37.301L115.762 37.3335L117.169 31.0963L117.025 31.0638ZM115.618 37.301V37.1535H114.111V37.301V37.4485H115.618V37.301ZM114.111 37.301L114.255 37.2688L112.858 31.0316L112.714 31.0638L112.57 31.0961L113.967 37.3332L114.111 37.301ZM112.714 31.0638H112.567C112.567 31.206 112.568 31.4084 112.572 31.6708L112.719 31.6689L112.867 31.667C112.863 31.405 112.862 31.2041 112.862 31.0638H112.714ZM112.719 31.6689L112.572 31.6708C112.575 31.9294 112.577 32.1304 112.577 32.274H112.724H112.872C112.872 32.1285 112.87 31.926 112.867 31.667L112.719 31.6689ZM112.724 32.274H112.577V37.301H112.724H112.872V32.274H112.724Z" fill="white" mask="url(#path-9-outside-3_4270_7688)"/>
</svg>
