<svg width="189" height="48" viewBox="0 0 189 48" fill="none" xmlns="http://www.w3.org/2000/svg">
<rect x="0.373047" width="187.909" height="48" rx="5.81818" fill="white"/>
<rect x="6.19141" y="5.81818" width="36.3636" height="36.3636" rx="6.86106" fill="#FAC515"/>
<path d="M17.5863 24.6822H20.4954M14.6772 20.7428L16.6166 21.7277L17.8488 17.9735C18.1031 17.1986 18.2303 16.8112 18.4661 16.5247C18.6744 16.2718 18.9419 16.076 19.244 15.9553C19.5862 15.8186 19.9883 15.8186 20.7926 15.8186H27.9559C28.7601 15.8186 29.1622 15.8186 29.5044 15.9553C29.8065 16.076 30.074 16.2718 30.2823 16.5247C30.5182 16.8112 30.6453 17.1986 30.8997 17.9735L32.1318 21.7277L34.0712 20.7428M28.253 24.6822H31.1621M19.3318 21.7277H29.4166C31.0459 21.7277 31.8605 21.7277 32.4828 22.0497C33.0302 22.333 33.4752 22.785 33.7541 23.3409C34.0712 23.9729 34.0712 24.8003 34.0712 26.455V29.1141C34.0712 29.5717 34.0712 29.8005 34.0339 29.9908C33.8809 30.7721 33.2795 31.3829 32.5101 31.5383C32.3228 31.5762 32.0975 31.5762 31.6469 31.5762H31.1621C30.091 31.5762 29.2227 30.6943 29.2227 29.6065C29.2227 29.3345 29.0056 29.1141 28.7379 29.1141H20.0106C19.7428 29.1141 19.5257 29.3345 19.5257 29.6065C19.5257 30.6943 18.6574 31.5762 17.5863 31.5762H17.1015C16.6509 31.5762 16.4256 31.5762 16.2383 31.5383C15.4689 31.3829 14.8675 30.7721 14.7145 29.9908C14.6772 29.8005 14.6772 29.5717 14.6772 29.1141V26.455C14.6772 24.8003 14.6772 23.9729 14.9943 23.3409C15.2732 22.785 15.7183 22.333 16.2656 22.0497C16.8879 21.7277 17.7025 21.7277 19.3318 21.7277Z" stroke="#364152" stroke-width="1.81818" stroke-linecap="round" stroke-linejoin="round"/>
<mask id="path-4-outside-1_4270_7698" maskUnits="userSpaceOnUse" x="47.373" y="7.83807" width="74" height="17" fill="black">
<rect fill="white" x="47.373" y="7.83807" width="74" height="17"/>
<path d="M64.6494 23.8381H60.984L59.544 20.0853H52.7149L51.3621 23.8381H47.8712L54.4603 8.1508H57.9512L64.6494 23.8381ZM58.4749 17.3144L56.0967 11.3144L53.784 17.3144H58.4749ZM84.4965 23.8381H81.2455L81.5074 11.6417L77.5146 23.8381H74.0019L69.9001 11.5326L70.2492 23.8381H66.8674V8.1508H71.711L75.6819 20.1726L79.6746 8.1508H84.4965V23.8381ZM103.479 23.8381H99.8135L98.3735 20.0853H91.5444L90.1917 23.8381H86.7008L93.2899 8.1508H96.7808L103.479 23.8381ZM97.3044 17.3144L94.9262 11.3144L92.6135 17.3144H97.3044ZM119.988 23.8381H116.301L112.831 17.7072H108.97V23.8381H105.675V8.1508H113.77H114.577L115.188 8.25989L115.646 8.32535C115.791 8.32535 115.886 8.33262 115.93 8.34716C116.002 8.36171 116.177 8.40535 116.453 8.47807C117.37 8.69625 118.082 9.25626 118.591 10.1581C119.042 10.9581 119.268 11.8963 119.268 12.9726C119.268 14.049 119.013 14.9653 118.504 15.7217C118.024 16.4635 117.231 16.9799 116.126 17.2708L119.988 23.8381ZM115.951 12.929C115.951 12.2744 115.777 11.7944 115.428 11.489C115.021 11.1399 114.213 10.9653 113.006 10.9653H108.97V14.9363H113.006C114.199 14.9363 114.991 14.7617 115.384 14.4126C115.762 14.049 115.951 13.5544 115.951 12.929Z"/>
</mask>
<path d="M64.6494 23.8381H60.984L59.544 20.0853H52.7149L51.3621 23.8381H47.8712L54.4603 8.1508H57.9512L64.6494 23.8381ZM58.4749 17.3144L56.0967 11.3144L53.784 17.3144H58.4749ZM84.4965 23.8381H81.2455L81.5074 11.6417L77.5146 23.8381H74.0019L69.9001 11.5326L70.2492 23.8381H66.8674V8.1508H71.711L75.6819 20.1726L79.6746 8.1508H84.4965V23.8381ZM103.479 23.8381H99.8135L98.3735 20.0853H91.5444L90.1917 23.8381H86.7008L93.2899 8.1508H96.7808L103.479 23.8381ZM97.3044 17.3144L94.9262 11.3144L92.6135 17.3144H97.3044ZM119.988 23.8381H116.301L112.831 17.7072H108.97V23.8381H105.675V8.1508H113.77H114.577L115.188 8.25989L115.646 8.32535C115.791 8.32535 115.886 8.33262 115.93 8.34716C116.002 8.36171 116.177 8.40535 116.453 8.47807C117.37 8.69625 118.082 9.25626 118.591 10.1581C119.042 10.9581 119.268 11.8963 119.268 12.9726C119.268 14.049 119.013 14.9653 118.504 15.7217C118.024 16.4635 117.231 16.9799 116.126 17.2708L119.988 23.8381ZM115.951 12.929C115.951 12.2744 115.777 11.7944 115.428 11.489C115.021 11.1399 114.213 10.9653 113.006 10.9653H108.97V14.9363H113.006C114.199 14.9363 114.991 14.7617 115.384 14.4126C115.762 14.049 115.951 13.5544 115.951 12.929Z" fill="#364152"/>
<path d="M64.6494 23.8381V24.129H65.0899L64.917 23.7238L64.6494 23.8381ZM60.984 23.8381L60.7124 23.9423L60.784 24.129H60.984V23.8381ZM59.544 20.0853L59.8156 19.9811L59.7439 19.7944H59.544V20.0853ZM52.7149 20.0853V19.7944H52.5105L52.4412 19.9867L52.7149 20.0853ZM51.3621 23.8381V24.129H51.5665L51.6358 23.9367L51.3621 23.8381ZM47.8712 23.8381L47.603 23.7254L47.4335 24.129H47.8712V23.8381ZM54.4603 8.1508V7.85989H54.267L54.1921 8.03814L54.4603 8.1508ZM57.9512 8.1508L58.2188 8.03656L58.1433 7.85989H57.9512V8.1508ZM58.4749 17.3144V17.6053H58.9031L58.7453 17.2072L58.4749 17.3144ZM56.0967 11.3144L56.3671 11.2072L56.0929 10.5154L55.8252 11.2098L56.0967 11.3144ZM53.784 17.3144L53.5125 17.2098L53.3601 17.6053H53.784V17.3144ZM64.6494 23.8381V23.5472H60.984V23.8381V24.129H64.6494V23.8381ZM60.984 23.8381L61.2556 23.7339L59.8156 19.9811L59.544 20.0853L59.2724 20.1896L60.7124 23.9423L60.984 23.8381ZM59.544 20.0853V19.7944H52.7149V20.0853V20.3763H59.544V20.0853ZM52.7149 20.0853L52.4412 19.9867L51.0885 23.7394L51.3621 23.8381L51.6358 23.9367L52.9885 20.184L52.7149 20.0853ZM51.3621 23.8381V23.5472H47.8712V23.8381V24.129H51.3621V23.8381ZM47.8712 23.8381L48.1394 23.9507L54.7285 8.26346L54.4603 8.1508L54.1921 8.03814L47.603 23.7254L47.8712 23.8381ZM54.4603 8.1508V8.44171H57.9512V8.1508V7.85989H54.4603V8.1508ZM57.9512 8.1508L57.6837 8.26504L64.3819 23.9523L64.6494 23.8381L64.917 23.7238L58.2188 8.03656L57.9512 8.1508ZM58.4749 17.3144L58.7453 17.2072L56.3671 11.2072L56.0967 11.3144L55.8262 11.4216L58.2044 17.4216L58.4749 17.3144ZM56.0967 11.3144L55.8252 11.2098L53.5125 17.2098L53.784 17.3144L54.0554 17.4191L56.3681 11.4191L56.0967 11.3144ZM53.784 17.3144V17.6053H58.4749V17.3144V17.0235H53.784V17.3144ZM84.4965 23.8381V24.129H84.7874V23.8381H84.4965ZM81.2455 23.8381L80.9547 23.8318L80.9483 24.129H81.2455V23.8381ZM81.5074 11.6417L81.7982 11.648L81.2309 11.5512L81.5074 11.6417ZM77.5146 23.8381V24.129H77.7255L77.7911 23.9286L77.5146 23.8381ZM74.0019 23.8381L73.7259 23.9301L73.7922 24.129H74.0019V23.8381ZM69.9001 11.5326L70.1761 11.4406L69.6093 11.5409L69.9001 11.5326ZM70.2492 23.8381V24.129H70.5485L70.54 23.8298L70.2492 23.8381ZM66.8674 23.8381H66.5765V24.129H66.8674V23.8381ZM66.8674 8.1508V7.85989H66.5765V8.1508H66.8674ZM71.711 8.1508L71.9872 8.05956L71.9213 7.85989H71.711V8.1508ZM75.6819 20.1726L75.4057 20.2639L75.6812 21.0978L75.958 20.2643L75.6819 20.1726ZM79.6746 8.1508V7.85989H79.4647L79.3986 8.05911L79.6746 8.1508ZM84.4965 8.1508H84.7874V7.85989H84.4965V8.1508ZM84.4965 23.8381V23.5472H81.2455V23.8381V24.129H84.4965V23.8381ZM81.2455 23.8381L81.5364 23.8443L81.7982 11.648L81.5074 11.6417L81.2165 11.6355L80.9547 23.8318L81.2455 23.8381ZM81.5074 11.6417L81.2309 11.5512L77.2382 23.7476L77.5146 23.8381L77.7911 23.9286L81.7838 11.7322L81.5074 11.6417ZM77.5146 23.8381V23.5472H74.0019V23.8381V24.129H77.5146V23.8381ZM74.0019 23.8381L74.2779 23.7461L70.1761 11.4406L69.9001 11.5326L69.6241 11.6246L73.7259 23.9301L74.0019 23.8381ZM69.9001 11.5326L69.6093 11.5409L69.9584 23.8463L70.2492 23.8381L70.54 23.8298L70.1909 11.5244L69.9001 11.5326ZM70.2492 23.8381V23.5472H66.8674V23.8381V24.129H70.2492V23.8381ZM66.8674 23.8381H67.1583V8.1508H66.8674H66.5765V23.8381H66.8674ZM66.8674 8.1508V8.44171H71.711V8.1508V7.85989H66.8674V8.1508ZM71.711 8.1508L71.4348 8.24204L75.4057 20.2639L75.6819 20.1726L75.9581 20.0814L71.9872 8.05956L71.711 8.1508ZM75.6819 20.1726L75.958 20.2643L79.9507 8.24249L79.6746 8.1508L79.3986 8.05911L75.4058 20.0809L75.6819 20.1726ZM79.6746 8.1508V8.44171H84.4965V8.1508V7.85989H79.6746V8.1508ZM84.4965 8.1508H84.2055V23.8381H84.4965H84.7874V8.1508H84.4965ZM103.479 23.8381V24.129H103.919L103.746 23.7238L103.479 23.8381ZM99.8135 23.8381L99.5419 23.9423L99.6135 24.129H99.8135V23.8381ZM98.3735 20.0853L98.6451 19.9811L98.5735 19.7944H98.3735V20.0853ZM91.5444 20.0853V19.7944H91.34L91.2707 19.9867L91.5444 20.0853ZM90.1917 23.8381V24.129H90.396L90.4654 23.9367L90.1917 23.8381ZM86.7008 23.8381L86.4326 23.7254L86.2631 24.129H86.7008V23.8381ZM93.2899 8.1508V7.85989H93.0965L93.0217 8.03814L93.2899 8.1508ZM96.7808 8.1508L97.0483 8.03656L96.9729 7.85989H96.7808V8.1508ZM97.3044 17.3144V17.6053H97.7326L97.5748 17.2072L97.3044 17.3144ZM94.9262 11.3144L95.1967 11.2072L94.9224 10.5154L94.6548 11.2098L94.9262 11.3144ZM92.6135 17.3144L92.3421 17.2098L92.1896 17.6053H92.6135V17.3144ZM103.479 23.8381V23.5472H99.8135V23.8381V24.129H103.479V23.8381ZM99.8135 23.8381L100.085 23.7339L98.6451 19.9811L98.3735 20.0853L98.1019 20.1896L99.5419 23.9423L99.8135 23.8381ZM98.3735 20.0853V19.7944H91.5444V20.0853V20.3763H98.3735V20.0853ZM91.5444 20.0853L91.2707 19.9867L89.918 23.7394L90.1917 23.8381L90.4654 23.9367L91.8181 20.184L91.5444 20.0853ZM90.1917 23.8381V23.5472H86.7008V23.8381V24.129H90.1917V23.8381ZM86.7008 23.8381L86.969 23.9507L93.5581 8.26346L93.2899 8.1508L93.0217 8.03814L86.4326 23.7254L86.7008 23.8381ZM93.2899 8.1508V8.44171H96.7808V8.1508V7.85989H93.2899V8.1508ZM96.7808 8.1508L96.5132 8.26504L103.211 23.9523L103.479 23.8381L103.746 23.7238L97.0483 8.03656L96.7808 8.1508ZM97.3044 17.3144L97.5748 17.2072L95.1967 11.2072L94.9262 11.3144L94.6558 11.4216L97.034 17.4216L97.3044 17.3144ZM94.9262 11.3144L94.6548 11.2098L92.3421 17.2098L92.6135 17.3144L92.8849 17.4191L95.1977 11.4191L94.9262 11.3144ZM92.6135 17.3144V17.6053H97.3044V17.3144V17.0235H92.6135V17.3144ZM119.988 23.8381V24.129H120.496L120.239 23.6906L119.988 23.8381ZM116.301 23.8381L116.047 23.9813L116.131 24.129H116.301V23.8381ZM112.831 17.7072L113.085 17.5639L113.001 17.4163H112.831V17.7072ZM108.97 17.7072V17.4163H108.679V17.7072H108.97ZM108.97 23.8381V24.129H109.261V23.8381H108.97ZM105.675 23.8381H105.384V24.129H105.675V23.8381ZM105.675 8.1508V7.85989H105.384V8.1508H105.675ZM114.577 8.1508L114.628 7.86442L114.603 7.85989H114.577V8.1508ZM115.188 8.25989L115.137 8.54644L115.147 8.54788L115.188 8.25989ZM115.646 8.32535L115.605 8.61333L115.625 8.61625H115.646V8.32535ZM115.93 8.34716L115.838 8.62314L115.855 8.62887L115.873 8.63242L115.93 8.34716ZM116.453 8.47807L116.379 8.75948L116.386 8.76107L116.453 8.47807ZM118.591 10.1581L118.845 10.0152L118.845 10.0151L118.591 10.1581ZM118.504 15.7217L118.263 15.5592L118.26 15.5637L118.504 15.7217ZM116.126 17.2708L116.052 16.9895L115.681 17.0872L115.875 17.4183L116.126 17.2708ZM115.428 11.489L115.619 11.27L115.617 11.2681L115.428 11.489ZM108.97 10.9653V10.6744H108.679V10.9653H108.97ZM108.97 14.9363H108.679V15.2272H108.97V14.9363ZM115.384 14.4126L115.578 14.6302L115.586 14.6223L115.384 14.4126ZM119.988 23.8381V23.5472H116.301V23.8381V24.129H119.988V23.8381ZM116.301 23.8381L116.554 23.6948L113.085 17.5639L112.831 17.7072L112.578 17.8504L116.047 23.9813L116.301 23.8381ZM112.831 17.7072V17.4163H108.97V17.7072V17.9981H112.831V17.7072ZM108.97 17.7072H108.679V23.8381H108.97H109.261V17.7072H108.97ZM108.97 23.8381V23.5472H105.675V23.8381V24.129H108.97V23.8381ZM105.675 23.8381H105.966V8.1508H105.675H105.384V23.8381H105.675ZM105.675 8.1508V8.44171H113.77V8.1508V7.85989H105.675V8.1508ZM113.77 8.1508V8.44171H114.577V8.1508V7.85989H113.77V8.1508ZM114.577 8.1508L114.526 8.43718L115.137 8.54627L115.188 8.25989L115.239 7.97351L114.628 7.86442L114.577 8.1508ZM115.188 8.25989L115.147 8.54788L115.605 8.61333L115.646 8.32535L115.687 8.03736L115.229 7.97191L115.188 8.25989ZM115.646 8.32535V8.61625C115.715 8.61625 115.767 8.618 115.804 8.62085C115.822 8.62227 115.835 8.62379 115.842 8.62497C115.851 8.62634 115.848 8.62646 115.838 8.62314L115.93 8.34716L116.022 8.07118C115.964 8.05203 115.9 8.04471 115.848 8.04075C115.791 8.03633 115.723 8.03444 115.646 8.03444V8.32535ZM115.93 8.34716L115.873 8.63242C115.935 8.64488 116.1 8.6859 116.379 8.7594L116.453 8.47807L116.527 8.19674C116.254 8.12479 116.07 8.07854 115.987 8.0619L115.93 8.34716ZM116.453 8.47807L116.386 8.76107C117.215 8.95852 117.864 9.46198 118.338 10.3011L118.591 10.1581L118.845 10.0151C118.3 9.05053 117.524 8.43399 116.521 8.19507L116.453 8.47807ZM118.591 10.1581L118.338 10.3009C118.76 11.0503 118.977 11.9376 118.977 12.9726H119.268H119.559C119.559 11.8549 119.324 10.8658 118.845 10.0152L118.591 10.1581ZM119.268 12.9726H118.977C118.977 14.0018 118.734 14.8591 118.263 15.5593L118.504 15.7217L118.746 15.8841C119.292 15.0716 119.559 14.0962 119.559 12.9726H119.268ZM118.504 15.7217L118.26 15.5637C117.83 16.2284 117.109 16.7114 116.052 16.9895L116.126 17.2708L116.2 17.5521C117.354 17.2484 118.219 16.6986 118.748 15.8797L118.504 15.7217ZM116.126 17.2708L115.875 17.4183L119.737 23.9855L119.988 23.8381L120.239 23.6906L116.377 17.1233L116.126 17.2708ZM115.951 12.929H116.242C116.242 12.2262 116.054 11.6505 115.619 11.2701L115.428 11.489L115.236 11.7079C115.5 11.9383 115.661 12.3227 115.661 12.929H115.951ZM115.428 11.489L115.617 11.2681C115.362 11.0496 115.006 10.9044 114.578 10.8119C114.148 10.7188 113.622 10.6744 113.006 10.6744V10.9653V11.2563C113.598 11.2563 114.079 11.2992 114.455 11.3806C114.835 11.4627 115.086 11.5793 115.239 11.7099L115.428 11.489ZM113.006 10.9653V10.6744H108.97V10.9653V11.2563H113.006V10.9653ZM108.97 10.9653H108.679V14.9363H108.97H109.261V10.9653H108.97ZM108.97 14.9363V15.2272H113.006V14.9363V14.6453H108.97V14.9363ZM113.006 14.9363V15.2272C113.615 15.2272 114.134 15.1828 114.558 15.0894C114.978 14.9968 115.329 14.8509 115.577 14.63L115.384 14.4126L115.191 14.1952C115.047 14.3235 114.804 14.4393 114.433 14.5212C114.064 14.6024 113.59 14.6453 113.006 14.6453V14.9363ZM115.384 14.4126L115.586 14.6223C116.032 14.1934 116.242 13.6172 116.242 12.929H115.951H115.661C115.661 13.4917 115.493 13.9046 115.183 14.2029L115.384 14.4126Z" fill="#364152" mask="url(#path-4-outside-1_4270_7698)"/>
<mask id="path-6-outside-2_4270_7698" maskUnits="userSpaceOnUse" x="47.373" y="27.2926" width="42" height="13" fill="black">
<rect fill="white" x="47.373" y="27.2926" width="42" height="13"/>
<path d="M58.277 29.8206H54.565V39.2926H52.053V29.8206H48.373V27.8206H58.277V29.8206ZM70.7593 39.2926H68.0553L65.5113 34.7966H62.6793V39.2926H60.2633V27.7886H66.1993H66.7913L67.2393 27.8686L67.5753 27.9166C67.682 27.9166 67.7513 27.9219 67.7833 27.9326C67.8366 27.9433 67.9646 27.9753 68.1673 28.0286C68.8393 28.1886 69.362 28.5993 69.7353 29.2606C70.066 29.8473 70.2313 30.5353 70.2313 31.3246C70.2313 32.1139 70.0446 32.7859 69.6713 33.3406C69.3193 33.8846 68.738 34.2633 67.9273 34.4766L70.7593 39.2926ZM67.7993 31.2926C67.7993 30.8126 67.6713 30.4606 67.4153 30.2366C67.1166 29.9806 66.5246 29.8526 65.6393 29.8526H62.6793V32.7646H65.6393C66.514 32.7646 67.0953 32.6366 67.3833 32.3806C67.6606 32.1139 67.7993 31.7513 67.7993 31.2926ZM75.5913 39.2926H73.0633V27.7886H75.5913V39.2926ZM88.2123 31.6446C88.2123 32.3806 88.0203 33.0686 87.6363 33.7086C87.2523 34.3593 86.6923 34.7913 85.9563 35.0046L85.6683 35.0686L85.1723 35.1966C84.959 35.2393 84.7723 35.2606 84.6123 35.2606C84.527 35.2713 84.4256 35.2766 84.3083 35.2766L80.4043 35.2606V39.2926H77.9883V27.7886H83.2363C83.9296 27.7886 84.5536 27.8206 85.1083 27.8846C85.6416 27.9486 86.1643 28.1193 86.6763 28.3966C87.1563 28.6633 87.535 29.0953 87.8123 29.6926C88.079 30.2686 88.2123 30.9193 88.2123 31.6446ZM85.5243 31.5166C85.5243 30.8873 85.2896 30.4339 84.8203 30.1566C84.4576 29.9539 83.919 29.8526 83.2043 29.8526H80.4043V33.2286H83.3323C83.9616 33.2286 84.4683 33.1166 84.8523 32.8926C85.3003 32.6046 85.5243 32.1459 85.5243 31.5166Z"/>
</mask>
<path d="M58.277 29.8206H54.565V39.2926H52.053V29.8206H48.373V27.8206H58.277V29.8206ZM70.7593 39.2926H68.0553L65.5113 34.7966H62.6793V39.2926H60.2633V27.7886H66.1993H66.7913L67.2393 27.8686L67.5753 27.9166C67.682 27.9166 67.7513 27.9219 67.7833 27.9326C67.8366 27.9433 67.9646 27.9753 68.1673 28.0286C68.8393 28.1886 69.362 28.5993 69.7353 29.2606C70.066 29.8473 70.2313 30.5353 70.2313 31.3246C70.2313 32.1139 70.0446 32.7859 69.6713 33.3406C69.3193 33.8846 68.738 34.2633 67.9273 34.4766L70.7593 39.2926ZM67.7993 31.2926C67.7993 30.8126 67.6713 30.4606 67.4153 30.2366C67.1166 29.9806 66.5246 29.8526 65.6393 29.8526H62.6793V32.7646H65.6393C66.514 32.7646 67.0953 32.6366 67.3833 32.3806C67.6606 32.1139 67.7993 31.7513 67.7993 31.2926ZM75.5913 39.2926H73.0633V27.7886H75.5913V39.2926ZM88.2123 31.6446C88.2123 32.3806 88.0203 33.0686 87.6363 33.7086C87.2523 34.3593 86.6923 34.7913 85.9563 35.0046L85.6683 35.0686L85.1723 35.1966C84.959 35.2393 84.7723 35.2606 84.6123 35.2606C84.527 35.2713 84.4256 35.2766 84.3083 35.2766L80.4043 35.2606V39.2926H77.9883V27.7886H83.2363C83.9296 27.7886 84.5536 27.8206 85.1083 27.8846C85.6416 27.9486 86.1643 28.1193 86.6763 28.3966C87.1563 28.6633 87.535 29.0953 87.8123 29.6926C88.079 30.2686 88.2123 30.9193 88.2123 31.6446ZM85.5243 31.5166C85.5243 30.8873 85.2896 30.4339 84.8203 30.1566C84.4576 29.9539 83.919 29.8526 83.2043 29.8526H80.4043V33.2286H83.3323C83.9616 33.2286 84.4683 33.1166 84.8523 32.8926C85.3003 32.6046 85.5243 32.1459 85.5243 31.5166Z" fill="#364152"/>
<path d="M58.277 29.8206V30.1115H58.568V29.8206H58.277ZM54.565 29.8206V29.5297H54.2741V29.8206H54.565ZM54.565 39.2926V39.5835H54.856V39.2926H54.565ZM52.053 39.2926H51.7621V39.5835H52.053V39.2926ZM52.053 29.8206H52.344V29.5297H52.053V29.8206ZM48.373 29.8206H48.0821V30.1115H48.373V29.8206ZM48.373 27.8206V27.5297H48.0821V27.8206H48.373ZM58.277 27.8206H58.568V27.5297H58.277V27.8206ZM58.277 29.8206V29.5297H54.565V29.8206V30.1115H58.277V29.8206ZM54.565 29.8206H54.2741V39.2926H54.565H54.856V29.8206H54.565ZM54.565 39.2926V39.0017H52.053V39.2926V39.5835H54.565V39.2926ZM52.053 39.2926H52.344V29.8206H52.053H51.7621V39.2926H52.053ZM52.053 29.8206V29.5297H48.373V29.8206V30.1115H52.053V29.8206ZM48.373 29.8206H48.664V27.8206H48.373H48.0821V29.8206H48.373ZM48.373 27.8206V28.1115H58.277V27.8206V27.5297H48.373V27.8206ZM58.277 27.8206H57.9861V29.8206H58.277H58.568V27.8206H58.277ZM70.7593 39.2926V39.5835H71.2678L71.0101 39.1451L70.7593 39.2926ZM68.0553 39.2926L67.8021 39.4359L67.8857 39.5835H68.0553V39.2926ZM65.5113 34.7966L65.7645 34.6533L65.6809 34.5057H65.5113V34.7966ZM62.6793 34.7966V34.5057H62.3884V34.7966H62.6793ZM62.6793 39.2926V39.5835H62.9702V39.2926H62.6793ZM60.2633 39.2926H59.9724V39.5835H60.2633V39.2926ZM60.2633 27.7886V27.4977H59.9724V27.7886H60.2633ZM66.7913 27.7886L66.8424 27.5022L66.8171 27.4977H66.7913V27.7886ZM67.2393 27.8686L67.1881 28.1552L67.1982 28.1566L67.2393 27.8686ZM67.5753 27.9166L67.5342 28.2046L67.5546 28.2075H67.5753V27.9166ZM67.7833 27.9326L67.6913 28.2086L67.7085 28.2143L67.7262 28.2179L67.7833 27.9326ZM68.1673 28.0286L68.0932 28.31L68.0999 28.3116L68.1673 28.0286ZM69.7353 29.2606L69.9887 29.1178L69.9886 29.1176L69.7353 29.2606ZM69.6713 33.3406L69.4299 33.1781L69.4271 33.1826L69.6713 33.3406ZM67.9273 34.4766L67.8533 34.1953L67.4819 34.293L67.6765 34.6241L67.9273 34.4766ZM67.4153 30.2366L67.6069 30.0177L67.6046 30.0157L67.4153 30.2366ZM62.6793 29.8526V29.5617H62.3884V29.8526H62.6793ZM62.6793 32.7646H62.3884V33.0555H62.6793V32.7646ZM67.3833 32.3806L67.5767 32.5982L67.5849 32.5903L67.3833 32.3806ZM70.7593 39.2926V39.0017H68.0553V39.2926V39.5835H70.7593V39.2926ZM68.0553 39.2926L68.3085 39.1493L65.7645 34.6533L65.5113 34.7966L65.2581 34.9399L67.8021 39.4359L68.0553 39.2926ZM65.5113 34.7966V34.5057H62.6793V34.7966V35.0875H65.5113V34.7966ZM62.6793 34.7966H62.3884V39.2926H62.6793H62.9702V34.7966H62.6793ZM62.6793 39.2926V39.0017H60.2633V39.2926V39.5835H62.6793V39.2926ZM60.2633 39.2926H60.5542V27.7886H60.2633H59.9724V39.2926H60.2633ZM60.2633 27.7886V28.0795H66.1993V27.7886V27.4977H60.2633V27.7886ZM66.1993 27.7886V28.0795H66.7913V27.7886V27.4977H66.1993V27.7886ZM66.7913 27.7886L66.7402 28.075L67.1882 28.155L67.2393 27.8686L67.2904 27.5822L66.8424 27.5022L66.7913 27.7886ZM67.2393 27.8686L67.1982 28.1566L67.5342 28.2046L67.5753 27.9166L67.6164 27.6286L67.2804 27.5806L67.2393 27.8686ZM67.5753 27.9166V28.2075C67.6247 28.2075 67.6605 28.2088 67.685 28.2107C67.6971 28.2116 67.704 28.2125 67.7069 28.213C67.711 28.2136 67.7042 28.2129 67.6913 28.2086L67.7833 27.9326L67.8753 27.6566C67.8237 27.6394 67.7685 27.6335 67.7296 27.6305C67.6847 27.6271 67.6326 27.6257 67.5753 27.6257V27.9166ZM67.7833 27.9326L67.7262 28.2179C67.7691 28.2264 67.8877 28.2558 68.0933 28.3099L68.1673 28.0286L68.2413 27.7473C68.0416 27.6947 67.9041 27.6601 67.8403 27.6473L67.7833 27.9326ZM68.1673 28.0286L68.0999 28.3116C68.6849 28.4509 69.144 28.805 69.482 29.4036L69.7353 29.2606L69.9886 29.1176C69.5799 28.3935 68.9937 27.9263 68.2347 27.7456L68.1673 28.0286ZM69.7353 29.2606L69.4819 29.4034C69.784 29.9395 69.9404 30.5766 69.9404 31.3246H70.2313H70.5222C70.5222 30.4939 70.3479 29.755 69.9887 29.1178L69.7353 29.2606ZM70.2313 31.3246H69.9404C69.9404 32.0667 69.7655 32.6797 69.43 33.1782L69.6713 33.3406L69.9126 33.503C70.3238 32.8922 70.5222 32.1611 70.5222 31.3246H70.2313ZM69.6713 33.3406L69.4271 33.1826C69.1249 33.6495 68.615 33.9948 67.8533 34.1953L67.9273 34.4766L68.0013 34.7579C68.8609 34.5317 69.5137 34.1197 69.9155 33.4986L69.6713 33.3406ZM67.9273 34.4766L67.6765 34.6241L70.5085 39.4401L70.7593 39.2926L71.0101 39.1451L68.1781 34.3291L67.9273 34.4766ZM67.7993 31.2926H68.0902C68.0902 30.7644 67.9486 30.3167 67.6069 30.0177L67.4153 30.2366L67.2237 30.4555C67.394 30.6045 67.5084 30.8608 67.5084 31.2926H67.7993ZM67.4153 30.2366L67.6046 30.0157C67.404 29.8438 67.1288 29.7335 66.8088 29.6643C66.4857 29.5944 66.0941 29.5617 65.6393 29.5617V29.8526V30.1435C66.0698 30.1435 66.4169 30.1748 66.6858 30.2329C66.9578 30.2918 67.1279 30.3734 67.226 30.4575L67.4153 30.2366ZM65.6393 29.8526V29.5617H62.6793V29.8526V30.1435H65.6393V29.8526ZM62.6793 29.8526H62.3884V32.7646H62.6793H62.9702V29.8526H62.6793ZM62.6793 32.7646V33.0555H65.6393V32.7646V32.4737H62.6793V32.7646ZM65.6393 32.7646V33.0555C66.0888 33.0555 66.4755 33.0228 66.7939 32.9527C67.1089 32.8833 67.3805 32.7723 67.5766 32.598L67.3833 32.3806L67.19 32.1632C67.0981 32.2449 66.935 32.3259 66.6687 32.3845C66.4057 32.4424 66.0644 32.4737 65.6393 32.4737V32.7646ZM67.3833 32.3806L67.5849 32.5903C67.9301 32.2584 68.0902 31.814 68.0902 31.2926H67.7993H67.5084C67.5084 31.6885 67.3911 31.9695 67.1817 32.1709L67.3833 32.3806ZM75.5913 39.2926V39.5835H75.8822V39.2926H75.5913ZM73.0633 39.2926H72.7724V39.5835H73.0633V39.2926ZM73.0633 27.7886V27.4977H72.7724V27.7886H73.0633ZM75.5913 27.7886H75.8822V27.4977H75.5913V27.7886ZM75.5913 39.2926V39.0017H73.0633V39.2926V39.5835H75.5913V39.2926ZM73.0633 39.2926H73.3542V27.7886H73.0633H72.7724V39.2926H73.0633ZM73.0633 27.7886V28.0795H75.5913V27.7886V27.4977H73.0633V27.7886ZM75.5913 27.7886H75.3004V39.2926H75.5913H75.8822V27.7886H75.5913ZM87.6363 33.7086L87.3868 33.5589L87.3858 33.5607L87.6363 33.7086ZM85.9563 35.0046L86.0194 35.2886L86.0284 35.2866L86.0373 35.284L85.9563 35.0046ZM85.6683 35.0686L85.6052 34.7845L85.5956 34.7869L85.6683 35.0686ZM85.1723 35.1966L85.2293 35.4819L85.2372 35.4803L85.245 35.4783L85.1723 35.1966ZM84.6123 35.2606V34.9697H84.5942L84.5762 34.9719L84.6123 35.2606ZM84.3083 35.2766L84.3071 35.5675H84.3083V35.2766ZM80.4043 35.2606L80.4055 34.9697L80.1134 34.9685V35.2606H80.4043ZM80.4043 39.2926V39.5835H80.6952V39.2926H80.4043ZM77.9883 39.2926H77.6974V39.5835H77.9883V39.2926ZM77.9883 27.7886V27.4977H77.6974V27.7886H77.9883ZM85.1083 27.8846L85.143 27.5958L85.1416 27.5956L85.1083 27.8846ZM86.6763 28.3966L86.8176 28.1423L86.8149 28.1408L86.6763 28.3966ZM87.8123 29.6926L88.0763 29.5704L88.0762 29.5701L87.8123 29.6926ZM84.8203 30.1566L84.9683 29.9061L84.9622 29.9027L84.8203 30.1566ZM80.4043 29.8526V29.5617H80.1134V29.8526H80.4043ZM80.4043 33.2286H80.1134V33.5195H80.4043V33.2286ZM84.8523 32.8926L84.999 33.1441L85.0096 33.1373L84.8523 32.8926ZM88.2123 31.6446H87.9214C87.9214 32.3271 87.7441 32.9635 87.3868 33.5589L87.6363 33.7086L87.8857 33.8583C88.2965 33.1737 88.5032 32.4341 88.5032 31.6446H88.2123ZM87.6363 33.7086L87.3858 33.5607C87.04 34.1466 86.5412 34.5322 85.8753 34.7252L85.9563 35.0046L86.0373 35.284C86.8434 35.0504 87.4646 34.572 87.8868 33.8565L87.6363 33.7086ZM85.9563 35.0046L85.8932 34.7206L85.6052 34.7846L85.6683 35.0686L85.7314 35.3526L86.0194 35.2886L85.9563 35.0046ZM85.6683 35.0686L85.5956 34.7869L85.0996 34.9149L85.1723 35.1966L85.245 35.4783L85.741 35.3503L85.6683 35.0686ZM85.1723 35.1966L85.1152 34.9113C84.9145 34.9515 84.7477 34.9697 84.6123 34.9697V35.2606V35.5515C84.7969 35.5515 85.0034 35.527 85.2293 35.4819L85.1723 35.1966ZM84.6123 35.2606L84.5762 34.9719C84.5063 34.9807 84.4176 34.9857 84.3083 34.9857V35.2766V35.5675C84.4337 35.5675 84.5477 35.5619 84.6484 35.5493L84.6123 35.2606ZM84.3083 35.2766L84.3095 34.9857L80.4055 34.9697L80.4043 35.2606L80.4031 35.5515L84.3071 35.5675L84.3083 35.2766ZM80.4043 35.2606H80.1134V39.2926H80.4043H80.6952V35.2606H80.4043ZM80.4043 39.2926V39.0017H77.9883V39.2926V39.5835H80.4043V39.2926ZM77.9883 39.2926H78.2792V27.7886H77.9883H77.6974V39.2926H77.9883ZM77.9883 27.7886V28.0795H83.2363V27.7886V27.4977H77.9883V27.7886ZM83.2363 27.7886V28.0795C83.921 28.0795 84.5336 28.1111 85.075 28.1736L85.1083 27.8846L85.1416 27.5956C84.5736 27.5301 83.9382 27.4977 83.2363 27.4977V27.7886ZM85.1083 27.8846L85.0736 28.1734C85.5676 28.2327 86.0553 28.3911 86.5377 28.6524L86.6763 28.3966L86.8149 28.1408C86.2733 27.8475 85.7156 27.6645 85.143 27.5958L85.1083 27.8846ZM86.6763 28.3966L86.535 28.6509C86.9512 28.8821 87.2917 29.2622 87.5484 29.8151L87.8123 29.6926L88.0762 29.5701C87.7782 28.9284 87.3614 28.4444 86.8176 28.1423L86.6763 28.3966ZM87.8123 29.6926L87.5483 29.8148C87.7949 30.3474 87.9214 30.9555 87.9214 31.6446H88.2123H88.5032C88.5032 30.8831 88.3631 30.1898 88.0763 29.5704L87.8123 29.6926ZM85.5243 31.5166H85.8152C85.8152 30.8033 85.5413 30.2448 84.9683 29.9062L84.8203 30.1566L84.6723 30.4071C85.0379 30.6231 85.2334 30.9712 85.2334 31.5166H85.5243ZM84.8203 30.1566L84.9622 29.9027C84.5353 29.6641 83.9374 29.5617 83.2043 29.5617V29.8526V30.1435C83.9005 30.1435 84.38 30.2438 84.6784 30.4105L84.8203 30.1566ZM83.2043 29.8526V29.5617H80.4043V29.8526V30.1435H83.2043V29.8526ZM80.4043 29.8526H80.1134V33.2286H80.4043H80.6952V29.8526H80.4043ZM80.4043 33.2286V33.5195H83.3323V33.2286V32.9377H80.4043V33.2286ZM83.3323 33.2286V33.5195C83.9929 33.5195 84.5556 33.4024 84.9989 33.1439L84.8523 32.8926L84.7057 32.6413C84.3809 32.8308 83.9304 32.9377 83.3323 32.9377V33.2286ZM84.8523 32.8926L85.0096 33.1373C85.5571 32.7854 85.8152 32.224 85.8152 31.5166H85.5243H85.2334C85.2334 32.0679 85.0435 32.4238 84.695 32.6479L84.8523 32.8926Z" fill="#364152" mask="url(#path-6-outside-2_4270_7698)"/>
<rect x="90.5547" y="27.7654" width="30.8" height="13.5273" rx="1.92" fill="#364152"/>
<mask id="path-9-outside-3_4270_7698" maskUnits="userSpaceOnUse" x="92.9546" y="30.029" width="26" height="9" fill="black">
<rect fill="white" x="92.9546" y="30.029" width="26" height="9"/>
<path d="M93.591 36.5475H95.0973V38.029H93.591V36.5475ZM101.531 37.4821C100.984 37.9826 100.285 38.2328 99.4328 38.2328C98.3788 38.2328 97.5502 37.8948 96.947 37.2186C96.3438 36.5392 96.0421 35.6078 96.0421 34.4246C96.0421 33.1452 96.3852 32.1592 97.0713 31.4665C97.6679 30.8633 98.4269 30.5617 99.3483 30.5617C100.581 30.5617 101.483 30.966 102.053 31.7747C102.368 32.2288 102.537 32.6845 102.56 33.1419H101.029C100.929 32.7906 100.802 32.5254 100.646 32.3465C100.367 32.0283 99.9548 31.8692 99.4079 31.8692C98.8511 31.8692 98.4119 32.0946 98.0904 32.5453C97.7689 32.9928 97.6082 33.6275 97.6082 34.4494C97.6082 35.2714 97.7772 35.8879 98.1153 36.2989C98.4567 36.7065 98.8892 36.9104 99.4129 36.9104C99.9498 36.9104 100.359 36.7347 100.641 36.3834C100.797 36.1945 100.926 35.9111 101.029 35.5333H102.545C102.412 36.332 102.074 36.9816 101.531 37.4821ZM106.756 38.2328C105.709 38.2328 104.908 37.9478 104.355 37.3777C103.612 36.6784 103.241 35.6708 103.241 34.355C103.241 33.0127 103.612 32.0051 104.355 31.3323C104.908 30.7622 105.709 30.4771 106.756 30.4771C107.803 30.4771 108.604 30.7622 109.157 31.3323C109.897 32.0051 110.266 33.0127 110.266 34.355C110.266 35.6708 109.897 36.6784 109.157 37.3777C108.604 37.9478 107.803 38.2328 106.756 38.2328ZM108.203 36.2641C108.557 35.8166 108.735 35.1803 108.735 34.355C108.735 33.533 108.556 32.8983 108.198 32.4509C107.843 32.0001 107.363 31.7747 106.756 31.7747C106.15 31.7747 105.666 31.9985 105.304 32.4459C104.943 32.8933 104.763 33.5297 104.763 34.355C104.763 35.1803 104.943 35.8166 105.304 36.2641C105.666 36.7115 106.15 36.9352 106.756 36.9352C107.363 36.9352 107.845 36.7115 108.203 36.2641ZM112.638 38.029H111.211V30.7009H113.438L114.771 36.4629L116.093 30.7009H118.295V38.029H116.869V33.0723C116.869 32.9298 116.87 32.7309 116.874 32.4757C116.877 32.2172 116.878 32.0183 116.878 31.8791L115.491 38.029H114.005L112.628 31.8791C112.628 32.0183 112.629 32.2172 112.633 32.4757C112.636 32.7309 112.638 32.9298 112.638 33.0723V38.029Z"/>
</mask>
<path d="M93.591 36.5475H95.0973V38.029H93.591V36.5475ZM101.531 37.4821C100.984 37.9826 100.285 38.2328 99.4328 38.2328C98.3788 38.2328 97.5502 37.8948 96.947 37.2186C96.3438 36.5392 96.0421 35.6078 96.0421 34.4246C96.0421 33.1452 96.3852 32.1592 97.0713 31.4665C97.6679 30.8633 98.4269 30.5617 99.3483 30.5617C100.581 30.5617 101.483 30.966 102.053 31.7747C102.368 32.2288 102.537 32.6845 102.56 33.1419H101.029C100.929 32.7906 100.802 32.5254 100.646 32.3465C100.367 32.0283 99.9548 31.8692 99.4079 31.8692C98.8511 31.8692 98.4119 32.0946 98.0904 32.5453C97.7689 32.9928 97.6082 33.6275 97.6082 34.4494C97.6082 35.2714 97.7772 35.8879 98.1153 36.2989C98.4567 36.7065 98.8892 36.9104 99.4129 36.9104C99.9498 36.9104 100.359 36.7347 100.641 36.3834C100.797 36.1945 100.926 35.9111 101.029 35.5333H102.545C102.412 36.332 102.074 36.9816 101.531 37.4821ZM106.756 38.2328C105.709 38.2328 104.908 37.9478 104.355 37.3777C103.612 36.6784 103.241 35.6708 103.241 34.355C103.241 33.0127 103.612 32.0051 104.355 31.3323C104.908 30.7622 105.709 30.4771 106.756 30.4771C107.803 30.4771 108.604 30.7622 109.157 31.3323C109.897 32.0051 110.266 33.0127 110.266 34.355C110.266 35.6708 109.897 36.6784 109.157 37.3777C108.604 37.9478 107.803 38.2328 106.756 38.2328ZM108.203 36.2641C108.557 35.8166 108.735 35.1803 108.735 34.355C108.735 33.533 108.556 32.8983 108.198 32.4509C107.843 32.0001 107.363 31.7747 106.756 31.7747C106.15 31.7747 105.666 31.9985 105.304 32.4459C104.943 32.8933 104.763 33.5297 104.763 34.355C104.763 35.1803 104.943 35.8166 105.304 36.2641C105.666 36.7115 106.15 36.9352 106.756 36.9352C107.363 36.9352 107.845 36.7115 108.203 36.2641ZM112.638 38.029H111.211V30.7009H113.438L114.771 36.4629L116.093 30.7009H118.295V38.029H116.869V33.0723C116.869 32.9298 116.87 32.7309 116.874 32.4757C116.877 32.2172 116.878 32.0183 116.878 31.8791L115.491 38.029H114.005L112.628 31.8791C112.628 32.0183 112.629 32.2172 112.633 32.4757C112.636 32.7309 112.638 32.9298 112.638 33.0723V38.029Z" fill="white"/>
<path d="M93.591 36.5475V36.402H93.4455V36.5475H93.591ZM95.0973 36.5475H95.2428V36.402H95.0973V36.5475ZM95.0973 38.029V38.1744H95.2428V38.029H95.0973ZM93.591 38.029H93.4455V38.1744H93.591V38.029ZM93.591 36.5475V36.6929H95.0973V36.5475V36.402H93.591V36.5475ZM95.0973 36.5475H94.9519V38.029H95.0973H95.2428V36.5475H95.0973ZM95.0973 38.029V37.8835H93.591V38.029V38.1744H95.0973V38.029ZM93.591 38.029H93.7364V36.5475H93.591H93.4455V38.029H93.591ZM101.531 37.4821L101.629 37.5894L101.629 37.5891L101.531 37.4821ZM96.947 37.2186L96.8382 37.3152L96.8384 37.3155L96.947 37.2186ZM97.0713 31.4665L97.1746 31.5688L97.1747 31.5688L97.0713 31.4665ZM102.053 31.7747L102.172 31.6918L102.172 31.6909L102.053 31.7747ZM102.56 33.1419V33.2874H102.713L102.705 33.1345L102.56 33.1419ZM101.029 33.1419L100.889 33.1815L100.919 33.2874H101.029V33.1419ZM100.646 32.3465L100.756 32.251L100.755 32.2507L100.646 32.3465ZM98.0904 32.5453L98.2086 32.6302L98.2089 32.6298L98.0904 32.5453ZM98.1153 36.2989L98.003 36.3913L98.0038 36.3923L98.1153 36.2989ZM100.641 36.3834L100.529 36.2909L100.527 36.2924L100.641 36.3834ZM101.029 35.5333V35.3878H100.917L100.888 35.4951L101.029 35.5333ZM102.545 35.5333L102.688 35.5571L102.717 35.3878H102.545V35.5333ZM101.531 37.4821L101.433 37.3748C100.917 37.8471 100.254 38.0874 99.4328 38.0874V38.2328V38.3783C100.315 38.3783 101.051 38.1181 101.629 37.5894L101.531 37.4821ZM99.4328 38.2328V38.0874C98.4128 38.0874 97.6265 37.7618 97.0555 37.1218L96.947 37.2186L96.8384 37.3155C97.4739 38.0277 98.3448 38.3783 99.4328 38.3783V38.2328ZM96.947 37.2186L97.0557 37.1221C96.4826 36.4764 96.1876 35.5832 96.1876 34.4246H96.0421H95.8967C95.8967 35.6324 96.2049 36.6019 96.8382 37.3152L96.947 37.2186ZM96.0421 34.4246H96.1876C96.1876 33.1712 96.5231 32.2266 97.1746 31.5688L97.0713 31.4665L96.9679 31.3641C96.2472 32.0918 95.8967 33.1193 95.8967 34.4246H96.0421ZM97.0713 31.4665L97.1747 31.5688C97.7415 30.9957 98.462 30.7071 99.3483 30.7071V30.5617V30.4162C98.3917 30.4162 97.5943 30.7308 96.9678 31.3642L97.0713 31.4665ZM99.3483 30.5617V30.7071C100.547 30.7071 101.398 31.0981 101.934 31.8585L102.053 31.7747L102.172 31.6909C101.568 30.834 100.615 30.4162 99.3483 30.4162V30.5617ZM102.053 31.7747L101.933 31.8576C102.236 32.294 102.393 32.7241 102.415 33.1493L102.56 33.1419L102.705 33.1345C102.68 32.645 102.499 32.1636 102.172 31.6918L102.053 31.7747ZM102.56 33.1419V32.9965H101.029V33.1419V33.2874H102.56V33.1419ZM101.029 33.1419L101.169 33.1023C101.066 32.7404 100.931 32.4525 100.756 32.251L100.646 32.3465L100.536 32.442C100.672 32.5984 100.792 32.8408 100.889 33.1815L101.029 33.1419ZM100.646 32.3465L100.755 32.2507C100.442 31.8922 99.9836 31.7237 99.4079 31.7237V31.8692V32.0146C99.926 32.0146 100.293 32.1643 100.536 32.4422L100.646 32.3465ZM99.4079 31.8692V31.7237C98.8044 31.7237 98.321 31.9716 97.972 32.4609L98.0904 32.5453L98.2089 32.6298C98.5029 32.2176 98.8978 32.0146 99.4079 32.0146V31.8692ZM98.0904 32.5453L97.9723 32.4605C97.6263 32.9421 97.4627 33.6112 97.4627 34.4494H97.6082H97.7537C97.7537 33.6437 97.9116 33.0435 98.2086 32.6302L98.0904 32.5453ZM97.6082 34.4494H97.4627C97.4627 35.2877 97.6345 35.9434 98.003 36.3913L98.1153 36.2989L98.2276 36.2065C97.9199 35.8324 97.7537 35.2551 97.7537 34.4494H97.6082ZM98.1153 36.2989L98.0038 36.3923C98.3723 36.8323 98.8454 37.0558 99.4129 37.0558V36.9104V36.7649C98.933 36.7649 98.5411 36.5807 98.2268 36.2055L98.1153 36.2989ZM99.4129 36.9104V37.0558C99.9845 37.0558 100.44 36.8669 100.754 36.4744L100.641 36.3834L100.527 36.2924C100.279 36.6026 99.9151 36.7649 99.4129 36.7649V36.9104ZM100.641 36.3834L100.753 36.4759C100.928 36.2644 101.064 35.9586 101.169 35.5714L101.029 35.5333L100.888 35.4951C100.788 35.8636 100.666 36.1246 100.529 36.2909L100.641 36.3834ZM101.029 35.5333V35.6787H102.545V35.5333V35.3878H101.029V35.5333ZM102.545 35.5333L102.401 35.5094C102.274 36.2795 101.95 36.8987 101.432 37.3751L101.531 37.4821L101.629 37.5891C102.199 37.0646 102.551 36.3845 102.688 35.5571L102.545 35.5333ZM104.355 37.3777L104.459 37.2763L104.455 37.2718L104.355 37.3777ZM104.355 31.3323L104.453 31.4403L104.459 31.4336L104.355 31.3323ZM109.157 31.3323L109.053 31.4338L109.059 31.4398L109.157 31.3323ZM109.157 37.3777L109.057 37.272L109.053 37.2764L109.157 37.3777ZM108.203 36.2641L108.316 36.3549L108.317 36.3544L108.203 36.2641ZM108.198 32.4509L108.084 32.5408L108.084 32.5417L108.198 32.4509ZM106.756 38.2328V38.0874C105.735 38.0874 104.977 37.8101 104.459 37.2764L104.355 37.3777L104.25 37.479C104.839 38.0855 105.682 38.3783 106.756 38.3783V38.2328ZM104.355 37.3777L104.455 37.2718C103.749 36.6074 103.387 35.643 103.387 34.355H103.241H103.096C103.096 35.6986 103.476 36.7494 104.255 37.4836L104.355 37.3777ZM103.241 34.355H103.387C103.387 33.0391 103.75 32.0768 104.453 31.44L104.355 31.3323L104.257 31.2245C103.475 31.9334 103.096 32.9862 103.096 34.355H103.241ZM104.355 31.3323L104.459 31.4336C104.977 30.8999 105.735 30.6226 106.756 30.6226V30.4771V30.3317C105.682 30.3317 104.839 30.6245 104.25 31.2309L104.355 31.3323ZM106.756 30.4771V30.6226C107.777 30.6226 108.535 30.8999 109.053 31.4336L109.157 31.3323L109.262 31.2309C108.673 30.6245 107.83 30.3317 106.756 30.3317V30.4771ZM109.157 31.3323L109.059 31.4398C109.759 32.0765 110.121 33.0389 110.121 34.355H110.266H110.412C110.412 32.9864 110.034 31.9336 109.255 31.2247L109.157 31.3323ZM110.266 34.355H110.121C110.121 35.6432 109.76 36.6077 109.057 37.2721L109.157 37.3777L109.257 37.4834C110.033 36.7491 110.412 35.6984 110.412 34.355H110.266ZM109.157 37.3777L109.053 37.2764C108.535 37.8101 107.777 38.0874 106.756 38.0874V38.2328V38.3783C107.83 38.3783 108.673 38.0855 109.262 37.479L109.157 37.3777ZM108.203 36.2641L108.317 36.3544C108.699 35.872 108.88 35.1989 108.88 34.355H108.735H108.589C108.589 35.1617 108.416 35.7613 108.089 36.1737L108.203 36.2641ZM108.735 34.355H108.88C108.88 33.514 108.697 32.8424 108.311 32.36L108.198 32.4509L108.084 32.5417C108.414 32.9543 108.589 33.5521 108.589 34.355H108.735ZM108.198 32.4509L108.312 32.3609C107.928 31.8728 107.404 31.6293 106.756 31.6293V31.7747V31.9202C107.321 31.9202 107.758 32.1274 108.084 32.5408L108.198 32.4509ZM106.756 31.7747V31.6293C106.108 31.6293 105.582 31.8708 105.191 32.3545L105.304 32.4459L105.418 32.5373C105.75 32.1261 106.191 31.9202 106.756 31.9202V31.7747ZM105.304 32.4459L105.191 32.3545C104.802 32.837 104.617 33.5106 104.617 34.355H104.763H104.908C104.908 33.5488 105.085 32.9497 105.418 32.5373L105.304 32.4459ZM104.763 34.355H104.617C104.617 35.1994 104.802 35.873 105.191 36.3555L105.304 36.2641L105.418 36.1727C105.085 35.7603 104.908 35.1611 104.908 34.355H104.763ZM105.304 36.2641L105.191 36.3555C105.582 36.8392 106.108 37.0807 106.756 37.0807V36.9352V36.7898C106.191 36.7898 105.75 36.5838 105.418 36.1727L105.304 36.2641ZM106.756 36.9352V37.0807C107.404 37.0807 107.929 36.8392 108.316 36.3549L108.203 36.2641L108.089 36.1732C107.761 36.5839 107.321 36.7898 106.756 36.7898V36.9352ZM112.638 38.029V38.1744H112.783V38.029H112.638ZM111.211 38.029H111.065V38.1744H111.211V38.029ZM111.211 30.7009V30.5554H111.065V30.7009H111.211ZM113.438 30.7009L113.58 30.6681L113.554 30.5554H113.438V30.7009ZM114.771 36.4629L114.629 36.4957L114.912 36.4955L114.771 36.4629ZM116.093 30.7009V30.5554H115.977L115.951 30.6683L116.093 30.7009ZM118.295 30.7009H118.441V30.5554H118.295V30.7009ZM118.295 38.029V38.1744H118.441V38.029H118.295ZM116.869 38.029H116.723V38.1744H116.869V38.029ZM116.874 32.4757L117.019 32.4776V32.4776L116.874 32.4757ZM116.878 31.8791H117.024L116.737 31.8471L116.878 31.8791ZM115.491 38.029V38.1744H115.608L115.633 38.061L115.491 38.029ZM114.005 38.029L113.863 38.0608L113.888 38.1744H114.005V38.029ZM112.628 31.8791L112.77 31.8473L112.482 31.8791H112.628ZM112.633 32.4757L112.487 32.4776V32.4776L112.633 32.4757ZM112.638 38.029V37.8835H111.211V38.029V38.1744H112.638V38.029ZM111.211 38.029H111.356V30.7009H111.211H111.065V38.029H111.211ZM111.211 30.7009V30.8463H113.438V30.7009V30.5554H111.211V30.7009ZM113.438 30.7009L113.296 30.7336L114.629 36.4957L114.771 36.4629L114.912 36.4302L113.58 30.6681L113.438 30.7009ZM114.771 36.4629L114.912 36.4955L116.235 30.7334L116.093 30.7009L115.951 30.6683L114.629 36.4304L114.771 36.4629ZM116.093 30.7009V30.8463H118.295V30.7009V30.5554H116.093V30.7009ZM118.295 30.7009H118.15V38.029H118.295H118.441V30.7009H118.295ZM118.295 38.029V37.8835H116.869V38.029V38.1744H118.295V38.029ZM116.869 38.029H117.014V33.0723H116.869H116.723V38.029H116.869ZM116.869 33.0723H117.014C117.014 32.9307 117.016 32.7326 117.019 32.4776L116.874 32.4757L116.728 32.4738C116.725 32.7293 116.723 32.9289 116.723 33.0723H116.869ZM116.874 32.4757L117.019 32.4776C117.022 32.2189 117.024 32.0193 117.024 31.8791H116.878H116.733C116.733 32.0174 116.731 32.2155 116.728 32.4739L116.874 32.4757ZM116.878 31.8791L116.737 31.8471L115.35 37.997L115.491 38.029L115.633 38.061L117.02 31.9111L116.878 31.8791ZM115.491 38.029V37.8835H114.005V38.029V38.1744H115.491V38.029ZM114.005 38.029L114.147 37.9972L112.77 31.8473L112.628 31.8791L112.486 31.9109L113.863 38.0608L114.005 38.029ZM112.628 31.8791H112.482C112.482 32.0193 112.484 32.2189 112.487 32.4776L112.633 32.4757L112.778 32.4739C112.775 32.2155 112.773 32.0174 112.773 31.8791H112.628ZM112.633 32.4757L112.487 32.4776C112.491 32.7326 112.492 32.9307 112.492 33.0723H112.638H112.783C112.783 32.9289 112.782 32.7293 112.778 32.4738L112.633 32.4757ZM112.638 33.0723H112.492V38.029H112.638H112.783V33.0723H112.638Z" fill="white" mask="url(#path-9-outside-3_4270_7698)"/>
<path d="M129.828 5.81818V42.1818" stroke="#364152" stroke-width="1.45455" stroke-linecap="round"/>
<rect x="135.646" y="7.60727" width="46.8182" height="32.7855" rx="2.90909" fill="#16B364"/>
<path d="M144.173 21.9709H139.663V11.5021H144.173C144.822 11.5116 145.362 11.5874 145.792 11.7294C146.526 11.9709 147.121 12.4136 147.575 13.0575C147.94 13.5784 148.188 14.1418 148.321 14.7479C148.453 15.3539 148.52 15.9316 148.52 16.4808C148.52 17.8729 148.24 19.0519 147.682 20.0178C146.924 21.3198 145.755 21.9709 144.173 21.9709ZM145.799 14.1726C145.463 13.6044 144.798 13.3203 143.804 13.3203H141.787V20.1527H143.804C144.836 20.1527 145.556 19.6437 145.963 18.6257C146.185 18.067 146.297 17.4018 146.297 16.63C146.297 15.5646 146.131 14.7455 145.799 14.1726ZM153.612 16.0973C152.798 16.0973 152.251 16.3625 151.972 16.8928C151.815 17.1911 151.737 17.6503 151.737 18.2706V21.9709H149.699V14.2294H151.631V15.5788C151.943 15.0627 152.215 14.71 152.448 14.5206C152.826 14.2034 153.319 14.0448 153.925 14.0448C153.963 14.0448 153.993 14.0471 154.017 14.0519C154.046 14.0519 154.105 14.0542 154.195 14.059V16.1328C154.067 16.1186 153.953 16.1091 153.854 16.1044C153.754 16.0997 153.674 16.0973 153.612 16.0973ZM157.178 14.2294V21.9709H155.125V14.2294H157.178ZM157.178 11.4382V13.3061H155.125V11.4382H157.178ZM158.094 14.2294H160.367L161.979 19.9396L163.627 14.2294H165.8L163.009 21.9709H160.871L158.094 14.2294ZM173.286 19.6982C173.234 20.1574 172.995 20.6238 172.569 21.0973C171.906 21.8501 170.978 22.2266 169.785 22.2266C168.8 22.2266 167.931 21.9093 167.178 21.2749C166.426 20.6404 166.049 19.6082 166.049 18.1783C166.049 16.8383 166.388 15.8108 167.065 15.0959C167.747 14.3809 168.63 14.0234 169.714 14.0234C170.358 14.0234 170.938 14.1442 171.454 14.3857C171.97 14.6271 172.396 15.0083 172.732 15.5291C173.035 15.9884 173.232 16.5211 173.322 17.1271C173.374 17.4823 173.395 17.9936 173.386 18.6612H168.088C168.116 19.4377 168.36 19.9822 168.819 20.2947C169.098 20.4889 169.435 20.5859 169.828 20.5859C170.244 20.5859 170.583 20.4676 170.843 20.2308C170.985 20.103 171.111 19.9254 171.22 19.6982H173.286ZM171.284 17.326C171.25 16.791 171.087 16.3861 170.794 16.1115C170.505 15.8322 170.145 15.6925 169.714 15.6925C169.245 15.6925 168.881 15.8393 168.62 16.1328C168.365 16.4264 168.204 16.8241 168.137 17.326H171.284ZM178.358 16.0973C177.543 16.0973 176.996 16.3625 176.717 16.8928C176.561 17.1911 176.483 17.6503 176.483 18.2706V21.9709H174.444V14.2294H176.376V15.5788C176.689 15.0627 176.961 14.71 177.193 14.5206C177.572 14.2034 178.064 14.0448 178.67 14.0448C178.708 14.0448 178.739 14.0471 178.763 14.0519C178.791 14.0519 178.85 14.0542 178.94 14.059V16.1328C178.812 16.1186 178.699 16.1091 178.599 16.1044C178.5 16.0997 178.419 16.0973 178.358 16.0973Z" fill="white"/>
<path d="M144.443 34.88H139.699V24.4113H144.784C146.067 24.4302 146.976 24.8019 147.511 25.5263C147.833 25.9714 147.994 26.5041 147.994 27.1243C147.994 27.7635 147.833 28.2773 147.511 28.6655C147.331 28.8833 147.066 29.0822 146.716 29.2621C147.251 29.4562 147.653 29.764 147.923 30.1854C148.198 30.6068 148.335 31.1182 148.335 31.7195C148.335 32.3398 148.179 32.8961 147.866 33.3885C147.667 33.7152 147.419 33.9899 147.121 34.2124C146.784 34.4681 146.387 34.6433 145.927 34.738C145.473 34.8327 144.978 34.88 144.443 34.88ZM144.393 30.2706H141.787V33.0618H144.358C144.817 33.0618 145.174 33.0003 145.43 32.8772C145.894 32.6499 146.126 32.2143 146.126 31.5703C146.126 31.0258 145.901 30.6518 145.451 30.4482C145.201 30.3346 144.848 30.2754 144.393 30.2706ZM145.48 28.2749C145.764 28.1044 145.906 27.799 145.906 27.3587C145.906 26.871 145.717 26.549 145.338 26.3928C145.011 26.2839 144.594 26.2294 144.088 26.2294H141.787V28.5377H144.358C144.817 28.5377 145.191 28.4501 145.48 28.2749ZM156.716 30.3346V34.88H154.649V30.1712C154.649 29.7545 154.578 29.4184 154.436 29.1627C154.251 28.8028 153.901 28.6229 153.385 28.6229C152.85 28.6229 152.443 28.8028 152.163 29.1627C151.889 29.5178 151.751 30.0268 151.751 30.6897V34.88H149.734V24.4468H151.751V28.1471C152.045 27.6972 152.384 27.3847 152.767 27.2096C153.155 27.0296 153.563 26.9397 153.989 26.9397C154.467 26.9397 154.9 27.0225 155.288 27.1882C155.681 27.354 156.003 27.6073 156.254 27.9482C156.467 28.237 156.598 28.5353 156.645 28.8431C156.692 29.1461 156.716 29.6433 156.716 30.3346ZM158.613 27.9766C159.148 27.2948 160.066 26.9539 161.368 26.9539C162.216 26.9539 162.969 27.122 163.627 27.4581C164.285 27.7943 164.614 28.4288 164.614 29.3615V32.9127C164.614 33.1589 164.619 33.4572 164.628 33.8076C164.642 34.0727 164.683 34.2526 164.749 34.3473C164.815 34.442 164.915 34.5202 165.047 34.5817V34.88H162.846C162.784 34.7238 162.741 34.577 162.718 34.4397C162.694 34.3024 162.675 34.1461 162.661 33.9709C162.382 34.2739 162.06 34.532 161.695 34.7451C161.259 34.996 160.767 35.1215 160.218 35.1215C159.517 35.1215 158.937 34.9226 158.478 34.5249C158.023 34.1224 157.796 33.5542 157.796 32.8203C157.796 31.8686 158.163 31.1797 158.897 30.7536C159.299 30.5216 159.891 30.3559 160.672 30.2564L161.361 30.1712C161.735 30.1238 162.003 30.0647 162.164 29.9936C162.453 29.8705 162.597 29.6788 162.597 29.4184C162.597 29.1011 162.486 28.8833 162.263 28.7649C162.045 28.6418 161.723 28.5803 161.297 28.5803C160.819 28.5803 160.48 28.6987 160.282 28.9354C160.14 29.1106 160.045 29.3473 159.998 29.6456H158.044C158.087 28.9685 158.276 28.4122 158.613 27.9766ZM160.118 33.4169C160.308 33.5732 160.54 33.6513 160.814 33.6513C161.25 33.6513 161.65 33.5235 162.015 33.2678C162.384 33.0121 162.576 32.5457 162.59 31.8686V31.1158C162.462 31.1963 162.332 31.2626 162.199 31.3147C162.071 31.362 161.894 31.407 161.667 31.4496L161.212 31.5348C160.786 31.6106 160.48 31.7029 160.296 31.8118C159.983 31.9965 159.827 32.2829 159.827 32.6712C159.827 33.0168 159.924 33.2654 160.118 33.4169ZM168.208 27.1385V34.88H166.155V27.1385H168.208ZM168.208 24.3473V26.2152H166.155V24.3473H168.208Z" fill="white"/>
</svg>
