<svg width="220" height="58" viewBox="0 0 220 58" fill="none" xmlns="http://www.w3.org/2000/svg">
<path d="M210.969 0H8.82468C3.95094 0 0 3.95094 0 8.82468V48.5357C0 53.4095 3.95094 57.3604 8.82468 57.3604H210.969C215.842 57.3604 219.793 53.4095 219.793 48.5357V8.82468C219.793 3.95094 215.842 0 210.969 0Z" fill="white"/>
<path d="M109.073 32.063C105.602 32.063 102.778 34.7104 102.778 38.3579C102.778 42.0055 105.602 44.6529 109.073 44.6529C112.544 44.6529 115.368 42.0055 115.368 38.3579C115.368 34.7104 112.544 32.063 109.073 32.063ZM109.073 42.1231C107.19 42.1231 105.543 40.5347 105.543 38.2991C105.543 36.0635 107.19 34.4751 109.073 34.4751C110.955 34.4751 112.603 36.0047 112.603 38.2991C112.603 40.5935 110.955 42.1231 109.073 42.1231ZM95.3652 32.063C91.8941 32.063 89.0702 34.7104 89.0702 38.3579C89.0702 42.0055 91.8941 44.6529 95.3652 44.6529C98.8362 44.6529 101.66 42.0055 101.66 38.3579C101.66 34.7104 98.8362 32.063 95.3652 32.063ZM95.3652 42.1231C93.4826 42.1231 91.8353 40.5347 91.8353 38.2991C91.8353 36.0635 93.4826 34.4751 95.3652 34.4751C97.2478 34.4751 98.8951 36.0047 98.8951 38.2991C98.8951 40.5347 97.2478 42.1231 95.3652 42.1231ZM79.0101 34.0044V36.6518H85.3639C85.1874 38.1226 84.6579 39.2404 83.8931 40.0052C82.9518 40.9465 81.5398 41.9467 78.9513 41.9467C75.0096 41.9467 71.9504 38.7698 71.9504 34.8869C71.9504 31.004 75.0096 27.8272 78.9513 27.8272C81.0692 27.8272 82.5988 28.6508 83.7754 29.7098L85.658 27.8272C84.0696 26.2976 81.9517 25.1209 79.0101 25.1209C73.6565 25.1209 69.1265 29.4744 69.1265 34.8281C69.1265 40.1817 73.6565 44.5941 79.0101 44.5941C81.8928 44.5941 84.0696 43.6528 85.7757 41.8878C87.5406 40.1229 88.0701 37.652 88.0701 35.6517C88.0701 35.0634 88.0701 34.4751 87.9524 34.0044H79.0101ZM145.784 36.0635C145.254 34.6516 143.666 32.063 140.43 32.063C137.194 32.063 134.488 34.5927 134.488 38.3579C134.488 41.8878 137.135 44.6529 140.724 44.6529C143.607 44.6529 145.254 42.8879 145.96 41.8878L143.842 40.4759C143.136 41.5348 142.136 42.182 140.724 42.182C139.312 42.182 138.312 41.5348 137.665 40.2994L146.019 36.8283L145.725 36.1224L145.784 36.0635ZM137.253 38.1815C137.194 35.7694 139.136 34.5339 140.548 34.5339C141.665 34.5339 142.548 35.0634 142.901 35.887L137.312 38.2403L137.253 38.1815ZM130.429 44.2411H133.194V25.8269H130.429V44.2411ZM125.899 33.475H125.781C125.134 32.7102 123.957 32.063 122.486 32.063C119.368 32.063 116.486 34.8281 116.486 38.3579C116.486 41.8878 119.368 44.5941 122.486 44.5941C123.957 44.5941 125.193 43.9469 125.781 43.1821H125.899V44.0646C125.899 46.4767 124.604 47.7709 122.545 47.7709C120.839 47.7709 119.839 46.5355 119.368 45.5354L116.956 46.5355C117.662 48.1828 119.486 50.2418 122.486 50.2418C125.722 50.2418 128.428 48.3593 128.428 43.7116V32.4748H125.84V33.475H125.899ZM122.722 42.1231C120.839 42.1231 119.251 40.5347 119.251 38.3579C119.251 36.1812 120.839 34.5339 122.722 34.5339C124.604 34.5339 126.075 36.1224 126.075 38.3579C126.075 40.5935 124.604 42.1231 122.722 42.1231ZM158.668 25.7681H152.078V44.1822H154.844V37.1813H158.668C161.727 37.1813 164.727 35.0046 164.727 31.4747C164.727 27.9448 161.727 25.7681 158.668 25.7681ZM158.726 34.6516H154.844V28.3566H158.726C160.785 28.3566 161.962 30.0627 161.962 31.5335C161.962 33.0043 160.785 34.7104 158.726 34.7104V34.6516ZM175.729 32.0042C173.728 32.0042 171.669 32.8866 170.846 34.8281L173.258 35.8282C173.787 34.8281 174.728 34.4751 175.787 34.4751C177.199 34.4751 178.67 35.2987 178.67 36.8283V37.0048C178.2 36.7107 177.082 36.2989 175.787 36.2989C173.14 36.2989 170.493 37.7696 170.493 40.4759C170.493 42.9468 172.669 44.5352 175.081 44.5352C176.905 44.5352 177.964 43.7116 178.611 42.7115H178.729V44.1234H181.376V37.0637C181.376 33.7691 178.905 31.9453 175.787 31.9453L175.729 32.0042ZM175.376 42.1231C174.493 42.1231 173.199 41.6525 173.199 40.5347C173.199 39.1228 174.787 38.5933 176.14 38.5933C177.376 38.5933 177.905 38.8286 178.67 39.1816C178.435 40.8877 176.964 42.1231 175.376 42.1231ZM190.966 32.416L187.789 40.417H187.671L184.377 32.416H181.435L186.318 43.5939L183.494 49.83H186.377L193.966 32.4748H190.907L190.966 32.416ZM166.198 44.1822H168.963V25.7681H166.198V44.1822Z" fill="#364152"/>
<path d="M78.54 15.1196C78.54 16.3551 78.187 17.3552 77.4222 18.0612C76.5986 18.9437 75.4808 19.3555 74.1865 19.3555C72.8922 19.3555 71.8332 18.8848 70.9508 18.0024C70.0683 17.1199 69.5977 16.0021 69.5977 14.7078C69.5977 13.4135 70.0683 12.2957 70.9508 11.4133C71.8332 10.5308 72.951 10.0601 74.1865 10.0601C74.8336 10.0601 75.4219 10.1778 76.0103 10.4131C76.5986 10.6485 77.0692 11.0014 77.3634 11.4133L76.5986 12.1781C76.0103 11.4721 75.1866 11.1191 74.1865 11.1191C73.2452 11.1191 72.4216 11.4721 71.7744 12.1192C71.0684 12.7664 70.7743 13.6488 70.7743 14.649C70.7743 15.6491 71.1273 16.5316 71.7744 17.1787C72.4804 17.8259 73.2452 18.1789 74.1865 18.1789C75.1866 18.1789 76.0103 17.8259 76.6574 17.1787C77.0692 16.7669 77.3045 16.1786 77.4222 15.4138H74.1865V14.3548H78.4812C78.4812 14.3548 78.54 14.8255 78.54 15.002V15.1196Z" fill="#364152"/>
<path d="M85.3637 11.4133H81.3631V14.2372H85.0107V15.2961H81.3631V18.12H85.3637V19.179H80.1865V10.2955H85.3637V11.3545V11.4133Z" fill="#364152"/>
<path d="M90.1292 19.179H89.0114V11.4133H86.5405V10.3543H92.6001V11.4133H90.1292V19.179Z" fill="#364152"/>
<path d="M97.0137 19.179V10.2955H98.1315V19.1202H97.0137V19.179Z" fill="#364152"/>
<path d="M103.191 19.179H102.073V11.4133H99.6025V10.3543H105.662V11.4133H103.191V19.179Z" fill="#364152"/>
<path d="M117.192 18.0024C116.31 18.8848 115.251 19.3555 113.957 19.3555C112.662 19.3555 111.604 18.8848 110.721 18.0024C109.839 17.1199 109.427 16.0021 109.427 14.7078C109.427 13.4135 109.839 12.2957 110.721 11.4133C111.604 10.5308 112.662 10.0601 113.957 10.0601C115.251 10.0601 116.31 10.5308 117.192 11.4133C118.075 12.2957 118.487 13.4135 118.487 14.7078C118.487 16.0021 118.075 17.1199 117.192 18.0024ZM111.545 17.2376C112.192 17.8847 113.015 18.2377 113.957 18.2377C114.898 18.2377 115.722 17.8847 116.369 17.2376C117.016 16.5904 117.369 15.7079 117.369 14.7078C117.369 13.7077 117.016 12.8252 116.369 12.1781C115.722 11.5309 114.898 11.1779 113.957 11.1779C113.015 11.1779 112.192 11.5309 111.545 12.1781C110.898 12.8252 110.545 13.7077 110.545 14.7078C110.545 15.7079 110.898 16.5904 111.545 17.2376Z" fill="#364152"/>
<path d="M120.075 19.179V10.2955H121.428L125.723 17.1787V15.4726V10.2955H126.841V19.1202H125.664L121.193 11.8839V13.59V19.1202H120.075V19.179Z" fill="#364152"/>
<path d="M24.0629 11.1191C23.6511 11.5897 23.3569 12.2957 23.3569 13.1782V45.7706C23.3569 46.7119 23.5923 47.3591 24.0629 47.8297L24.1806 47.9474L42.4182 29.7097V29.2979L24.1806 11.0014L24.0629 11.1191Z" fill="url(#paint0_linear_4270_7712)"/>
<path d="M48.479 35.7693L42.4194 29.6509V29.239L48.479 23.1794H48.5967L55.8329 27.3564C57.892 28.5331 57.892 30.4157 55.8329 31.5923L48.5967 35.7105H48.479V35.7693Z" fill="url(#paint1_linear_4270_7712)"/>
<path d="M48.6549 35.7105L42.4188 29.4744L24.0635 47.8297C24.7695 48.5357 25.8872 48.6534 27.1227 47.9474L48.6549 35.7105Z" fill="url(#paint2_linear_4270_7712)"/>
<path d="M48.6549 23.2383L27.1227 11.0014C25.8872 10.2954 24.7106 10.3543 24.0635 11.1191L42.4188 29.4744L48.6549 23.2383Z" fill="url(#paint3_linear_4270_7712)"/>
<defs>
<linearGradient id="paint0_linear_4270_7712" x1="40.771" y1="12.884" x2="16.0619" y2="37.5931" gradientUnits="userSpaceOnUse">
<stop stop-color="#00A0FF"/>
<stop offset="0.26" stop-color="#00BDFF"/>
<stop offset="0.51" stop-color="#00D1FF"/>
<stop offset="0.76" stop-color="#00DEFF"/>
<stop offset="1" stop-color="#00E2FF"/>
</linearGradient>
<linearGradient id="paint1_linear_4270_7712" x1="58.5392" y1="29.5332" x2="22.8875" y2="29.5332" gradientUnits="userSpaceOnUse">
<stop stop-color="#FFDF00"/>
<stop offset="0.41" stop-color="#FFBC00"/>
<stop offset="0.78" stop-color="#FFA400"/>
<stop offset="1" stop-color="#FF9B00"/>
</linearGradient>
<linearGradient id="paint2_linear_4270_7712" x1="45.2427" y1="32.8866" x2="11.7089" y2="66.4204" gradientUnits="userSpaceOnUse">
<stop stop-color="#FF3A44"/>
<stop offset="1" stop-color="#C21162"/>
</linearGradient>
<linearGradient id="paint3_linear_4270_7712" x1="19.4158" y1="0.29412" x2="34.4178" y2="15.2961" gradientUnits="userSpaceOnUse">
<stop stop-color="#329F71"/>
<stop offset="0.07" stop-color="#2DA671"/>
<stop offset="0.48" stop-color="#15CE74"/>
<stop offset="0.8" stop-color="#06E675"/>
<stop offset="1" stop-color="#00EF76"/>
</linearGradient>
</defs>
</svg>
