<svg width="220" height="58" viewBox="0 0 220 58" fill="none" xmlns="http://www.w3.org/2000/svg">
<path d="M211.174 0H9.03025C4.15651 0 0.205566 3.95094 0.205566 8.82468V48.5357C0.205566 53.4095 4.15651 57.3604 9.03025 57.3604H211.174C216.048 57.3604 219.999 53.4095 219.999 48.5357V8.82468C219.999 3.95094 216.048 0 211.174 0Z" fill="white"/>
<path d="M128.46 28.2978V31.6512H126.342V33.8868H128.46V41.4172C128.46 44.0057 129.636 45.0059 132.519 45.0059C133.049 45.0059 133.519 44.947 133.931 44.8882V42.7114C133.578 42.7114 133.343 42.7703 132.931 42.7703C131.637 42.7703 131.048 42.182 131.048 40.77V33.9456H133.931V31.71H131.048V28.3566H128.401L128.46 28.2978Z" fill="#364152"/>
<path d="M141.461 45.1824C145.344 45.1824 147.756 42.5938 147.756 38.2403C147.756 33.8868 145.344 31.2982 141.461 31.2982C137.579 31.2982 135.167 33.8868 135.167 38.2403C135.167 42.5938 137.579 45.1824 141.461 45.1824ZM141.461 42.8291C139.167 42.8291 137.873 41.1819 137.873 38.2403C137.873 35.2987 139.167 33.6515 141.461 33.6515C143.756 33.6515 145.05 35.3576 145.05 38.2403C145.05 41.123 143.756 42.8291 141.461 42.8291Z" fill="#364152"/>
<path d="M149.757 44.9471H152.405V37.0637C152.405 35.1811 153.817 33.9456 155.817 33.9456C156.288 33.9456 157.052 34.0045 157.288 34.1221V31.5336C157.288 31.5336 156.523 31.4159 156.111 31.4159C154.346 31.4159 152.875 32.3572 152.522 33.6515H152.346V31.5924H149.816V44.8882L149.757 44.9471Z" fill="#364152"/>
<path d="M163.817 33.5926C165.758 33.5926 167.053 34.9458 167.111 37.0637H160.405C160.581 35.0046 161.934 33.5926 163.876 33.5926H163.817ZM167.111 41.3584C166.641 42.4173 165.523 42.9468 163.935 42.9468C161.817 42.9468 160.464 41.476 160.405 39.1228V38.9463H169.818V38.005C169.818 33.828 167.582 31.2982 163.876 31.2982C160.169 31.2982 157.757 34.0045 157.757 38.2403C157.757 42.4762 160.111 45.1236 163.935 45.1236C166.994 45.1236 169.112 43.6528 169.7 41.2407H167.17L167.111 41.3584Z" fill="#364152"/>
<path d="M111.22 40.0052C111.397 43.2998 114.162 45.3588 118.221 45.3588C122.575 45.3588 125.281 43.1821 125.281 39.6522C125.281 36.8872 123.751 35.3575 119.986 34.4751L117.986 34.0044C115.574 33.4749 114.632 32.7101 114.632 31.4159C114.632 29.7686 116.103 28.7096 118.398 28.7096C120.692 28.7096 121.986 29.7686 122.28 31.4747H125.046C124.869 28.4155 122.163 26.2387 118.456 26.2387C114.456 26.2387 111.809 28.4155 111.809 31.6512C111.809 34.3574 113.338 35.9459 116.633 36.7107L118.986 37.299C121.398 37.8873 122.457 38.7109 122.457 40.1229C122.457 41.7701 120.81 42.9468 118.515 42.9468C116.044 42.9468 114.397 41.829 114.103 40.1229H111.279L111.22 40.0052Z" fill="#364152"/>
<path d="M83.9834 31.4159C82.1596 31.4159 80.63 32.2984 79.8063 33.828H79.6298V31.6512H77.1001V49.4183H79.7475V42.9468H79.9828C80.6888 44.3588 82.1596 45.1824 84.101 45.1824C87.4544 45.1824 89.6311 42.535 89.6311 38.2992C89.6311 34.0633 87.5132 31.4159 84.101 31.4159H83.9834ZM83.2185 42.8292C81.0418 42.8292 79.6298 41.0642 79.6298 38.2992C79.6298 35.5341 81.0418 33.7692 83.2185 33.7692C85.3953 33.7692 86.8073 35.4753 86.8073 38.2992C86.8073 41.1231 85.4541 42.8292 83.2185 42.8292Z" fill="#364152"/>
<path d="M98.6909 31.4159C96.8671 31.4159 95.3375 32.2984 94.5139 33.828H94.3374V31.6512H91.8076V49.4183H94.455V42.9468H94.6904C95.3963 44.3588 96.8671 45.1824 98.8085 45.1824C102.162 45.1824 104.339 42.535 104.339 38.2992C104.339 34.0633 102.221 31.4159 98.8085 31.4159H98.6909ZM97.9261 42.8292C95.7493 42.8292 94.3374 41.0642 94.3374 38.2992C94.3374 35.5341 95.7493 33.7692 97.9261 33.7692C100.103 33.7692 101.515 35.4753 101.515 38.2992C101.515 41.1231 100.162 42.8292 97.9261 42.8292Z" fill="#364152"/>
<path d="M72.3342 44.9471H75.3346L68.7455 26.6506H65.6863L59.0972 44.9471H62.0387L63.7448 40.0641H70.7457L72.393 44.9471H72.3342ZM67.0982 29.9451H67.3335L69.9809 37.652H64.4508L67.0982 29.9451Z" fill="#364152"/>
<path d="M60.8604 12.8252V21.6499H64.0372C66.6846 21.6499 68.2143 20.0026 68.2143 17.2376C68.2143 14.4725 66.6846 12.8252 64.0372 12.8252H60.8604ZM62.2135 14.0607H63.8607C65.6845 14.0607 66.8023 15.2373 66.8023 17.2376C66.8023 19.2378 65.7433 20.4145 63.8607 20.4145H62.2135V14.0607Z" fill="#364152"/>
<path d="M72.8637 21.7675C74.8051 21.7675 75.9817 20.4732 75.9817 18.2965C75.9817 16.1197 74.8051 14.8254 72.8637 14.8254C70.9222 14.8254 69.7456 16.1197 69.7456 18.2965C69.7456 20.4732 70.9222 21.7675 72.8637 21.7675ZM72.8637 20.5909C71.7459 20.5909 71.0987 19.7672 71.0987 18.2965C71.0987 16.8257 71.7459 16.0021 72.8637 16.0021C73.9815 16.0021 74.6286 16.8257 74.6286 18.2965C74.6286 19.7672 73.9815 20.5909 72.8637 20.5909Z" fill="#364152"/>
<path d="M86.1596 15.0019H84.8653L83.6887 20.0614H83.571L82.2179 15.0019H80.9825L79.6293 20.0614H79.5117L78.3351 15.0019H76.9819L78.8057 21.6499H80.1588L81.5119 16.7669H81.6296L82.9827 21.6499H84.3358L86.1596 15.0019Z" fill="#364152"/>
<path d="M87.688 21.6499H88.9822V17.767C88.9822 16.708 89.6294 16.0609 90.5707 16.0609C91.512 16.0609 91.9827 16.5904 91.9827 17.6493V21.6499H93.2769V17.3552C93.2769 15.7667 92.4533 14.8843 90.9825 14.8843C89.9824 14.8843 89.3352 15.3549 88.9822 16.0609H88.8646V15.0019H87.5703V21.6499H87.688Z" fill="#364152"/>
<path d="M95.3955 21.6499H96.6898V12.4134H95.3955V21.6499Z" fill="#364152"/>
<path d="M101.69 21.7675C103.632 21.7675 104.808 20.4732 104.808 18.2965C104.808 16.1197 103.632 14.8254 101.69 14.8254C99.7489 14.8254 98.5723 16.1197 98.5723 18.2965C98.5723 20.4732 99.7489 21.7675 101.69 21.7675ZM101.69 20.5909C100.573 20.5909 99.9254 19.7672 99.9254 18.2965C99.9254 16.8257 100.573 16.0021 101.69 16.0021C102.808 16.0021 103.455 16.8257 103.455 18.2965C103.455 19.7672 102.808 20.5909 101.69 20.5909Z" fill="#364152"/>
<path d="M108.751 20.6497C108.045 20.6497 107.515 20.2967 107.515 19.7084C107.515 19.1201 107.927 18.826 108.868 18.7671L110.516 18.6495V19.1789C110.516 20.0026 109.81 20.6497 108.81 20.6497H108.751ZM108.398 21.7675C109.28 21.7675 109.986 21.4145 110.398 20.7086H110.516V21.6499H111.81V17.1199C111.81 15.7079 110.869 14.8843 109.221 14.8843C107.692 14.8843 106.633 15.5902 106.515 16.7669H107.809C107.927 16.2962 108.457 16.0021 109.221 16.0021C110.104 16.0021 110.574 16.4139 110.574 17.1199V17.7082L108.751 17.8258C107.162 17.9435 106.28 18.5906 106.28 19.8261C106.28 21.0615 107.221 21.8263 108.515 21.8263L108.398 21.7675Z" fill="#364152"/>
<path d="M116.221 21.7675C117.162 21.7675 117.927 21.3557 118.339 20.5909H118.456V21.6499H119.692V12.4134H118.397V16.0609H118.28C117.927 15.3549 117.162 14.8843 116.221 14.8843C114.515 14.8843 113.456 16.2374 113.456 18.2965C113.456 20.3556 114.515 21.7675 116.221 21.7675ZM116.574 16.0609C117.691 16.0609 118.339 16.9434 118.339 18.2965C118.339 19.6496 117.633 20.5321 116.574 20.5321C115.515 20.5321 114.809 19.7084 114.809 18.2965C114.809 16.8845 115.456 16.0609 116.574 16.0609Z" fill="#364152"/>
<path d="M128.223 21.7675C130.164 21.7675 131.341 20.4732 131.341 18.2965C131.341 16.1197 130.164 14.8254 128.223 14.8254C126.281 14.8254 125.104 16.1197 125.104 18.2965C125.104 20.4732 126.281 21.7675 128.223 21.7675ZM128.223 20.5909C127.105 20.5909 126.458 19.7672 126.458 18.2965C126.458 16.8257 127.105 16.0021 128.223 16.0021C129.34 16.0021 129.987 16.8257 129.987 18.2965C129.987 19.7672 129.34 20.5909 128.223 20.5909Z" fill="#364152"/>
<path d="M133.107 21.6499H134.402V17.767C134.402 16.708 135.049 16.0609 135.99 16.0609C136.931 16.0609 137.402 16.5904 137.402 17.6493V21.6499H138.696V17.3552C138.696 15.7667 137.873 14.8843 136.402 14.8843C135.402 14.8843 134.755 15.3549 134.402 16.0609H134.284V15.0019H132.99V21.6499H133.107Z" fill="#364152"/>
<path d="M144.814 13.3546V15.0607H143.755V16.1785H144.814V19.9437C144.814 21.238 145.403 21.7675 146.873 21.7675C147.109 21.7675 147.403 21.7675 147.579 21.7087V20.5909C147.579 20.5909 147.285 20.5909 147.05 20.5909C146.403 20.5909 146.109 20.2967 146.109 19.5907V16.1785H147.579V15.0607H146.109V13.3546H144.814Z" fill="#364152"/>
<path d="M149.343 21.6499H150.638V17.767C150.638 16.7669 151.226 16.0609 152.285 16.0609C153.226 16.0609 153.697 16.5904 153.697 17.6493V21.6499H154.991V17.3552C154.991 15.7668 154.109 14.8843 152.697 14.8843C151.697 14.8843 150.991 15.3549 150.638 16.0609H150.52V12.4134H149.226V21.6499H149.343Z" fill="#364152"/>
<path d="M159.817 16.0021C160.817 16.0021 161.405 16.708 161.464 17.7082H158.11C158.169 16.6492 158.875 16.0021 159.817 16.0021ZM161.464 19.8849C161.228 20.4144 160.699 20.7086 159.875 20.7086C158.816 20.7086 158.169 19.9438 158.11 18.826L162.817 18.7671V18.2965C162.817 16.1786 161.699 14.9431 159.817 14.9431C157.934 14.9431 156.757 16.2962 156.757 18.4141C156.757 20.5321 157.934 21.8264 159.817 21.8264C161.346 21.8264 162.405 21.1204 162.699 19.8849H161.405H161.464Z" fill="#364152"/>
<path d="M44.8012 29.9451C44.8012 27.4742 46.1543 25.1209 48.2722 23.8266C46.9191 21.944 44.6835 20.7086 42.3891 20.6497C39.9182 20.4144 37.5061 22.1205 36.2706 22.1205C35.0352 22.1205 33.0349 20.6497 30.9758 20.7086C28.2696 20.7674 25.681 22.3559 24.3867 24.7091C21.5628 29.6509 23.6808 36.8872 26.387 40.8877C27.7401 42.8291 29.3286 45.0059 31.4465 44.947C33.5056 44.8882 34.2704 43.6527 36.7413 43.6527C39.2122 43.6527 39.9182 44.947 42.0361 44.8882C44.2128 44.8882 45.6248 42.9468 46.9191 40.9465C47.9192 39.5346 48.684 38.005 49.1547 36.4165C46.5661 35.2987 44.86 32.7101 44.86 29.9451H44.8012Z" fill="#364152"/>
<path d="M40.8005 18.0024C41.9771 16.5904 42.5654 14.7078 42.4478 12.8841C40.624 13.0606 38.9179 13.943 37.7413 15.355C36.5647 16.7081 35.9175 18.5319 36.0352 20.2968C37.8589 20.2968 39.6827 19.4732 40.8005 18.0612V18.0024Z" fill="#364152"/>
</svg>
