<svg width="218" height="58" viewBox="0 0 218 58" fill="none" xmlns="http://www.w3.org/2000/svg">
<path d="M0 7.99999C0 3.58171 3.58172 0 8 0H210C214.418 0 218 3.58172 218 8V57.3604H0V7.99999Z" fill="white"/>
<path d="M138.411 25.8844V29.2378H136.293V31.4734H138.411V39.0038C138.411 41.5924 139.588 42.5925 142.47 42.5925C143 42.5925 143.47 42.5337 143.882 42.4748V40.2981C143.529 40.2981 143.294 40.3569 142.882 40.3569C141.588 40.3569 140.999 39.7686 140.999 38.3566V31.5322H143.882V29.2966H140.999V25.9433H138.352L138.411 25.8844Z" fill="#364152"/>
<path d="M151.413 42.769C155.295 42.769 157.708 40.1804 157.708 35.8269C157.708 31.4734 155.295 28.8849 151.413 28.8849C147.53 28.8849 145.118 31.4734 145.118 35.8269C145.118 40.1804 147.53 42.769 151.413 42.769ZM151.413 40.4158C149.118 40.4158 147.824 38.7685 147.824 35.8269C147.824 32.8854 149.118 31.2381 151.413 31.2381C153.707 31.2381 155.001 32.9442 155.001 35.8269C155.001 38.7097 153.707 40.4158 151.413 40.4158Z" fill="#364152"/>
<path d="M159.708 42.5337H162.356V34.6503C162.356 32.7677 163.768 31.5323 165.768 31.5323C166.239 31.5323 167.004 31.5911 167.239 31.7088V29.1202C167.239 29.1202 166.474 29.0025 166.062 29.0025C164.297 29.0025 162.827 29.9438 162.474 31.2381H162.297V29.179H159.767V42.4749L159.708 42.5337Z" fill="#364152"/>
<path d="M173.768 31.1793C175.71 31.1793 177.004 32.5324 177.063 34.6503H170.356C170.532 32.5912 171.886 31.1793 173.827 31.1793H173.768ZM177.063 38.945C176.592 40.004 175.474 40.5334 173.886 40.5334C171.768 40.5334 170.415 39.0627 170.356 36.7094V36.5329H179.769V35.5916C179.769 31.4146 177.533 28.8849 173.827 28.8849C170.121 28.8849 167.708 31.5911 167.708 35.8269C167.708 40.0628 170.062 42.7102 173.886 42.7102C176.945 42.7102 179.063 41.2394 179.651 38.8273H177.121L177.063 38.945Z" fill="#364152"/>
<path d="M121.171 37.5918C121.348 40.8864 124.113 42.9455 128.172 42.9455C132.526 42.9455 135.232 40.7687 135.232 37.2388C135.232 34.4738 133.702 32.9442 129.937 32.0617L127.937 31.5911C125.525 31.0616 124.584 30.2968 124.584 29.0025C124.584 27.3552 126.054 26.2962 128.349 26.2962C130.643 26.2962 131.938 27.3552 132.232 29.0613H134.997C134.82 26.0021 132.114 23.8253 128.408 23.8253C124.407 23.8253 121.76 26.0021 121.76 29.2378C121.76 31.944 123.289 33.5325 126.584 34.2973L128.937 34.8856C131.349 35.4739 132.408 36.2975 132.408 37.7095C132.408 39.3568 130.761 40.5334 128.466 40.5334C125.996 40.5334 124.348 39.4156 124.054 37.7095H121.23L121.171 37.5918Z" fill="#364152"/>
<path d="M93.9345 29.0025C92.1108 29.0025 90.5812 29.885 89.7575 31.4146H89.581V29.2379H87.0513V47.0049H89.6987V40.5334H89.934C90.64 41.9454 92.1108 42.769 94.0522 42.769C97.4056 42.769 99.5823 40.1216 99.5823 35.8858C99.5823 31.6499 97.4644 29.0025 94.0522 29.0025H93.9345ZM93.1697 40.4158C90.993 40.4158 89.581 38.6509 89.581 35.8858C89.581 33.1207 90.993 31.3558 93.1697 31.3558C95.3465 31.3558 96.7584 33.0619 96.7584 35.8858C96.7584 38.7097 95.4053 40.4158 93.1697 40.4158Z" fill="#364152"/>
<path d="M108.642 29.0025C106.818 29.0025 105.289 29.885 104.465 31.4146H104.289V29.2379H101.759V47.0049H104.406V40.5334H104.642C105.348 41.9454 106.818 42.769 108.76 42.769C112.113 42.769 114.29 40.1216 114.29 35.8858C114.29 31.6499 112.172 29.0025 108.76 29.0025H108.642ZM107.877 40.4158C105.7 40.4158 104.289 38.6509 104.289 35.8858C104.289 33.1207 105.7 31.3558 107.877 31.3558C110.054 31.3558 111.466 33.0619 111.466 35.8858C111.466 38.7097 110.113 40.4158 107.877 40.4158Z" fill="#364152"/>
<path d="M82.2854 42.5337H85.2857L78.6967 24.2372H75.6374L69.0483 42.5337H71.9899L73.696 37.6507H80.6969L82.3442 42.5337H82.2854ZM77.0494 27.5317H77.2847L79.9321 35.2386H74.402L77.0494 27.5317Z" fill="#364152"/>
<path d="M70.8115 10.4119V19.2365H73.9884C76.6358 19.2365 78.1654 17.5893 78.1654 14.8242C78.1654 12.0591 76.6358 10.4119 73.9884 10.4119H70.8115ZM72.1646 11.6473H73.8119C75.6357 11.6473 76.7535 12.8239 76.7535 14.8242C76.7535 16.8245 75.6945 18.0011 73.8119 18.0011H72.1646V11.6473Z" fill="#364152"/>
<path d="M82.8148 19.3541C84.7563 19.3541 85.9329 18.0599 85.9329 15.8831C85.9329 13.7063 84.7563 12.4121 82.8148 12.4121C80.8734 12.4121 79.6968 13.7063 79.6968 15.8831C79.6968 18.0599 80.8734 19.3541 82.8148 19.3541ZM82.8148 18.1775C81.6971 18.1775 81.0499 17.3539 81.0499 15.8831C81.0499 14.4123 81.6971 13.5887 82.8148 13.5887C83.9326 13.5887 84.5798 14.4123 84.5798 15.8831C84.5798 17.3539 83.9326 18.1775 82.8148 18.1775Z" fill="#364152"/>
<path d="M96.1108 12.5886H94.8165L93.6399 17.6481H93.5222L92.1691 12.5886H90.9336L89.5805 17.6481H89.4628L88.2862 12.5886H86.9331L88.7569 19.2365H90.11L91.4631 14.3535H91.5808L92.9339 19.2365H94.287L96.1108 12.5886Z" fill="#364152"/>
<path d="M97.6391 19.2365H98.9334V15.3536C98.9334 14.2947 99.5806 13.6475 100.522 13.6475C101.463 13.6475 101.934 14.177 101.934 15.236V19.2365H103.228V14.9418C103.228 13.3534 102.404 12.4709 100.934 12.4709C99.9336 12.4709 99.2864 12.9415 98.9334 13.6475H98.8158V12.5886H97.5215V19.2365H97.6391Z" fill="#364152"/>
<path d="M105.347 19.2365H106.641V10H105.347V19.2365Z" fill="#364152"/>
<path d="M111.641 19.3541C113.583 19.3541 114.76 18.0599 114.76 15.8831C114.76 13.7063 113.583 12.4121 111.641 12.4121C109.7 12.4121 108.523 13.7063 108.523 15.8831C108.523 18.0599 109.7 19.3541 111.641 19.3541ZM111.641 18.1775C110.524 18.1775 109.877 17.3539 109.877 15.8831C109.877 14.4123 110.524 13.5887 111.641 13.5887C112.759 13.5887 113.406 14.4123 113.406 15.8831C113.406 17.3539 112.759 18.1775 111.641 18.1775Z" fill="#364152"/>
<path d="M118.702 18.2364C117.996 18.2364 117.466 17.8834 117.466 17.2951C117.466 16.7067 117.878 16.4126 118.82 16.3538L120.467 16.2361V16.7656C120.467 17.5892 119.761 18.2364 118.761 18.2364H118.702ZM118.349 19.3541C119.231 19.3541 119.937 19.0012 120.349 18.2952H120.467V19.2365H121.761V14.7065C121.761 13.2945 120.82 12.4709 119.173 12.4709C117.643 12.4709 116.584 13.1769 116.466 14.3535H117.761C117.878 13.8828 118.408 13.5887 119.173 13.5887C120.055 13.5887 120.526 14.0005 120.526 14.7065V15.2948L118.702 15.4125C117.113 15.5301 116.231 16.1773 116.231 17.4127C116.231 18.6482 117.172 19.413 118.467 19.413L118.349 19.3541Z" fill="#364152"/>
<path d="M126.172 19.3542C127.113 19.3542 127.878 18.9423 128.29 18.1775H128.407V19.2365H129.643V10H128.349V13.6475H128.231C127.878 12.9416 127.113 12.4709 126.172 12.4709C124.466 12.4709 123.407 13.824 123.407 15.8831C123.407 17.9422 124.466 19.3542 126.172 19.3542ZM126.525 13.6475C127.643 13.6475 128.29 14.53 128.29 15.8831C128.29 17.2362 127.584 18.1187 126.525 18.1187C125.466 18.1187 124.76 17.2951 124.76 15.8831C124.76 14.4712 125.407 13.6475 126.525 13.6475Z" fill="#364152"/>
<path d="M138.174 19.3541C140.115 19.3541 141.292 18.0599 141.292 15.8831C141.292 13.7063 140.115 12.4121 138.174 12.4121C136.232 12.4121 135.056 13.7063 135.056 15.8831C135.056 18.0599 136.232 19.3541 138.174 19.3541ZM138.174 18.1775C137.056 18.1775 136.409 17.3539 136.409 15.8831C136.409 14.4123 137.056 13.5887 138.174 13.5887C139.292 13.5887 139.939 14.4123 139.939 15.8831C139.939 17.3539 139.292 18.1775 138.174 18.1775Z" fill="#364152"/>
<path d="M143.059 19.2365H144.353V15.3536C144.353 14.2947 145 13.6475 145.941 13.6475C146.883 13.6475 147.353 14.177 147.353 15.236V19.2365H148.648V14.9418C148.648 13.3534 147.824 12.4709 146.353 12.4709C145.353 12.4709 144.706 12.9415 144.353 13.6475H144.235V12.5886H142.941V19.2365H143.059Z" fill="#364152"/>
<path d="M154.766 10.9413V12.6474H153.707V13.7652H154.766V17.5304C154.766 18.8246 155.354 19.3541 156.825 19.3541C157.06 19.3541 157.354 19.3541 157.531 19.2953V18.1775C157.531 18.1775 157.236 18.1775 157.001 18.1775C156.354 18.1775 156.06 17.8833 156.06 17.1774V13.7652H157.531V12.6474H156.06V10.9413H154.766Z" fill="#364152"/>
<path d="M159.294 19.2365H160.589V15.3536C160.589 14.3535 161.177 13.6475 162.236 13.6475C163.177 13.6475 163.648 14.177 163.648 15.236V19.2365H164.942V14.9418C164.942 13.3534 164.06 12.4709 162.648 12.4709C161.648 12.4709 160.942 12.9416 160.589 13.6475H160.471V10H159.177V19.2365H159.294Z" fill="#364152"/>
<path d="M169.768 13.5887C170.768 13.5887 171.356 14.2947 171.415 15.2948H168.062C168.12 14.2358 168.826 13.5887 169.768 13.5887ZM171.415 17.4716C171.18 18.001 170.65 18.2952 169.827 18.2952C168.768 18.2952 168.12 17.5304 168.062 16.4126L172.768 16.3538V15.8831C172.768 13.7652 171.65 12.5297 169.768 12.5297C167.885 12.5297 166.708 13.8829 166.708 16.0008C166.708 18.1187 167.885 19.413 169.768 19.413C171.297 19.413 172.356 18.707 172.65 17.4716H171.356H171.415Z" fill="#364152"/>
<path d="M54.7523 27.5317C54.7523 25.0608 56.1055 22.7075 58.2234 21.4133C56.8703 19.5307 54.6347 18.2952 52.3403 18.2364C49.8693 18.0011 47.4573 19.7072 46.2218 19.7072C44.9864 19.7072 42.9861 18.2364 40.927 18.2952C38.2208 18.354 35.6322 19.9425 34.3379 22.2957C31.514 27.2375 33.6319 34.4738 36.3382 38.4743C37.6913 40.4157 39.2797 42.5925 41.3977 42.5337C43.4567 42.4748 44.2215 41.2394 46.6924 41.2394C49.1634 41.2394 49.8693 42.5337 51.9873 42.4748C54.164 42.4748 55.576 40.5334 56.8703 38.5331C57.8704 37.1212 58.6352 35.5916 59.1058 34.0031C56.5173 32.8853 54.8112 30.2968 54.8112 27.5317H54.7523Z" fill="#364152"/>
<path d="M50.7517 15.589C51.9283 14.1771 52.5166 12.2945 52.3989 10.4707C50.5752 10.6472 48.8691 11.5297 47.6925 12.9416C46.5158 14.2947 45.8687 16.1185 45.9863 17.8834C47.8101 17.8834 49.6339 17.0598 50.7517 15.6478V15.589Z" fill="#364152"/>
</svg>
