<svg width="218" height="57" viewBox="0 0 218 57" fill="none" xmlns="http://www.w3.org/2000/svg">
<path d="M0 8C0 3.58172 3.58172 0 8 0H210C214.418 0 218 3.58172 218 8V57H0V8Z" fill="white"/>
<path d="M108.716 32.0029C105.245 32.0029 102.421 34.6503 102.421 38.2978C102.421 41.9453 105.245 44.5927 108.716 44.5927C112.187 44.5927 115.011 41.9453 115.011 38.2978C115.011 34.6503 112.187 32.0029 108.716 32.0029ZM108.716 42.063C106.833 42.063 105.186 40.4746 105.186 38.239C105.186 36.0034 106.833 34.4149 108.716 34.4149C110.599 34.4149 112.246 35.9446 112.246 38.239C112.246 40.5334 110.599 42.063 108.716 42.063ZM95.0082 32.0029C91.5372 32.0029 88.7133 34.6503 88.7133 38.2978C88.7133 41.9453 91.5372 44.5927 95.0082 44.5927C98.4793 44.5927 101.303 41.9453 101.303 38.2978C101.303 34.6503 98.4793 32.0029 95.0082 32.0029ZM95.0082 42.063C93.1256 42.063 91.4784 40.4746 91.4784 38.239C91.4784 36.0034 93.1256 34.4149 95.0082 34.4149C96.8908 34.4149 98.5381 35.9446 98.5381 38.239C98.5381 40.4746 96.8908 42.063 95.0082 42.063ZM78.6532 33.9443V36.5917H85.0069C84.8305 38.0625 84.301 39.1803 83.5362 39.9451C82.5949 40.8864 81.1829 41.8865 78.5943 41.8865C74.6527 41.8865 71.5934 38.7096 71.5934 34.8268C71.5934 30.9439 74.6527 27.767 78.5943 27.767C80.7123 27.767 82.2419 28.5907 83.4185 29.6496L85.3011 27.767C83.7127 26.2374 81.5947 25.0608 78.6532 25.0608C73.2995 25.0608 68.7695 29.4143 68.7695 34.7679C68.7695 40.1216 73.2995 44.5339 78.6532 44.5339C81.5359 44.5339 83.7127 43.5926 85.4188 41.8277C87.1837 40.0627 87.7132 37.5918 87.7132 35.5916C87.7132 35.0033 87.7132 34.4149 87.5955 33.9443H78.6532ZM145.427 36.0034C144.897 34.5914 143.309 32.0029 140.073 32.0029C136.837 32.0029 134.131 34.5326 134.131 38.2978C134.131 41.8277 136.778 44.5927 140.367 44.5927C143.25 44.5927 144.897 42.8278 145.603 41.8277L143.485 40.4157C142.779 41.4747 141.779 42.1218 140.367 42.1218C138.955 42.1218 137.955 41.4747 137.308 40.2392L145.662 36.7682L145.368 36.0622L145.427 36.0034ZM136.896 38.1213C136.837 35.7092 138.779 34.4738 140.191 34.4738C141.308 34.4738 142.191 35.0033 142.544 35.8269L136.955 38.1801L136.896 38.1213ZM130.072 44.1809H132.837V25.7668H130.072V44.1809ZM125.542 33.4148H125.424C124.777 32.65 123.6 32.0029 122.129 32.0029C119.011 32.0029 116.129 34.7679 116.129 38.2978C116.129 41.8277 119.011 44.5339 122.129 44.5339C123.6 44.5339 124.836 43.8868 125.424 43.122H125.542V44.0044C125.542 46.4165 124.247 47.7108 122.188 47.7108C120.482 47.7108 119.482 46.4753 119.011 45.4752L116.599 46.4753C117.305 48.1226 119.129 50.1817 122.129 50.1817C125.365 50.1817 128.071 48.2991 128.071 43.6514V32.4147H125.483V33.4148H125.542ZM122.365 42.063C120.482 42.063 118.894 40.4746 118.894 38.2978C118.894 36.121 120.482 34.4738 122.365 34.4738C124.247 34.4738 125.718 36.0622 125.718 38.2978C125.718 40.5334 124.247 42.063 122.365 42.063ZM158.311 25.7079H151.722V44.1221H154.487V37.1212H158.311C161.37 37.1212 164.37 34.9444 164.37 31.4145C164.37 27.8847 161.37 25.7079 158.311 25.7079ZM158.369 34.5914H154.487V28.2965H158.369C160.429 28.2965 161.605 30.0026 161.605 31.4734C161.605 32.9442 160.429 34.6503 158.369 34.6503V34.5914ZM175.372 31.944C173.371 31.944 171.312 32.8265 170.489 34.7679L172.901 35.7681C173.43 34.7679 174.372 34.4149 175.43 34.4149C176.842 34.4149 178.313 35.2386 178.313 36.7682V36.9447C177.843 36.6505 176.725 36.2387 175.43 36.2387C172.783 36.2387 170.136 37.7095 170.136 40.4157C170.136 42.8866 172.312 44.4751 174.725 44.4751C176.548 44.4751 177.607 43.6514 178.254 42.6513H178.372V44.0633H181.019V37.0035C181.019 33.709 178.549 31.8852 175.43 31.8852L175.372 31.944ZM175.019 42.063C174.136 42.063 172.842 41.5923 172.842 40.4746C172.842 39.0626 174.43 38.5331 175.783 38.5331C177.019 38.5331 177.548 38.7684 178.313 39.1214C178.078 40.8275 176.607 42.063 175.019 42.063ZM190.609 32.3559L187.432 40.3569H187.314L184.02 32.3559H181.078L185.961 43.5338L183.137 49.7699H186.02L193.609 32.4147H190.55L190.609 32.3559ZM165.841 44.1221H168.606V25.7079H165.841V44.1221Z" fill="#364152"/>
<path d="M78.1831 15.0595C78.1831 16.2949 77.8301 17.2951 77.0653 18.001C76.2416 18.8835 75.1238 19.2953 73.8296 19.2953C72.5353 19.2953 71.4763 18.8247 70.5938 17.9422C69.7114 17.0597 69.2407 15.942 69.2407 14.6477C69.2407 13.3534 69.7114 12.2356 70.5938 11.3531C71.4763 10.4706 72.5941 10 73.8296 10C74.4767 10 75.065 10.1177 75.6533 10.353C76.2416 10.5883 76.7123 10.9413 77.0064 11.3531L76.2416 12.1179C75.6533 11.4119 74.8297 11.059 73.8296 11.059C72.8883 11.059 72.0646 11.4119 71.4175 12.0591C70.7115 12.7062 70.4173 13.5887 70.4173 14.5888C70.4173 15.589 70.7703 16.4714 71.4175 17.1186C72.1235 17.7657 72.8883 18.1187 73.8296 18.1187C74.8297 18.1187 75.6533 17.7657 76.3005 17.1186C76.7123 16.7068 76.9476 16.1184 77.0653 15.3536H73.8296V14.2947H78.1242C78.1242 14.2947 78.1831 14.7653 78.1831 14.9418V15.0595Z" fill="#364152"/>
<path d="M85.0067 11.3531H81.0062V14.177H84.6537V15.236H81.0062V18.0599H85.0067V19.1189H79.8296V10.2353H85.0067V11.2943V11.3531Z" fill="#364152"/>
<path d="M89.7723 19.1189H88.6545V11.3531H86.1836V10.2942H92.2432V11.3531H89.7723V19.1189Z" fill="#364152"/>
<path d="M96.6567 19.1189V10.2353H97.7745V19.06H96.6567V19.1189Z" fill="#364152"/>
<path d="M102.834 19.1189H101.717V11.3531H99.2456V10.2942H105.305V11.3531H102.834V19.1189Z" fill="#364152"/>
<path d="M116.836 17.9422C115.953 18.8247 114.894 19.2953 113.6 19.2953C112.306 19.2953 111.247 18.8247 110.364 17.9422C109.482 17.0597 109.07 15.942 109.07 14.6477C109.07 13.3534 109.482 12.2356 110.364 11.3531C111.247 10.4706 112.306 10 113.6 10C114.894 10 115.953 10.4706 116.836 11.3531C117.718 12.2356 118.13 13.3534 118.13 14.6477C118.13 15.942 117.718 17.0597 116.836 17.9422ZM111.188 17.1774C111.835 17.8245 112.659 18.1775 113.6 18.1775C114.541 18.1775 115.365 17.8245 116.012 17.1774C116.659 16.5303 117.012 15.6478 117.012 14.6477C117.012 13.6475 116.659 12.7651 116.012 12.1179C115.365 11.4708 114.541 11.1178 113.6 11.1178C112.659 11.1178 111.835 11.4708 111.188 12.1179C110.541 12.7651 110.188 13.6475 110.188 14.6477C110.188 15.6478 110.541 16.5303 111.188 17.1774Z" fill="#364152"/>
<path d="M119.718 19.1189V10.2353H121.071L125.366 17.1186V15.4125V10.2353H126.484V19.06H125.307L120.836 11.8238V13.5299V19.06H119.718V19.1189Z" fill="#364152"/>
<path d="M23.706 11.0589C23.2942 11.5296 23 12.2355 23 13.118V45.7105C23 46.6518 23.2353 47.2989 23.706 47.7696L23.8236 47.8873L42.0613 29.6496V29.2378L23.8236 10.9413L23.706 11.0589Z" fill="url(#paint0_linear_4270_7722)"/>
<path d="M48.1221 35.7092L42.0625 29.5907V29.1789L48.1221 23.1193H48.2398L55.476 27.2963C57.5351 28.4729 57.5351 30.3555 55.476 31.5321L48.2398 35.6503H48.1221V35.7092Z" fill="url(#paint1_linear_4270_7722)"/>
<path d="M48.298 35.6504L42.0619 29.4143L23.7065 47.7696C24.4125 48.4756 25.5303 48.5932 26.7658 47.8873L48.298 35.6504Z" fill="url(#paint2_linear_4270_7722)"/>
<path d="M48.298 23.1781L26.7658 10.9413C25.5303 10.2353 24.3537 10.2941 23.7065 11.0589L42.0619 29.4143L48.298 23.1781Z" fill="url(#paint3_linear_4270_7722)"/>
<defs>
<linearGradient id="paint0_linear_4270_7722" x1="40.414" y1="12.8239" x2="15.7049" y2="37.533" gradientUnits="userSpaceOnUse">
<stop stop-color="#00A0FF"/>
<stop offset="0.26" stop-color="#00BDFF"/>
<stop offset="0.51" stop-color="#00D1FF"/>
<stop offset="0.76" stop-color="#00DEFF"/>
<stop offset="1" stop-color="#00E2FF"/>
</linearGradient>
<linearGradient id="paint1_linear_4270_7722" x1="58.1822" y1="29.4731" x2="22.5305" y2="29.4731" gradientUnits="userSpaceOnUse">
<stop stop-color="#FFDF00"/>
<stop offset="0.41" stop-color="#FFBC00"/>
<stop offset="0.78" stop-color="#FFA400"/>
<stop offset="1" stop-color="#FF9B00"/>
</linearGradient>
<linearGradient id="paint2_linear_4270_7722" x1="44.8858" y1="32.8265" x2="11.352" y2="66.3603" gradientUnits="userSpaceOnUse">
<stop stop-color="#FF3A44"/>
<stop offset="1" stop-color="#C21162"/>
</linearGradient>
<linearGradient id="paint3_linear_4270_7722" x1="19.0589" y1="0.233974" x2="34.0608" y2="15.2359" gradientUnits="userSpaceOnUse">
<stop stop-color="#329F71"/>
<stop offset="0.07" stop-color="#2DA671"/>
<stop offset="0.48" stop-color="#15CE74"/>
<stop offset="0.8" stop-color="#06E675"/>
<stop offset="1" stop-color="#00EF76"/>
</linearGradient>
</defs>
</svg>
