<svg width="145" height="53" viewBox="0 0 145 53" fill="none" xmlns="http://www.w3.org/2000/svg">
<path fill-rule="evenodd" clip-rule="evenodd" d="M32.3518 2.04837C33.4897 2.34529 34.0719 3.56964 33.6825 4.67918L26.4891 25.1715C26.4045 25.4125 26.1386 25.5316 25.8834 25.5215C25.6282 25.5114 25.3724 25.3717 25.3072 25.1248L19.7555 4.12809C19.455 2.99124 20.1322 1.81673 21.2899 1.61065C24.9653 0.95639 28.7396 1.10574 32.3518 2.04837ZM13.0074 4.60859C14.0288 4.02591 15.3008 4.49488 15.7975 5.56075L24.9962 25.2999C25.0903 25.5018 24.998 25.7384 24.827 25.8813C24.6561 26.0242 24.4068 26.0729 24.2248 25.9444L6.43414 13.3849C5.47349 12.7068 5.23799 11.3717 5.99287 10.47C7.96437 8.11529 10.3398 6.13034 13.0074 4.60859ZM4.37306 16.9148C3.31029 16.4116 2.03182 16.8627 1.61765 17.9633C0.697853 20.4074 0.153535 22.9769 0.00328804 25.5841C-0.0643662 26.7581 0.921362 27.6888 2.09692 27.6597L23.9086 27.1194C24.1086 27.1145 24.2625 26.9462 24.304 26.7504C24.3455 26.5547 24.273 26.3385 24.0921 26.2528L4.37306 16.9148ZM0.906961 34.0046C0.591739 32.8717 1.35752 31.753 2.51249 31.532L23.9887 27.4228C24.1595 27.3901 24.3216 27.5041 24.388 27.6648C24.4544 27.8254 24.4201 28.0206 24.2761 28.118L6.16623 40.3715C5.1923 41.0304 3.86013 40.7789 3.28348 39.7541C2.26285 37.9402 1.46488 36.0097 0.906961 34.0046ZM9.04069 43.8533C8.20919 44.6848 8.20388 46.0405 9.10094 46.8008C10.4559 47.9492 11.9255 48.9549 13.4866 49.8021C14.5201 50.363 15.7819 49.8672 16.2559 48.791L25.0807 28.7551C25.1447 28.6098 25.0767 28.4422 24.9457 28.3526C24.8147 28.2629 24.6338 28.2602 24.5215 28.3725L9.04069 43.8533ZM21.5376 52.5762C20.3779 52.3814 19.6894 51.2135 19.9789 50.0738L25.3521 28.9216C25.4007 28.7307 25.5957 28.6197 25.7927 28.6234C25.9897 28.6271 26.1804 28.7454 26.2217 28.9381L30.792 50.2781C31.0383 51.428 30.3061 52.569 29.1399 52.7199C26.6126 53.0468 24.0507 52.9984 21.5376 52.5762ZM34.6851 49.0873C35.1242 50.1781 36.3694 50.7142 37.4205 50.1869C40.1909 48.7967 42.6892 46.9196 44.7955 44.6455C45.5945 43.7828 45.4261 42.4376 44.5006 41.7122L27.3628 28.2797C27.1863 28.1414 26.9334 28.1779 26.7541 28.3125C26.5749 28.4472 26.4694 28.68 26.5531 28.888L34.6851 49.0873ZM49.71 36.9809C49.2594 38.0671 47.9666 38.4755 46.9212 37.9371L27.6047 27.99C27.3821 27.8754 27.3021 27.6011 27.3477 27.3548C27.3934 27.1085 27.5663 26.8811 27.8153 26.8538L49.4135 24.4897C50.5824 24.3618 51.643 25.2064 51.6744 26.3818C51.7713 30.0134 51.1019 33.6253 49.71 36.9809Z" fill="#FF0000"/>
<path d="M54.1152 18.7133C55.243 18.3801 55.8939 17.1926 55.4857 16.0898C53.2532 10.0591 49.2337 4.85028 43.9661 1.16165C43.0028 0.487148 41.6891 0.815733 41.0809 1.82214L27.1659 24.8471C26.9653 25.179 27.0867 25.6059 27.3236 25.9129C27.5606 26.2199 27.9427 26.4455 28.3146 26.3357L54.1152 18.7133Z" fill="#FF0000"/>
<path d="M144.632 24.2243C144.877 24.8153 145 25.5215 145 26.343V32.8503C145 33.6286 144.798 34.3204 144.394 34.9257C143.991 35.5167 143.422 35.9779 142.686 36.3094C141.951 36.6264 141.108 36.785 140.157 36.785C139.22 36.785 138.391 36.6264 137.671 36.3094C136.95 35.9779 136.388 35.5239 135.985 34.9474C135.581 34.3564 135.379 33.679 135.379 32.9152V32.3098C135.379 32.2378 135.401 32.1801 135.444 32.1369C135.502 32.0792 135.567 32.0504 135.639 32.0504H138.168C138.24 32.0504 138.298 32.0792 138.341 32.1369C138.399 32.1801 138.428 32.2378 138.428 32.3098V32.5044C138.428 32.98 138.586 33.3764 138.903 33.6935C139.235 34.0105 139.653 34.1691 140.157 34.1691C140.69 34.1691 141.123 34.0105 141.454 33.6935C141.786 33.362 141.951 32.944 141.951 32.4396V30.429C141.951 30.3858 141.937 30.3569 141.908 30.3425C141.879 30.3281 141.851 30.3353 141.822 30.3641C141.231 30.8686 140.453 31.1208 139.487 31.1208C138.622 31.1208 137.844 30.9262 137.152 30.5371C136.475 30.1335 135.941 29.557 135.552 28.8076C135.192 28.1302 135.012 27.3014 135.012 26.3214C135.012 25.471 135.156 24.7216 135.444 24.073C135.804 23.2227 136.381 22.5525 137.174 22.0624C137.981 21.5724 138.925 21.3274 140.006 21.3274C141.101 21.3274 142.052 21.5868 142.859 22.1057C143.681 22.6101 144.272 23.3163 144.632 24.2243ZM140.006 28.5698C140.755 28.5698 141.296 28.2743 141.627 27.6834C141.843 27.3086 141.951 26.8258 141.951 26.2349C141.951 25.7593 141.858 25.3197 141.67 24.9161C141.353 24.282 140.806 23.9649 140.027 23.9649C139.278 23.9649 138.73 24.282 138.384 24.9161C138.168 25.3197 138.06 25.7737 138.06 26.2781C138.06 26.8258 138.183 27.3014 138.428 27.705C138.788 28.2815 139.314 28.5698 140.006 28.5698Z" fill="white"/>
<path d="M130.366 29.9105C130.452 30.4582 130.481 31.0707 130.452 31.7481C130.438 31.9211 130.344 32.0076 130.171 32.0076H123.491C123.405 32.0076 123.376 32.0436 123.405 32.1156C123.448 32.4039 123.527 32.6922 123.642 32.9804C124.017 33.7875 124.781 34.1911 125.934 34.1911C126.856 34.1767 127.584 33.8019 128.118 33.0669C128.175 32.9804 128.24 32.9372 128.312 32.9372C128.355 32.9372 128.406 32.966 128.463 33.0236L130.02 34.5586C130.092 34.6307 130.128 34.6955 130.128 34.7532C130.128 34.782 130.099 34.8396 130.042 34.9261C129.566 35.517 128.954 35.9782 128.204 36.3097C127.455 36.6268 126.633 36.7854 125.739 36.7854C124.5 36.7854 123.448 36.5043 122.583 35.9422C121.733 35.3801 121.12 34.5946 120.746 33.5857C120.443 32.8651 120.292 31.9211 120.292 30.7537C120.292 29.961 120.4 29.2619 120.616 28.6566C120.947 27.6333 121.524 26.819 122.345 26.2137C123.181 25.6083 124.169 25.3057 125.307 25.3057C126.748 25.3057 127.901 25.7236 128.766 26.5596C129.645 27.3955 130.179 28.5125 130.366 29.9105ZM125.329 27.9432C124.421 27.9432 123.823 28.3684 123.534 29.2187C123.477 29.4061 123.426 29.6367 123.383 29.9105C123.383 29.9826 123.419 30.0186 123.491 30.0186H127.231C127.318 30.0186 127.347 29.9826 127.318 29.9105C127.246 29.4925 127.21 29.2908 127.21 29.3052C127.08 28.8728 126.849 28.5413 126.518 28.3107C126.201 28.0657 125.804 27.9432 125.329 27.9432Z" fill="white"/>
<path d="M114.864 25.327C115.989 25.327 116.868 25.6657 117.502 26.3431C118.136 27.0205 118.453 27.9718 118.453 29.1968V36.3527C118.453 36.4248 118.424 36.4896 118.367 36.5473C118.323 36.5905 118.266 36.6121 118.194 36.6121H115.664C115.592 36.6121 115.527 36.5905 115.47 36.5473C115.426 36.4896 115.405 36.4248 115.405 36.3527V29.867C115.405 29.2761 115.253 28.8077 114.951 28.4618C114.648 28.1159 114.245 27.9429 113.74 27.9429C113.236 27.9429 112.825 28.1159 112.508 28.4618C112.191 28.8077 112.032 29.2689 112.032 29.8454V36.3527C112.032 36.4248 112.003 36.4896 111.946 36.5473C111.903 36.5905 111.845 36.6121 111.773 36.6121H109.265C109.193 36.6121 109.128 36.5905 109.07 36.5473C109.027 36.4896 109.006 36.4248 109.006 36.3527V29.867C109.006 29.2905 108.847 28.8293 108.53 28.4834C108.213 28.1231 107.802 27.9429 107.298 27.9429C106.836 27.9429 106.447 28.0798 106.13 28.3537C105.828 28.6275 105.647 29.0095 105.59 29.4995V36.3527C105.59 36.4248 105.561 36.4896 105.503 36.5473C105.46 36.5905 105.402 36.6121 105.33 36.6121H102.801C102.729 36.6121 102.664 36.5905 102.606 36.5473C102.563 36.4896 102.542 36.4248 102.542 36.3527V25.7594C102.542 25.6873 102.563 25.6297 102.606 25.5865C102.664 25.5288 102.729 25.5 102.801 25.5H105.33C105.402 25.5 105.46 25.5288 105.503 25.5865C105.561 25.6297 105.59 25.6873 105.59 25.7594V26.6025C105.59 26.6458 105.604 26.6746 105.633 26.689C105.662 26.7034 105.691 26.689 105.719 26.6458C106.31 25.7666 107.226 25.327 108.465 25.327C109.186 25.327 109.813 25.4784 110.346 25.781C110.894 26.0837 111.312 26.5161 111.6 27.0782C111.643 27.1646 111.694 27.1646 111.751 27.0782C112.068 26.4872 112.493 26.0477 113.027 25.7594C113.574 25.4712 114.187 25.327 114.864 25.327Z" fill="white"/>
<path d="M97.247 25.7594C97.247 25.6874 97.2686 25.6297 97.3118 25.5865C97.3695 25.5288 97.4343 25.5 97.5064 25.5H100.036C100.108 25.5 100.166 25.5288 100.209 25.5865C100.266 25.6297 100.295 25.6874 100.295 25.7594V36.3527C100.295 36.4248 100.266 36.4897 100.209 36.5473C100.166 36.5905 100.108 36.6122 100.036 36.6122H97.5064C97.4343 36.6122 97.3695 36.5905 97.3118 36.5473C97.2686 36.4897 97.247 36.4248 97.247 36.3527V35.6177C97.247 35.5745 97.2326 35.5528 97.2037 35.5528C97.1749 35.5384 97.1461 35.5528 97.1173 35.5961C96.5408 36.3744 95.6472 36.7635 94.4365 36.7635C93.3411 36.7635 92.4404 36.432 91.7341 35.769C91.0279 35.106 90.6748 34.1764 90.6748 32.9802V25.7594C90.6748 25.6874 90.6964 25.6297 90.7397 25.5865C90.7973 25.5288 90.8622 25.5 90.9342 25.5H93.442C93.5141 25.5 93.5718 25.5288 93.615 25.5865C93.6726 25.6297 93.7015 25.6874 93.7015 25.7594V32.2235C93.7015 32.8 93.8528 33.2684 94.1555 33.6287C94.4725 33.9891 94.9049 34.1692 95.4526 34.1692C95.9426 34.1692 96.3462 34.0251 96.6633 33.7368C96.9803 33.4342 97.1749 33.045 97.247 32.5694V25.7594Z" fill="white"/>
<path d="M85.7428 36.6123C85.6708 36.6123 85.6059 36.5907 85.5483 36.5474C85.505 36.4898 85.4834 36.4249 85.4834 36.3529V21.7384C85.4834 21.6664 85.505 21.6087 85.5483 21.5655C85.6059 21.5078 85.6708 21.479 85.7428 21.479H88.2722C88.3443 21.479 88.402 21.5078 88.4452 21.5655C88.5029 21.6087 88.5317 21.6664 88.5317 21.7384V36.3529C88.5317 36.4249 88.5029 36.4898 88.4452 36.5474C88.402 36.5907 88.3443 36.6123 88.2722 36.6123H85.7428Z" fill="white"/>
<path d="M78.357 36.7851C77.1464 36.7851 76.1086 36.468 75.2439 35.8339C74.3791 35.1997 73.7882 34.3349 73.4711 33.2396C73.2693 32.5622 73.1685 31.8271 73.1685 31.0344C73.1685 30.1841 73.2693 29.4202 73.4711 28.7428C73.8026 27.6763 74.4007 26.8404 75.2655 26.235C76.1303 25.6297 77.168 25.327 78.3786 25.327C79.5605 25.327 80.5694 25.6297 81.4053 26.235C82.2412 26.8259 82.8322 27.6547 83.1781 28.7212C83.4087 29.4418 83.524 30.1985 83.524 30.9912C83.524 31.7695 83.4231 32.4973 83.2213 33.1747C82.9042 34.2989 82.3133 35.1853 81.4485 35.8339C80.5982 36.468 79.5677 36.7851 78.357 36.7851ZM78.357 34.1692C78.8326 34.1692 79.2362 34.0251 79.5677 33.7368C79.8992 33.4486 80.137 33.0522 80.2811 32.5478C80.3964 32.0866 80.4541 31.5821 80.4541 31.0344C80.4541 30.4291 80.3964 29.9175 80.2811 29.4995C80.1226 29.0095 79.8776 28.6275 79.5461 28.3537C79.2146 28.0798 78.811 27.9429 78.3354 27.9429C77.8454 27.9429 77.4346 28.0798 77.1031 28.3537C76.786 28.6275 76.5554 29.0095 76.4113 29.4995C76.296 29.8454 76.2384 30.357 76.2384 31.0344C76.2384 31.683 76.2888 32.1875 76.3897 32.5478C76.5338 33.0522 76.7716 33.4486 77.1031 33.7368C77.449 34.0251 77.867 34.1692 78.357 34.1692Z" fill="white"/>
<path d="M65.5462 36.6123C65.4021 36.6123 65.3084 36.5402 65.2652 36.3961L60.8117 21.7817L60.79 21.6952C60.79 21.5511 60.8693 21.479 61.0278 21.479H63.7518C63.9104 21.479 64.0113 21.5511 64.0545 21.6952L66.9298 32.2453C66.9442 32.2885 66.9659 32.3101 66.9947 32.3101C67.0235 32.3101 67.0451 32.2885 67.0595 32.2453L69.8916 21.6952C69.9349 21.5511 70.0358 21.479 70.1943 21.479H72.8534C72.9399 21.479 73.0048 21.5078 73.048 21.5655C73.0912 21.6231 73.0985 21.6952 73.0696 21.7817L68.5513 36.3961C68.508 36.5402 68.4143 36.6123 68.2702 36.6123H65.5462Z" fill="white"/>
<path d="M143.682 43.8164C144.094 43.8164 144.416 43.9423 144.646 44.1941C144.882 44.4405 145 44.786 145 45.2306V47.8903C145 47.9171 144.989 47.9412 144.968 47.9626C144.952 47.9787 144.93 47.9867 144.903 47.9867H144.172C144.145 47.9867 144.121 47.9787 144.1 47.9626C144.084 47.9412 144.076 47.9171 144.076 47.8903V45.4235C144.076 45.1771 144.009 44.9815 143.875 44.8369C143.746 44.6923 143.572 44.6199 143.352 44.6199C143.133 44.6199 142.953 44.6923 142.814 44.8369C142.675 44.9815 142.605 45.1744 142.605 45.4154V47.8903C142.605 47.9171 142.594 47.9412 142.573 47.9626C142.557 47.9787 142.536 47.9867 142.509 47.9867H141.778C141.751 47.9867 141.727 47.9787 141.705 47.9626C141.689 47.9412 141.681 47.9171 141.681 47.8903V45.4235C141.681 45.1771 141.614 44.9815 141.48 44.8369C141.346 44.6923 141.17 44.6199 140.95 44.6199C140.746 44.6199 140.578 44.6789 140.444 44.7967C140.315 44.9146 140.24 45.0753 140.219 45.2788V47.8903C140.219 47.9171 140.208 47.9412 140.187 47.9626C140.171 47.9787 140.149 47.9867 140.122 47.9867H139.383C139.356 47.9867 139.332 47.9787 139.311 47.9626C139.295 47.9412 139.287 47.9171 139.287 47.8903V43.9771C139.287 43.9503 139.295 43.9289 139.311 43.9128C139.332 43.8914 139.356 43.8807 139.383 43.8807H140.122C140.149 43.8807 140.171 43.8914 140.187 43.9128C140.208 43.9289 140.219 43.9503 140.219 43.9771V44.2423C140.219 44.2583 140.224 44.2691 140.235 44.2744C140.246 44.2798 140.256 44.2744 140.267 44.2583C140.385 44.1084 140.529 43.9985 140.701 43.9289C140.878 43.8539 141.073 43.8164 141.287 43.8164C141.55 43.8164 141.78 43.87 141.978 43.9771C142.177 44.0843 142.329 44.2396 142.436 44.4432C142.453 44.4646 142.471 44.4646 142.493 44.4432C142.611 44.2289 142.774 44.0709 142.983 43.9691C143.192 43.8673 143.425 43.8164 143.682 43.8164Z" fill="white"/>
<path d="M132.87 48.051C132.446 48.051 132.082 47.9439 131.777 47.7296C131.477 47.5153 131.265 47.218 131.142 46.8377C131.051 46.5484 131.005 46.2431 131.005 45.9217C131.005 45.5788 131.048 45.2735 131.134 45.0056C131.257 44.6307 131.471 44.3387 131.777 44.1298C132.082 43.9209 132.449 43.8164 132.878 43.8164C133.285 43.8164 133.636 43.9209 133.93 44.1298C134.23 44.3387 134.442 44.628 134.565 44.9976C134.661 45.2547 134.71 45.5601 134.71 45.9136C134.71 46.2511 134.664 46.5564 134.573 46.8296C134.45 47.21 134.238 47.51 133.938 47.7296C133.638 47.9439 133.282 48.051 132.87 48.051ZM132.87 47.2475C133.068 47.2475 133.237 47.1912 133.376 47.0787C133.52 46.9662 133.625 46.8082 133.689 46.6047C133.743 46.4279 133.77 46.2029 133.77 45.9297C133.77 45.6404 133.743 45.4154 133.689 45.2547C133.63 45.0512 133.528 44.8958 133.384 44.7887C133.239 44.6762 133.062 44.6199 132.853 44.6199C132.655 44.6199 132.484 44.6762 132.339 44.7887C132.195 44.8958 132.09 45.0512 132.026 45.2547C131.972 45.4422 131.946 45.6672 131.946 45.9297C131.946 46.1922 131.972 46.4172 132.026 46.6047C132.085 46.8082 132.187 46.9662 132.331 47.0787C132.481 47.1912 132.661 47.2475 132.87 47.2475Z" fill="white"/>
<path d="M124.912 48.051C124.499 48.051 124.143 47.9466 123.843 47.7376C123.543 47.5234 123.334 47.2368 123.216 46.8779C123.131 46.6368 123.088 46.3154 123.088 45.9136C123.088 45.5279 123.131 45.2119 123.216 44.9655C123.329 44.6119 123.535 44.3333 123.835 44.1298C124.141 43.9209 124.499 43.8164 124.912 43.8164C125.33 43.8164 125.694 43.9209 126.005 44.1298C126.315 44.3387 126.522 44.6012 126.623 44.9172C126.65 45.003 126.669 45.0887 126.68 45.1744V45.1904C126.68 45.244 126.65 45.2762 126.591 45.2869L125.868 45.3913H125.852C125.804 45.3913 125.772 45.3645 125.756 45.311C125.756 45.2842 125.753 45.2628 125.748 45.2467C125.737 45.2038 125.726 45.1663 125.715 45.1342C125.667 44.9842 125.571 44.861 125.426 44.7646C125.282 44.6681 125.11 44.6199 124.912 44.6199C124.708 44.6199 124.534 44.6735 124.39 44.7806C124.25 44.8824 124.157 45.0244 124.108 45.2065C124.055 45.3779 124.028 45.6163 124.028 45.9217C124.028 46.2163 124.052 46.4547 124.1 46.6368C124.154 46.8243 124.25 46.9743 124.39 47.0868C124.529 47.1939 124.703 47.2475 124.912 47.2475C125.115 47.2475 125.29 47.1966 125.434 47.0948C125.584 46.9877 125.681 46.8457 125.723 46.6689C125.729 46.6582 125.732 46.6448 125.732 46.6288C125.737 46.6234 125.74 46.6154 125.74 46.6047C125.756 46.5404 125.793 46.5136 125.852 46.5243L126.575 46.6368C126.602 46.6422 126.623 46.6555 126.639 46.677C126.661 46.693 126.669 46.7172 126.664 46.7493C126.648 46.835 126.634 46.8966 126.623 46.9341C126.522 47.2769 126.315 47.5501 126.005 47.7537C125.694 47.9519 125.33 48.051 124.912 48.051Z" fill="white"/>
<path d="M117.979 48.0025C117.813 48.0025 117.677 47.9489 117.569 47.8418C117.462 47.7346 117.409 47.598 117.409 47.432C117.409 47.2659 117.462 47.1293 117.569 47.0222C117.677 46.915 117.813 46.8615 117.979 46.8615C118.145 46.8615 118.279 46.915 118.381 47.0222C118.488 47.1293 118.542 47.2659 118.542 47.432C118.542 47.598 118.488 47.7346 118.381 47.8418C118.274 47.9489 118.14 48.0025 117.979 48.0025Z" fill="white"/>
<path d="M112.681 43.3583C112.767 43.5833 112.81 43.8458 112.81 44.1457V46.5965C112.81 46.8858 112.738 47.1402 112.593 47.3599C112.448 47.5795 112.245 47.7509 111.982 47.8741C111.725 47.992 111.428 48.0509 111.09 48.0509C110.764 48.0509 110.472 47.992 110.215 47.8741C109.963 47.7563 109.765 47.5902 109.62 47.3759C109.481 47.1617 109.411 46.9153 109.411 46.6367V46.4599C109.411 46.4331 109.419 46.4117 109.435 46.3956C109.457 46.3742 109.481 46.3635 109.507 46.3635H110.247C110.273 46.3635 110.295 46.3742 110.311 46.3956C110.332 46.4117 110.343 46.4331 110.343 46.4599V46.5162C110.343 46.7304 110.413 46.9072 110.552 47.0465C110.691 47.1804 110.871 47.2474 111.09 47.2474C111.321 47.2474 111.508 47.1777 111.653 47.0385C111.803 46.8938 111.878 46.709 111.878 46.484V45.6001C111.878 45.5841 111.872 45.5734 111.862 45.568C111.851 45.5626 111.84 45.5653 111.83 45.576C111.599 45.801 111.286 45.9135 110.89 45.9135C110.573 45.9135 110.295 45.8466 110.054 45.7126C109.818 45.5787 109.633 45.3859 109.499 45.1341C109.349 44.8662 109.274 44.5341 109.274 44.1377C109.274 43.8109 109.328 43.5244 109.435 43.2779C109.564 42.9726 109.767 42.7342 110.046 42.5628C110.324 42.3914 110.654 42.3057 111.034 42.3057C111.436 42.3057 111.779 42.3994 112.063 42.5869C112.352 42.769 112.558 43.0262 112.681 43.3583ZM111.749 44.7243C111.835 44.5529 111.878 44.344 111.878 44.0975C111.878 43.894 111.843 43.7145 111.773 43.5592C111.645 43.2645 111.404 43.1172 111.05 43.1172C110.707 43.1172 110.466 43.2619 110.327 43.5511C110.247 43.7279 110.207 43.9181 110.207 44.1216C110.207 44.3627 110.255 44.5689 110.351 44.7404C110.501 44.9975 110.731 45.1261 111.042 45.1261C111.374 45.1261 111.61 44.9921 111.749 44.7243Z" fill="white"/>
<path d="M104.895 45.4717C104.916 45.6056 104.927 45.7556 104.927 45.9217L104.919 46.1708C104.919 46.235 104.887 46.2672 104.822 46.2672H102.307C102.28 46.2672 102.267 46.2806 102.267 46.3074C102.283 46.4841 102.307 46.6047 102.339 46.6689C102.468 47.0546 102.781 47.2502 103.28 47.2555C103.644 47.2555 103.933 47.1055 104.147 46.8055C104.169 46.7734 104.196 46.7573 104.228 46.7573C104.249 46.7573 104.268 46.7654 104.284 46.7814L104.782 47.1912C104.83 47.2287 104.838 47.2716 104.806 47.3198C104.64 47.5555 104.418 47.7376 104.139 47.8662C103.866 47.9948 103.561 48.059 103.223 48.059C102.805 48.059 102.449 47.9653 102.155 47.7778C101.865 47.5903 101.654 47.3278 101.52 46.9904C101.397 46.7011 101.335 46.2993 101.335 45.7851C101.335 45.4744 101.367 45.2226 101.431 45.0297C101.539 44.6548 101.739 44.3601 102.034 44.1459C102.334 43.9262 102.693 43.8164 103.111 43.8164C104.166 43.8164 104.761 44.3682 104.895 45.4717ZM103.111 44.6199C102.913 44.6199 102.746 44.6708 102.613 44.7726C102.484 44.869 102.393 45.0056 102.339 45.1824C102.307 45.2735 102.286 45.3913 102.275 45.536C102.264 45.5627 102.275 45.5761 102.307 45.5761H103.938C103.965 45.5761 103.979 45.5627 103.979 45.536C103.968 45.402 103.952 45.3003 103.93 45.2306C103.882 45.0378 103.786 44.8878 103.641 44.7806C103.502 44.6735 103.325 44.6199 103.111 44.6199Z" fill="white"/>
<path d="M95.4998 43.8164C95.9123 43.8164 96.2337 43.9423 96.464 44.1941C96.6997 44.4405 96.8176 44.786 96.8176 45.2306V47.8903C96.8176 47.9171 96.8069 47.9412 96.7855 47.9626C96.7694 47.9787 96.748 47.9867 96.7212 47.9867H95.99C95.9632 47.9867 95.9391 47.9787 95.9176 47.9626C95.9016 47.9412 95.8935 47.9171 95.8935 47.8903V45.4235C95.8935 45.1771 95.8266 44.9815 95.6927 44.8369C95.5641 44.6923 95.39 44.6199 95.1704 44.6199C94.9507 44.6199 94.7713 44.6923 94.632 44.8369C94.4927 44.9815 94.4231 45.1744 94.4231 45.4154V47.8903C94.4231 47.9171 94.4124 47.9412 94.3909 47.9626C94.3749 47.9787 94.3534 47.9867 94.3266 47.9867H93.5954C93.5687 47.9867 93.5445 47.9787 93.5231 47.9626C93.507 47.9412 93.499 47.9171 93.499 47.8903V45.4235C93.499 45.1771 93.4321 44.9815 93.2981 44.8369C93.1642 44.6923 92.9874 44.6199 92.7678 44.6199C92.5642 44.6199 92.3955 44.6789 92.2616 44.7967C92.133 44.9146 92.058 45.0753 92.0366 45.2788V47.8903C92.0366 47.9171 92.0259 47.9412 92.0044 47.9626C91.9884 47.9787 91.9669 47.9867 91.9402 47.9867H91.2009C91.1741 47.9867 91.15 47.9787 91.1286 47.9626C91.1125 47.9412 91.1045 47.9171 91.1045 47.8903V43.9771C91.1045 43.9503 91.1125 43.9289 91.1286 43.9128C91.15 43.8914 91.1741 43.8807 91.2009 43.8807H91.9402C91.9669 43.8807 91.9884 43.8914 92.0044 43.9128C92.0259 43.9289 92.0366 43.9503 92.0366 43.9771V44.2423C92.0366 44.2583 92.0419 44.2691 92.0527 44.2744C92.0634 44.2798 92.0741 44.2744 92.0848 44.2583C92.2027 44.1084 92.3473 43.9985 92.5187 43.9289C92.6955 43.8539 92.891 43.8164 93.1053 43.8164C93.3678 43.8164 93.5981 43.87 93.7963 43.9771C93.9945 44.0843 94.1472 44.2396 94.2543 44.4432C94.2704 44.4646 94.2892 44.4646 94.3106 44.4432C94.4284 44.2289 94.5918 44.0709 94.8007 43.9691C95.0096 43.8673 95.2427 43.8164 95.4998 43.8164Z" fill="white"/>
<path d="M85.4876 43.9764C85.4876 43.9496 85.4956 43.9282 85.5117 43.9121C85.5331 43.8907 85.5572 43.88 85.584 43.88H86.3152C86.342 43.88 86.3634 43.8907 86.3795 43.9121C86.4009 43.9282 86.4116 43.9496 86.4116 43.9764V47.8896C86.4116 47.9164 86.4009 47.9405 86.3795 47.9619C86.3634 47.978 86.342 47.986 86.3152 47.986H85.584C85.5572 47.986 85.5331 47.978 85.5117 47.9619C85.4956 47.9405 85.4876 47.9164 85.4876 47.8896V47.6325C85.4876 47.6164 85.4822 47.6057 85.4715 47.6004C85.4608 47.595 85.4501 47.6004 85.4394 47.6164C85.2197 47.9003 84.8903 48.0423 84.451 48.0423C84.0439 48.0423 83.7011 47.9244 83.4225 47.6887C83.1493 47.453 83.0127 47.1182 83.0127 46.6843V43.9764C83.0127 43.9496 83.0207 43.9282 83.0368 43.9121C83.0582 43.8907 83.0823 43.88 83.1091 43.88H83.8484C83.8751 43.88 83.8966 43.8907 83.9126 43.9121C83.9341 43.9282 83.9448 43.9496 83.9448 43.9764V46.4192C83.9448 46.6709 84.0091 46.8718 84.1376 47.0218C84.2716 47.1718 84.4564 47.2468 84.6921 47.2468C84.9331 47.2468 85.126 47.1718 85.2706 47.0218C85.4153 46.8718 85.4876 46.6709 85.4876 46.4192V43.9764Z" fill="white"/>
<path d="M77.5383 47.9865C77.5115 47.9865 77.4874 47.9785 77.466 47.9624C77.4499 47.941 77.4419 47.9169 77.4419 47.8901V42.4582C77.4419 42.4315 77.4499 42.41 77.466 42.394C77.4874 42.3725 77.5115 42.3618 77.5383 42.3618H78.2776C78.3044 42.3618 78.3258 42.3725 78.3418 42.394C78.3633 42.41 78.374 42.4315 78.374 42.4582V47.8901C78.374 47.9169 78.3633 47.941 78.3418 47.9624C78.3258 47.9785 78.3044 47.9865 78.2776 47.9865H77.5383Z" fill="white"/>
<path d="M71.0243 48.051C70.6012 48.051 70.2369 47.9439 69.9315 47.7296C69.6316 47.5153 69.42 47.218 69.2968 46.8377C69.2057 46.5484 69.1602 46.2431 69.1602 45.9217C69.1602 45.5788 69.203 45.2735 69.2887 45.0056C69.4119 44.6307 69.6262 44.3387 69.9315 44.1298C70.2369 43.9209 70.6038 43.8164 71.0324 43.8164C71.4395 43.8164 71.7904 43.9209 72.085 44.1298C72.385 44.3387 72.5966 44.628 72.7198 44.9976C72.8162 45.2547 72.8644 45.5601 72.8644 45.9136C72.8644 46.2511 72.8189 46.5564 72.7278 46.8296C72.6046 47.21 72.393 47.51 72.093 47.7296C71.7931 47.9439 71.4368 48.051 71.0243 48.051ZM71.0243 47.2475C71.2226 47.2475 71.3913 47.1912 71.5306 47.0787C71.6752 46.9662 71.7797 46.8082 71.8439 46.6047C71.8975 46.4279 71.9243 46.2029 71.9243 45.9297C71.9243 45.6404 71.8975 45.4154 71.8439 45.2547C71.785 45.0512 71.6832 44.8958 71.5386 44.7887C71.394 44.6762 71.2172 44.6199 71.0083 44.6199C70.8101 44.6199 70.6387 44.6762 70.494 44.7887C70.3494 44.8958 70.2449 45.0512 70.1806 45.2547C70.1271 45.4422 70.1003 45.6672 70.1003 45.9297C70.1003 46.1922 70.1271 46.4172 70.1806 46.6047C70.2396 46.8082 70.3413 46.9662 70.486 47.0787C70.636 47.1912 70.8154 47.2475 71.0243 47.2475Z" fill="white"/>
<path d="M62.8647 47.9865C62.8111 47.9865 62.7763 47.9597 62.7602 47.9062L61.4665 43.9849C61.4612 43.9742 61.4585 43.9608 61.4585 43.9448C61.4585 43.8965 61.488 43.8724 61.5469 43.8724H62.3665C62.4254 43.8724 62.4629 43.8992 62.479 43.9528L63.2584 46.6366C63.2638 46.6527 63.2718 46.6607 63.2825 46.6607C63.2932 46.6607 63.3013 46.6527 63.3066 46.6366L64.086 43.9528C64.1021 43.8992 64.1396 43.8724 64.1985 43.8724L65.0181 43.8885C65.0503 43.8885 65.0744 43.8992 65.0905 43.9206C65.1065 43.9367 65.1092 43.9635 65.0985 44.001L63.8128 47.9062C63.7968 47.9597 63.762 47.9865 63.7084 47.9865H62.8647Z" fill="white"/>
</svg>
